<?xml version="1.0" encoding="utf-8" standalone="no"?>
<!DOCTYPE svg PUBLIC "-//W3C//DTD SVG 1.1//EN"
  "http://www.w3.org/Graphics/SVG/1.1/DTD/svg11.dtd">
<!-- Created with matplotlib (https://matplotlib.org/) -->
<svg height="360pt" version="1.1" viewBox="0 0 648 360" width="648pt" xmlns="http://www.w3.org/2000/svg" xmlns:xlink="http://www.w3.org/1999/xlink">
 <defs>
  <style type="text/css">
*{stroke-linecap:butt;stroke-linejoin:round;white-space:pre;}
  </style>
 </defs>
 <g id="figure_1">
  <g id="patch_1">
   <path d="M 0 360 
L 648 360 
L 648 0 
L 0 0 
z
" style="fill:#ffffff;"/>
  </g>
  <g id="axes_1">
   <g id="patch_2">
    <path d="M 64.8 216 
L 304.278261 216 
L 304.278261 43.2 
L 64.8 43.2 
z
" style="fill:#eaeaf2;"/>
   </g>
   <g id="patch_3">
    <path clip-path="url(#pa947243922)" d="M 144.626087 216 
L 144.626087 43.2 
L 224.452174 43.2 
L 224.452174 216 
z
" style="fill:#ffffff;stroke:#ffffff;stroke-linejoin:miter;"/>
   </g>
   <g id="patch_4">
    <path clip-path="url(#pa947243922)" d="M 304.278261 216 
L 304.278261 43.2 
L 384.104348 43.2 
L 384.104348 216 
z
" style="fill:#ffffff;stroke:#ffffff;stroke-linejoin:miter;"/>
   </g>
   <g id="patch_5">
    <path clip-path="url(#pa947243922)" d="M 463.930435 216 
L 463.930435 43.2 
L 543.756522 43.2 
L 543.756522 216 
z
" style="fill:#ffffff;stroke:#ffffff;stroke-linejoin:miter;"/>
   </g>
   <g id="patch_6">
    <path clip-path="url(#pa947243922)" d="M 623.582609 216 
L 623.582609 43.2 
L 703.408696 43.2 
L 703.408696 216 
z
" style="fill:#ffffff;stroke:#ffffff;stroke-linejoin:miter;"/>
   </g>
   <g id="patch_7">
    <path clip-path="url(#pa947243922)" d="M 783.234783 216 
L 783.234783 43.2 
L 863.06087 43.2 
L 863.06087 216 
z
" style="fill:#ffffff;stroke:#ffffff;stroke-linejoin:miter;"/>
   </g>
   <g id="patch_8">
    <path clip-path="url(#pa947243922)" d="M 942.886957 216 
L 942.886957 43.2 
L 1022.713043 43.2 
L 1022.713043 216 
z
" style="fill:#ffffff;stroke:#ffffff;stroke-linejoin:miter;"/>
   </g>
   <g id="patch_9">
    <path clip-path="url(#pa947243922)" d="M 1102.53913 216 
L 1102.53913 43.2 
L 1182.365217 43.2 
L 1182.365217 216 
z
" style="fill:#ffffff;stroke:#ffffff;stroke-linejoin:miter;"/>
   </g>
   <g id="patch_10">
    <path clip-path="url(#pa947243922)" d="M 1262.191304 216 
L 1262.191304 43.2 
L 1342.017391 43.2 
L 1342.017391 216 
z
" style="fill:#ffffff;stroke:#ffffff;stroke-linejoin:miter;"/>
   </g>
   <g id="matplotlib.axis_1">
    <g id="xtick_1">
     <g id="text_1">
      <!-- Strong link -->
      <defs>
       <path d="M 53.515625 70.515625 
L 53.515625 60.890625 
Q 47.90625 63.578125 42.921875 64.890625 
Q 37.9375 66.21875 33.296875 66.21875 
Q 25.25 66.21875 20.875 63.09375 
Q 16.5 59.96875 16.5 54.203125 
Q 16.5 49.359375 19.40625 46.890625 
Q 22.3125 44.4375 30.421875 42.921875 
L 36.375 41.703125 
Q 47.40625 39.59375 52.65625 34.296875 
Q 57.90625 29 57.90625 20.125 
Q 57.90625 9.515625 50.796875 4.046875 
Q 43.703125 -1.421875 29.984375 -1.421875 
Q 24.8125 -1.421875 18.96875 -0.25 
Q 13.140625 0.921875 6.890625 3.21875 
L 6.890625 13.375 
Q 12.890625 10.015625 18.65625 8.296875 
Q 24.421875 6.59375 29.984375 6.59375 
Q 38.421875 6.59375 43.015625 9.90625 
Q 47.609375 13.234375 47.609375 19.390625 
Q 47.609375 24.75 44.3125 27.78125 
Q 41.015625 30.8125 33.5 32.328125 
L 27.484375 33.5 
Q 16.453125 35.6875 11.515625 40.375 
Q 6.59375 45.0625 6.59375 53.421875 
Q 6.59375 63.09375 13.40625 68.65625 
Q 20.21875 74.21875 32.171875 74.21875 
Q 37.3125 74.21875 42.625 73.28125 
Q 47.953125 72.359375 53.515625 70.515625 
z
" id="DejaVuSans-83"/>
       <path d="M 18.3125 70.21875 
L 18.3125 54.6875 
L 36.8125 54.6875 
L 36.8125 47.703125 
L 18.3125 47.703125 
L 18.3125 18.015625 
Q 18.3125 11.328125 20.140625 9.421875 
Q 21.96875 7.515625 27.59375 7.515625 
L 36.8125 7.515625 
L 36.8125 0 
L 27.59375 0 
Q 17.1875 0 13.234375 3.875 
Q 9.28125 7.765625 9.28125 18.015625 
L 9.28125 47.703125 
L 2.6875 47.703125 
L 2.6875 54.6875 
L 9.28125 54.6875 
L 9.28125 70.21875 
z
" id="DejaVuSans-116"/>
       <path d="M 41.109375 46.296875 
Q 39.59375 47.171875 37.8125 47.578125 
Q 36.03125 48 33.890625 48 
Q 26.265625 48 22.1875 43.046875 
Q 18.109375 38.09375 18.109375 28.8125 
L 18.109375 0 
L 9.078125 0 
L 9.078125 54.6875 
L 18.109375 54.6875 
L 18.109375 46.1875 
Q 20.953125 51.171875 25.484375 53.578125 
Q 30.03125 56 36.53125 56 
Q 37.453125 56 38.578125 55.875 
Q 39.703125 55.765625 41.0625 55.515625 
z
" id="DejaVuSans-114"/>
       <path d="M 30.609375 48.390625 
Q 23.390625 48.390625 19.1875 42.75 
Q 14.984375 37.109375 14.984375 27.296875 
Q 14.984375 17.484375 19.15625 11.84375 
Q 23.34375 6.203125 30.609375 6.203125 
Q 37.796875 6.203125 41.984375 11.859375 
Q 46.1875 17.53125 46.1875 27.296875 
Q 46.1875 37.015625 41.984375 42.703125 
Q 37.796875 48.390625 30.609375 48.390625 
z
M 30.609375 56 
Q 42.328125 56 49.015625 48.375 
Q 55.71875 40.765625 55.71875 27.296875 
Q 55.71875 13.875 49.015625 6.21875 
Q 42.328125 -1.421875 30.609375 -1.421875 
Q 18.84375 -1.421875 12.171875 6.21875 
Q 5.515625 13.875 5.515625 27.296875 
Q 5.515625 40.765625 12.171875 48.375 
Q 18.84375 56 30.609375 56 
z
" id="DejaVuSans-111"/>
       <path d="M 54.890625 33.015625 
L 54.890625 0 
L 45.90625 0 
L 45.90625 32.71875 
Q 45.90625 40.484375 42.875 44.328125 
Q 39.84375 48.1875 33.796875 48.1875 
Q 26.515625 48.1875 22.3125 43.546875 
Q 18.109375 38.921875 18.109375 30.90625 
L 18.109375 0 
L 9.078125 0 
L 9.078125 54.6875 
L 18.109375 54.6875 
L 18.109375 46.1875 
Q 21.34375 51.125 25.703125 53.5625 
Q 30.078125 56 35.796875 56 
Q 45.21875 56 50.046875 50.171875 
Q 54.890625 44.34375 54.890625 33.015625 
z
" id="DejaVuSans-110"/>
       <path d="M 45.40625 27.984375 
Q 45.40625 37.75 41.375 43.109375 
Q 37.359375 48.484375 30.078125 48.484375 
Q 22.859375 48.484375 18.828125 43.109375 
Q 14.796875 37.75 14.796875 27.984375 
Q 14.796875 18.265625 18.828125 12.890625 
Q 22.859375 7.515625 30.078125 7.515625 
Q 37.359375 7.515625 41.375 12.890625 
Q 45.40625 18.265625 45.40625 27.984375 
z
M 54.390625 6.78125 
Q 54.390625 -7.171875 48.1875 -13.984375 
Q 42 -20.796875 29.203125 -20.796875 
Q 24.46875 -20.796875 20.265625 -20.09375 
Q 16.0625 -19.390625 12.109375 -17.921875 
L 12.109375 -9.1875 
Q 16.0625 -11.328125 19.921875 -12.34375 
Q 23.78125 -13.375 27.78125 -13.375 
Q 36.625 -13.375 41.015625 -8.765625 
Q 45.40625 -4.15625 45.40625 5.171875 
L 45.40625 9.625 
Q 42.625 4.78125 38.28125 2.390625 
Q 33.9375 0 27.875 0 
Q 17.828125 0 11.671875 7.65625 
Q 5.515625 15.328125 5.515625 27.984375 
Q 5.515625 40.671875 11.671875 48.328125 
Q 17.828125 56 27.875 56 
Q 33.9375 56 38.28125 53.609375 
Q 42.625 51.21875 45.40625 46.390625 
L 45.40625 54.6875 
L 54.390625 54.6875 
z
" id="DejaVuSans-103"/>
       <path id="DejaVuSans-32"/>
       <path d="M 9.421875 75.984375 
L 18.40625 75.984375 
L 18.40625 0 
L 9.421875 0 
z
" id="DejaVuSans-108"/>
       <path d="M 9.421875 54.6875 
L 18.40625 54.6875 
L 18.40625 0 
L 9.421875 0 
z
M 9.421875 75.984375 
L 18.40625 75.984375 
L 18.40625 64.59375 
L 9.421875 64.59375 
z
" id="DejaVuSans-105"/>
       <path d="M 9.078125 75.984375 
L 18.109375 75.984375 
L 18.109375 31.109375 
L 44.921875 54.6875 
L 56.390625 54.6875 
L 27.390625 29.109375 
L 57.625 0 
L 45.90625 0 
L 18.109375 26.703125 
L 18.109375 0 
L 9.078125 0 
z
" id="DejaVuSans-107"/>
      </defs>
      <g style="fill:#262626;" transform="translate(94.074546 309.913331)rotate(-70)scale(0.16 -0.16)">
       <use xlink:href="#DejaVuSans-83"/>
       <use x="63.476562" xlink:href="#DejaVuSans-116"/>
       <use x="102.685547" xlink:href="#DejaVuSans-114"/>
       <use x="143.767578" xlink:href="#DejaVuSans-111"/>
       <use x="204.949219" xlink:href="#DejaVuSans-110"/>
       <use x="268.328125" xlink:href="#DejaVuSans-103"/>
       <use x="331.804688" xlink:href="#DejaVuSans-32"/>
       <use x="363.591797" xlink:href="#DejaVuSans-108"/>
       <use x="391.375" xlink:href="#DejaVuSans-105"/>
       <use x="419.158203" xlink:href="#DejaVuSans-110"/>
       <use x="482.537109" xlink:href="#DejaVuSans-107"/>
      </g>
     </g>
    </g>
    <g id="xtick_2">
     <g id="text_2">
      <!-- Weak link -->
      <defs>
       <path d="M 3.328125 72.90625 
L 13.28125 72.90625 
L 28.609375 11.28125 
L 43.890625 72.90625 
L 54.984375 72.90625 
L 70.3125 11.28125 
L 85.59375 72.90625 
L 95.609375 72.90625 
L 77.296875 0 
L 64.890625 0 
L 49.515625 63.28125 
L 33.984375 0 
L 21.578125 0 
z
" id="DejaVuSans-87"/>
       <path d="M 56.203125 29.59375 
L 56.203125 25.203125 
L 14.890625 25.203125 
Q 15.484375 15.921875 20.484375 11.0625 
Q 25.484375 6.203125 34.421875 6.203125 
Q 39.59375 6.203125 44.453125 7.46875 
Q 49.3125 8.734375 54.109375 11.28125 
L 54.109375 2.78125 
Q 49.265625 0.734375 44.1875 -0.34375 
Q 39.109375 -1.421875 33.890625 -1.421875 
Q 20.796875 -1.421875 13.15625 6.1875 
Q 5.515625 13.8125 5.515625 26.8125 
Q 5.515625 40.234375 12.765625 48.109375 
Q 20.015625 56 32.328125 56 
Q 43.359375 56 49.78125 48.890625 
Q 56.203125 41.796875 56.203125 29.59375 
z
M 47.21875 32.234375 
Q 47.125 39.59375 43.09375 43.984375 
Q 39.0625 48.390625 32.421875 48.390625 
Q 24.90625 48.390625 20.390625 44.140625 
Q 15.875 39.890625 15.1875 32.171875 
z
" id="DejaVuSans-101"/>
       <path d="M 34.28125 27.484375 
Q 23.390625 27.484375 19.1875 25 
Q 14.984375 22.515625 14.984375 16.5 
Q 14.984375 11.71875 18.140625 8.90625 
Q 21.296875 6.109375 26.703125 6.109375 
Q 34.1875 6.109375 38.703125 11.40625 
Q 43.21875 16.703125 43.21875 25.484375 
L 43.21875 27.484375 
z
M 52.203125 31.203125 
L 52.203125 0 
L 43.21875 0 
L 43.21875 8.296875 
Q 40.140625 3.328125 35.546875 0.953125 
Q 30.953125 -1.421875 24.3125 -1.421875 
Q 15.921875 -1.421875 10.953125 3.296875 
Q 6 8.015625 6 15.921875 
Q 6 25.140625 12.171875 29.828125 
Q 18.359375 34.515625 30.609375 34.515625 
L 43.21875 34.515625 
L 43.21875 35.40625 
Q 43.21875 41.609375 39.140625 45 
Q 35.0625 48.390625 27.6875 48.390625 
Q 23 48.390625 18.546875 47.265625 
Q 14.109375 46.140625 10.015625 43.890625 
L 10.015625 52.203125 
Q 14.9375 54.109375 19.578125 55.046875 
Q 24.21875 56 28.609375 56 
Q 40.484375 56 46.34375 49.84375 
Q 52.203125 43.703125 52.203125 31.203125 
z
" id="DejaVuSans-97"/>
      </defs>
      <g style="fill:#262626;" transform="translate(175.331559 302.050453)rotate(-70)scale(0.16 -0.16)">
       <use xlink:href="#DejaVuSans-87"/>
       <use x="98.798828" xlink:href="#DejaVuSans-101"/>
       <use x="160.322266" xlink:href="#DejaVuSans-97"/>
       <use x="221.601562" xlink:href="#DejaVuSans-107"/>
       <use x="279.511719" xlink:href="#DejaVuSans-32"/>
       <use x="311.298828" xlink:href="#DejaVuSans-108"/>
       <use x="339.082031" xlink:href="#DejaVuSans-105"/>
       <use x="366.865234" xlink:href="#DejaVuSans-110"/>
       <use x="430.244141" xlink:href="#DejaVuSans-107"/>
      </g>
     </g>
    </g>
    <g id="xtick_3">
     <g id="text_3">
      <!-- No link -->
      <defs>
       <path d="M 9.8125 72.90625 
L 23.09375 72.90625 
L 55.421875 11.921875 
L 55.421875 72.90625 
L 64.984375 72.90625 
L 64.984375 0 
L 51.703125 0 
L 19.390625 60.984375 
L 19.390625 0 
L 9.8125 0 
z
" id="DejaVuSans-78"/>
      </defs>
      <g style="fill:#262626;" transform="translate(259.084465 280.472761)rotate(-70)scale(0.16 -0.16)">
       <use xlink:href="#DejaVuSans-78"/>
       <use x="74.804688" xlink:href="#DejaVuSans-111"/>
       <use x="135.986328" xlink:href="#DejaVuSans-32"/>
       <use x="167.773438" xlink:href="#DejaVuSans-108"/>
       <use x="195.556641" xlink:href="#DejaVuSans-105"/>
       <use x="223.339844" xlink:href="#DejaVuSans-110"/>
       <use x="286.71875" xlink:href="#DejaVuSans-107"/>
      </g>
     </g>
    </g>
   </g>
   <g id="matplotlib.axis_2">
    <g id="ytick_1">
     <g id="line2d_1">
      <path clip-path="url(#pa947243922)" d="M 64.8 208.145455 
L 304.278261 208.145455 
" style="fill:none;stroke:#ffffff;stroke-linecap:round;stroke-width:0.8;"/>
     </g>
     <g id="text_4">
      <!-- 0.0 -->
      <defs>
       <path d="M 31.78125 66.40625 
Q 24.171875 66.40625 20.328125 58.90625 
Q 16.5 51.421875 16.5 36.375 
Q 16.5 21.390625 20.328125 13.890625 
Q 24.171875 6.390625 31.78125 6.390625 
Q 39.453125 6.390625 43.28125 13.890625 
Q 47.125 21.390625 47.125 36.375 
Q 47.125 51.421875 43.28125 58.90625 
Q 39.453125 66.40625 31.78125 66.40625 
z
M 31.78125 74.21875 
Q 44.046875 74.21875 50.515625 64.515625 
Q 56.984375 54.828125 56.984375 36.375 
Q 56.984375 17.96875 50.515625 8.265625 
Q 44.046875 -1.421875 31.78125 -1.421875 
Q 19.53125 -1.421875 13.0625 8.265625 
Q 6.59375 17.96875 6.59375 36.375 
Q 6.59375 54.828125 13.0625 64.515625 
Q 19.53125 74.21875 31.78125 74.21875 
z
" id="DejaVuSans-48"/>
       <path d="M 10.6875 12.40625 
L 21 12.40625 
L 21 0 
L 10.6875 0 
z
" id="DejaVuSans-46"/>
      </defs>
      <g style="fill:#262626;" transform="translate(34.035625 213.464361)scale(0.14 -0.14)">
       <use xlink:href="#DejaVuSans-48"/>
       <use x="63.623047" xlink:href="#DejaVuSans-46"/>
       <use x="95.410156" xlink:href="#DejaVuSans-48"/>
      </g>
     </g>
    </g>
    <g id="ytick_2">
     <g id="line2d_2">
      <path clip-path="url(#pa947243922)" d="M 64.8 175.857473 
L 304.278261 175.857473 
" style="fill:none;stroke:#ffffff;stroke-linecap:round;stroke-width:0.8;"/>
     </g>
     <g id="text_5">
      <!-- 0.2 -->
      <defs>
       <path d="M 19.1875 8.296875 
L 53.609375 8.296875 
L 53.609375 0 
L 7.328125 0 
L 7.328125 8.296875 
Q 12.9375 14.109375 22.625 23.890625 
Q 32.328125 33.6875 34.8125 36.53125 
Q 39.546875 41.84375 41.421875 45.53125 
Q 43.3125 49.21875 43.3125 52.78125 
Q 43.3125 58.59375 39.234375 62.25 
Q 35.15625 65.921875 28.609375 65.921875 
Q 23.96875 65.921875 18.8125 64.3125 
Q 13.671875 62.703125 7.8125 59.421875 
L 7.8125 69.390625 
Q 13.765625 71.78125 18.9375 73 
Q 24.125 74.21875 28.421875 74.21875 
Q 39.75 74.21875 46.484375 68.546875 
Q 53.21875 62.890625 53.21875 53.421875 
Q 53.21875 48.921875 51.53125 44.890625 
Q 49.859375 40.875 45.40625 35.40625 
Q 44.1875 33.984375 37.640625 27.21875 
Q 31.109375 20.453125 19.1875 8.296875 
z
" id="DejaVuSans-50"/>
      </defs>
      <g style="fill:#262626;" transform="translate(34.035625 181.176379)scale(0.14 -0.14)">
       <use xlink:href="#DejaVuSans-48"/>
       <use x="63.623047" xlink:href="#DejaVuSans-46"/>
       <use x="95.410156" xlink:href="#DejaVuSans-50"/>
      </g>
     </g>
    </g>
    <g id="ytick_3">
     <g id="line2d_3">
      <path clip-path="url(#pa947243922)" d="M 64.8 143.569491 
L 304.278261 143.569491 
" style="fill:none;stroke:#ffffff;stroke-linecap:round;stroke-width:0.8;"/>
     </g>
     <g id="text_6">
      <!-- 0.4 -->
      <defs>
       <path d="M 37.796875 64.3125 
L 12.890625 25.390625 
L 37.796875 25.390625 
z
M 35.203125 72.90625 
L 47.609375 72.90625 
L 47.609375 25.390625 
L 58.015625 25.390625 
L 58.015625 17.1875 
L 47.609375 17.1875 
L 47.609375 0 
L 37.796875 0 
L 37.796875 17.1875 
L 4.890625 17.1875 
L 4.890625 26.703125 
z
" id="DejaVuSans-52"/>
      </defs>
      <g style="fill:#262626;" transform="translate(34.035625 148.888397)scale(0.14 -0.14)">
       <use xlink:href="#DejaVuSans-48"/>
       <use x="63.623047" xlink:href="#DejaVuSans-46"/>
       <use x="95.410156" xlink:href="#DejaVuSans-52"/>
      </g>
     </g>
    </g>
    <g id="ytick_4">
     <g id="line2d_4">
      <path clip-path="url(#pa947243922)" d="M 64.8 111.28151 
L 304.278261 111.28151 
" style="fill:none;stroke:#ffffff;stroke-linecap:round;stroke-width:0.8;"/>
     </g>
     <g id="text_7">
      <!-- 0.6 -->
      <defs>
       <path d="M 33.015625 40.375 
Q 26.375 40.375 22.484375 35.828125 
Q 18.609375 31.296875 18.609375 23.390625 
Q 18.609375 15.53125 22.484375 10.953125 
Q 26.375 6.390625 33.015625 6.390625 
Q 39.65625 6.390625 43.53125 10.953125 
Q 47.40625 15.53125 47.40625 23.390625 
Q 47.40625 31.296875 43.53125 35.828125 
Q 39.65625 40.375 33.015625 40.375 
z
M 52.59375 71.296875 
L 52.59375 62.3125 
Q 48.875 64.0625 45.09375 64.984375 
Q 41.3125 65.921875 37.59375 65.921875 
Q 27.828125 65.921875 22.671875 59.328125 
Q 17.53125 52.734375 16.796875 39.40625 
Q 19.671875 43.65625 24.015625 45.921875 
Q 28.375 48.1875 33.59375 48.1875 
Q 44.578125 48.1875 50.953125 41.515625 
Q 57.328125 34.859375 57.328125 23.390625 
Q 57.328125 12.15625 50.6875 5.359375 
Q 44.046875 -1.421875 33.015625 -1.421875 
Q 20.359375 -1.421875 13.671875 8.265625 
Q 6.984375 17.96875 6.984375 36.375 
Q 6.984375 53.65625 15.1875 63.9375 
Q 23.390625 74.21875 37.203125 74.21875 
Q 40.921875 74.21875 44.703125 73.484375 
Q 48.484375 72.75 52.59375 71.296875 
z
" id="DejaVuSans-54"/>
      </defs>
      <g style="fill:#262626;" transform="translate(34.035625 116.600416)scale(0.14 -0.14)">
       <use xlink:href="#DejaVuSans-48"/>
       <use x="63.623047" xlink:href="#DejaVuSans-46"/>
       <use x="95.410156" xlink:href="#DejaVuSans-54"/>
      </g>
     </g>
    </g>
    <g id="ytick_5">
     <g id="line2d_5">
      <path clip-path="url(#pa947243922)" d="M 64.8 78.993528 
L 304.278261 78.993528 
" style="fill:none;stroke:#ffffff;stroke-linecap:round;stroke-width:0.8;"/>
     </g>
     <g id="text_8">
      <!-- 0.8 -->
      <defs>
       <path d="M 31.78125 34.625 
Q 24.75 34.625 20.71875 30.859375 
Q 16.703125 27.09375 16.703125 20.515625 
Q 16.703125 13.921875 20.71875 10.15625 
Q 24.75 6.390625 31.78125 6.390625 
Q 38.8125 6.390625 42.859375 10.171875 
Q 46.921875 13.96875 46.921875 20.515625 
Q 46.921875 27.09375 42.890625 30.859375 
Q 38.875 34.625 31.78125 34.625 
z
M 21.921875 38.8125 
Q 15.578125 40.375 12.03125 44.71875 
Q 8.5 49.078125 8.5 55.328125 
Q 8.5 64.0625 14.71875 69.140625 
Q 20.953125 74.21875 31.78125 74.21875 
Q 42.671875 74.21875 48.875 69.140625 
Q 55.078125 64.0625 55.078125 55.328125 
Q 55.078125 49.078125 51.53125 44.71875 
Q 48 40.375 41.703125 38.8125 
Q 48.828125 37.15625 52.796875 32.3125 
Q 56.78125 27.484375 56.78125 20.515625 
Q 56.78125 9.90625 50.3125 4.234375 
Q 43.84375 -1.421875 31.78125 -1.421875 
Q 19.734375 -1.421875 13.25 4.234375 
Q 6.78125 9.90625 6.78125 20.515625 
Q 6.78125 27.484375 10.78125 32.3125 
Q 14.796875 37.15625 21.921875 38.8125 
z
M 18.3125 54.390625 
Q 18.3125 48.734375 21.84375 45.5625 
Q 25.390625 42.390625 31.78125 42.390625 
Q 38.140625 42.390625 41.71875 45.5625 
Q 45.3125 48.734375 45.3125 54.390625 
Q 45.3125 60.0625 41.71875 63.234375 
Q 38.140625 66.40625 31.78125 66.40625 
Q 25.390625 66.40625 21.84375 63.234375 
Q 18.3125 60.0625 18.3125 54.390625 
z
" id="DejaVuSans-56"/>
      </defs>
      <g style="fill:#262626;" transform="translate(34.035625 84.312434)scale(0.14 -0.14)">
       <use xlink:href="#DejaVuSans-48"/>
       <use x="63.623047" xlink:href="#DejaVuSans-46"/>
       <use x="95.410156" xlink:href="#DejaVuSans-56"/>
      </g>
     </g>
    </g>
    <g id="ytick_6">
     <g id="line2d_6">
      <path clip-path="url(#pa947243922)" d="M 64.8 46.705546 
L 304.278261 46.705546 
" style="fill:none;stroke:#ffffff;stroke-linecap:round;stroke-width:0.8;"/>
     </g>
     <g id="text_9">
      <!-- 1.0 -->
      <defs>
       <path d="M 12.40625 8.296875 
L 28.515625 8.296875 
L 28.515625 63.921875 
L 10.984375 60.40625 
L 10.984375 69.390625 
L 28.421875 72.90625 
L 38.28125 72.90625 
L 38.28125 8.296875 
L 54.390625 8.296875 
L 54.390625 0 
L 12.40625 0 
z
" id="DejaVuSans-49"/>
      </defs>
      <g style="fill:#262626;" transform="translate(34.035625 52.024452)scale(0.14 -0.14)">
       <use xlink:href="#DejaVuSans-49"/>
       <use x="63.623047" xlink:href="#DejaVuSans-46"/>
       <use x="95.410156" xlink:href="#DejaVuSans-48"/>
      </g>
     </g>
    </g>
    <g id="text_10">
     <!-- Mean absolute error -->
     <defs>
      <path d="M 9.8125 72.90625 
L 24.515625 72.90625 
L 43.109375 23.296875 
L 61.8125 72.90625 
L 76.515625 72.90625 
L 76.515625 0 
L 66.890625 0 
L 66.890625 64.015625 
L 48.09375 14.015625 
L 38.1875 14.015625 
L 19.390625 64.015625 
L 19.390625 0 
L 9.8125 0 
z
" id="DejaVuSans-77"/>
      <path d="M 48.6875 27.296875 
Q 48.6875 37.203125 44.609375 42.84375 
Q 40.53125 48.484375 33.40625 48.484375 
Q 26.265625 48.484375 22.1875 42.84375 
Q 18.109375 37.203125 18.109375 27.296875 
Q 18.109375 17.390625 22.1875 11.75 
Q 26.265625 6.109375 33.40625 6.109375 
Q 40.53125 6.109375 44.609375 11.75 
Q 48.6875 17.390625 48.6875 27.296875 
z
M 18.109375 46.390625 
Q 20.953125 51.265625 25.265625 53.625 
Q 29.59375 56 35.59375 56 
Q 45.5625 56 51.78125 48.09375 
Q 58.015625 40.1875 58.015625 27.296875 
Q 58.015625 14.40625 51.78125 6.484375 
Q 45.5625 -1.421875 35.59375 -1.421875 
Q 29.59375 -1.421875 25.265625 0.953125 
Q 20.953125 3.328125 18.109375 8.203125 
L 18.109375 0 
L 9.078125 0 
L 9.078125 75.984375 
L 18.109375 75.984375 
z
" id="DejaVuSans-98"/>
      <path d="M 44.28125 53.078125 
L 44.28125 44.578125 
Q 40.484375 46.53125 36.375 47.5 
Q 32.28125 48.484375 27.875 48.484375 
Q 21.1875 48.484375 17.84375 46.4375 
Q 14.5 44.390625 14.5 40.28125 
Q 14.5 37.15625 16.890625 35.375 
Q 19.28125 33.59375 26.515625 31.984375 
L 29.59375 31.296875 
Q 39.15625 29.25 43.1875 25.515625 
Q 47.21875 21.78125 47.21875 15.09375 
Q 47.21875 7.46875 41.1875 3.015625 
Q 35.15625 -1.421875 24.609375 -1.421875 
Q 20.21875 -1.421875 15.453125 -0.5625 
Q 10.6875 0.296875 5.421875 2 
L 5.421875 11.28125 
Q 10.40625 8.6875 15.234375 7.390625 
Q 20.0625 6.109375 24.8125 6.109375 
Q 31.15625 6.109375 34.5625 8.28125 
Q 37.984375 10.453125 37.984375 14.40625 
Q 37.984375 18.0625 35.515625 20.015625 
Q 33.0625 21.96875 24.703125 23.78125 
L 21.578125 24.515625 
Q 13.234375 26.265625 9.515625 29.90625 
Q 5.8125 33.546875 5.8125 39.890625 
Q 5.8125 47.609375 11.28125 51.796875 
Q 16.75 56 26.8125 56 
Q 31.78125 56 36.171875 55.265625 
Q 40.578125 54.546875 44.28125 53.078125 
z
" id="DejaVuSans-115"/>
      <path d="M 8.5 21.578125 
L 8.5 54.6875 
L 17.484375 54.6875 
L 17.484375 21.921875 
Q 17.484375 14.15625 20.5 10.265625 
Q 23.53125 6.390625 29.59375 6.390625 
Q 36.859375 6.390625 41.078125 11.03125 
Q 45.3125 15.671875 45.3125 23.6875 
L 45.3125 54.6875 
L 54.296875 54.6875 
L 54.296875 0 
L 45.3125 0 
L 45.3125 8.40625 
Q 42.046875 3.421875 37.71875 1 
Q 33.40625 -1.421875 27.6875 -1.421875 
Q 18.265625 -1.421875 13.375 4.4375 
Q 8.5 10.296875 8.5 21.578125 
z
M 31.109375 56 
z
" id="DejaVuSans-117"/>
     </defs>
     <g style="fill:#262626;" transform="translate(26.708125 210.5575)rotate(-90)scale(0.16 -0.16)">
      <use xlink:href="#DejaVuSans-77"/>
      <use x="86.279297" xlink:href="#DejaVuSans-101"/>
      <use x="147.802734" xlink:href="#DejaVuSans-97"/>
      <use x="209.082031" xlink:href="#DejaVuSans-110"/>
      <use x="272.460938" xlink:href="#DejaVuSans-32"/>
      <use x="304.248047" xlink:href="#DejaVuSans-97"/>
      <use x="365.527344" xlink:href="#DejaVuSans-98"/>
      <use x="429.003906" xlink:href="#DejaVuSans-115"/>
      <use x="481.103516" xlink:href="#DejaVuSans-111"/>
      <use x="542.285156" xlink:href="#DejaVuSans-108"/>
      <use x="570.068359" xlink:href="#DejaVuSans-117"/>
      <use x="633.447266" xlink:href="#DejaVuSans-116"/>
      <use x="672.65625" xlink:href="#DejaVuSans-101"/>
      <use x="734.179688" xlink:href="#DejaVuSans-32"/>
      <use x="765.966797" xlink:href="#DejaVuSans-101"/>
      <use x="827.490234" xlink:href="#DejaVuSans-114"/>
      <use x="868.587891" xlink:href="#DejaVuSans-114"/>
      <use x="909.669922" xlink:href="#DejaVuSans-111"/>
      <use x="970.851562" xlink:href="#DejaVuSans-114"/>
     </g>
    </g>
   </g>
   <g id="patch_11">
    <path clip-path="url(#pa947243922)" d="M 72.782609 141.821347 
L 136.643478 141.821347 
L 136.643478 119.244247 
L 72.782609 119.244247 
L 72.782609 141.821347 
z
" style="fill:#176d9c;stroke:#303030;stroke-linejoin:miter;stroke-width:1.5;"/>
   </g>
   <g id="patch_12">
    <path clip-path="url(#pa947243922)" d="M 152.608696 127.244344 
L 216.469565 127.244344 
L 216.469565 115.827252 
L 152.608696 115.827252 
L 152.608696 127.244344 
z
" style="fill:#c38820;stroke:#303030;stroke-linejoin:miter;stroke-width:1.5;"/>
   </g>
   <g id="patch_13">
    <path clip-path="url(#pa947243922)" d="M 232.434783 87.670078 
L 296.295652 87.670078 
L 296.295652 70.382396 
L 232.434783 70.382396 
L 232.434783 87.670078 
z
" style="fill:#158b6a;stroke:#303030;stroke-linejoin:miter;stroke-width:1.5;"/>
   </g>
   <g id="line2d_7">
    <path clip-path="url(#pa947243922)" d="M 104.713043 141.821347 
L 104.713043 146.826185 
" style="fill:none;stroke:#303030;stroke-linecap:round;stroke-width:1.5;"/>
   </g>
   <g id="line2d_8">
    <path clip-path="url(#pa947243922)" d="M 104.713043 119.244247 
L 104.713043 97.52409 
" style="fill:none;stroke:#303030;stroke-linecap:round;stroke-width:1.5;"/>
   </g>
   <g id="line2d_9">
    <path clip-path="url(#pa947243922)" d="M 88.747826 146.826185 
L 120.678261 146.826185 
" style="fill:none;stroke:#303030;stroke-linecap:round;stroke-width:1.5;"/>
   </g>
   <g id="line2d_10">
    <path clip-path="url(#pa947243922)" d="M 88.747826 97.52409 
L 120.678261 97.52409 
" style="fill:none;stroke:#303030;stroke-linecap:round;stroke-width:1.5;"/>
   </g>
   <g id="line2d_11"/>
   <g id="line2d_12">
    <path clip-path="url(#pa947243922)" d="M 184.53913 127.244344 
L 184.53913 130.635101 
" style="fill:none;stroke:#303030;stroke-linecap:round;stroke-width:1.5;"/>
   </g>
   <g id="line2d_13">
    <path clip-path="url(#pa947243922)" d="M 184.53913 115.827252 
L 184.53913 111.385482 
" style="fill:none;stroke:#303030;stroke-linecap:round;stroke-width:1.5;"/>
   </g>
   <g id="line2d_14">
    <path clip-path="url(#pa947243922)" d="M 168.573913 130.635101 
L 200.504348 130.635101 
" style="fill:none;stroke:#303030;stroke-linecap:round;stroke-width:1.5;"/>
   </g>
   <g id="line2d_15">
    <path clip-path="url(#pa947243922)" d="M 168.573913 111.385482 
L 200.504348 111.385482 
" style="fill:none;stroke:#303030;stroke-linecap:round;stroke-width:1.5;"/>
   </g>
   <g id="line2d_16"/>
   <g id="line2d_17">
    <path clip-path="url(#pa947243922)" d="M 264.365217 87.670078 
L 264.365217 91.066394 
" style="fill:none;stroke:#303030;stroke-linecap:round;stroke-width:1.5;"/>
   </g>
   <g id="line2d_18">
    <path clip-path="url(#pa947243922)" d="M 264.365217 70.382396 
L 264.365217 52.695871 
" style="fill:none;stroke:#303030;stroke-linecap:round;stroke-width:1.5;"/>
   </g>
   <g id="line2d_19">
    <path clip-path="url(#pa947243922)" d="M 248.4 91.066394 
L 280.330435 91.066394 
" style="fill:none;stroke:#303030;stroke-linecap:round;stroke-width:1.5;"/>
   </g>
   <g id="line2d_20">
    <path clip-path="url(#pa947243922)" d="M 248.4 52.695871 
L 280.330435 52.695871 
" style="fill:none;stroke:#303030;stroke-linecap:round;stroke-width:1.5;"/>
   </g>
   <g id="line2d_21"/>
   <g id="line2d_22">
    <path clip-path="url(#pa947243922)" d="M 64.8 208.145455 
L 304.278261 208.145455 
" style="fill:none;stroke:#000000;stroke-linecap:round;stroke-width:1.5;"/>
   </g>
   <g id="line2d_23">
    <path clip-path="url(#pa947243922)" d="M 72.782609 132.970247 
L 136.643478 132.970247 
" style="fill:none;stroke:#303030;stroke-linecap:round;stroke-width:1.5;"/>
   </g>
   <g id="line2d_24">
    <path clip-path="url(#pa947243922)" d="M 152.608696 121.131018 
L 216.469565 121.131018 
" style="fill:none;stroke:#303030;stroke-linecap:round;stroke-width:1.5;"/>
   </g>
   <g id="line2d_25">
    <path clip-path="url(#pa947243922)" d="M 232.434783 82.101771 
L 296.295652 82.101771 
" style="fill:none;stroke:#303030;stroke-linecap:round;stroke-width:1.5;"/>
   </g>
   <g id="patch_14">
    <path d="M 64.8 216 
L 64.8 43.2 
" style="fill:none;stroke:#ffffff;stroke-linecap:square;stroke-linejoin:miter;stroke-width:0.8;"/>
   </g>
   <g id="patch_15">
    <path d="M 304.278261 216 
L 304.278261 43.2 
" style="fill:none;stroke:#ffffff;stroke-linecap:square;stroke-linejoin:miter;stroke-width:0.8;"/>
   </g>
   <g id="patch_16">
    <path d="M 64.8 216 
L 304.278261 216 
" style="fill:none;stroke:#ffffff;stroke-linecap:square;stroke-linejoin:miter;stroke-width:0.8;"/>
   </g>
   <g id="patch_17">
    <path d="M 64.8 43.2 
L 304.278261 43.2 
" style="fill:none;stroke:#ffffff;stroke-linecap:square;stroke-linejoin:miter;stroke-width:0.8;"/>
   </g>
   <g id="PathCollection_1">
    <defs>
     <path d="M 0 6 
C 1.591219 6 3.117479 5.367802 4.242641 4.242641 
C 5.367802 3.117479 6 1.591219 6 0 
C 6 -1.591219 5.367802 -3.117479 4.242641 -4.242641 
C 3.117479 -5.367802 1.591219 -6 0 -6 
C -1.591219 -6 -3.117479 -5.367802 -4.242641 -4.242641 
C -5.367802 -3.117479 -6 -1.591219 -6 0 
C -6 1.591219 -5.367802 3.117479 -4.242641 4.242641 
C -3.117479 5.367802 -1.591219 6 0 6 
z
" id="C0_0_d4b34d1fe2"/>
    </defs>
    <g clip-path="url(#pa947243922)">
     <use style="fill:#0173b2;fill-opacity:0.7;stroke:#000000;stroke-opacity:0.7;stroke-width:1.5;" x="108.467931" xlink:href="#C0_0_d4b34d1fe2" y="140.744664"/>
    </g>
    <g clip-path="url(#pa947243922)">
     <use style="fill:#0173b2;fill-opacity:0.7;stroke:#000000;stroke-opacity:0.7;stroke-width:1.5;" x="106.931476" xlink:href="#C0_0_d4b34d1fe2" y="141.888358"/>
    </g>
    <g clip-path="url(#pa947243922)">
     <use style="fill:#0173b2;fill-opacity:0.7;stroke:#000000;stroke-opacity:0.7;stroke-width:1.5;" x="100.2863" xlink:href="#C0_0_d4b34d1fe2" y="141.620316"/>
    </g>
    <g clip-path="url(#pa947243922)">
     <use style="fill:#0173b2;fill-opacity:0.7;stroke:#000000;stroke-opacity:0.7;stroke-width:1.5;" x="101.795911" xlink:href="#C0_0_d4b34d1fe2" y="97.52409"/>
    </g>
    <g clip-path="url(#pa947243922)">
     <use style="fill:#0173b2;fill-opacity:0.7;stroke:#000000;stroke-opacity:0.7;stroke-width:1.5;" x="100.027026" xlink:href="#C0_0_d4b34d1fe2" y="146.826185"/>
    </g>
    <g clip-path="url(#pa947243922)">
     <use style="fill:#0173b2;fill-opacity:0.7;stroke:#000000;stroke-opacity:0.7;stroke-width:1.5;" x="108.836274" xlink:href="#C0_0_d4b34d1fe2" y="125.19583"/>
    </g>
    <g clip-path="url(#pa947243922)">
     <use style="fill:#0173b2;fill-opacity:0.7;stroke:#000000;stroke-opacity:0.7;stroke-width:1.5;" x="98.778008" xlink:href="#C0_0_d4b34d1fe2" y="119.244064"/>
    </g>
    <g clip-path="url(#pa947243922)">
     <use style="fill:#0173b2;fill-opacity:0.7;stroke:#000000;stroke-opacity:0.7;stroke-width:1.5;" x="105.966813" xlink:href="#C0_0_d4b34d1fe2" y="119.244799"/>
    </g>
    <g clip-path="url(#pa947243922)">
     <use style="fill:#0173b2;fill-opacity:0.7;stroke:#000000;stroke-opacity:0.7;stroke-width:1.5;" x="99.46482" xlink:href="#C0_0_d4b34d1fe2" y="113.623506"/>
    </g>
    <g clip-path="url(#pa947243922)">
     <use style="fill:#0173b2;fill-opacity:0.7;stroke:#000000;stroke-opacity:0.7;stroke-width:1.5;" x="99.882044" xlink:href="#C0_0_d4b34d1fe2" y="144.457057"/>
    </g>
   </g>
   <g id="PathCollection_2">
    <defs>
     <path d="M 0 6 
C 1.591219 6 3.117479 5.367802 4.242641 4.242641 
C 5.367802 3.117479 6 1.591219 6 0 
C 6 -1.591219 5.367802 -3.117479 4.242641 -4.242641 
C 3.117479 -5.367802 1.591219 -6 0 -6 
C -1.591219 -6 -3.117479 -5.367802 -4.242641 -4.242641 
C -5.367802 -3.117479 -6 -1.591219 -6 0 
C -6 1.591219 -5.367802 3.117479 -4.242641 4.242641 
C -3.117479 5.367802 -1.591219 6 0 6 
z
" id="C1_0_5418c16f36"/>
    </defs>
    <g clip-path="url(#pa947243922)">
     <use style="fill:#de8f05;fill-opacity:0.7;stroke:#000000;stroke-opacity:0.7;stroke-width:1.5;" x="176.63923" xlink:href="#C1_0_5418c16f36" y="115.1747"/>
    </g>
    <g clip-path="url(#pa947243922)">
     <use style="fill:#de8f05;fill-opacity:0.7;stroke:#000000;stroke-opacity:0.7;stroke-width:1.5;" x="183.594024" xlink:href="#C1_0_5418c16f36" y="128.845789"/>
    </g>
    <g clip-path="url(#pa947243922)">
     <use style="fill:#de8f05;fill-opacity:0.7;stroke:#000000;stroke-opacity:0.7;stroke-width:1.5;" x="189.478042" xlink:href="#C1_0_5418c16f36" y="111.385482"/>
    </g>
    <g clip-path="url(#pa947243922)">
     <use style="fill:#de8f05;fill-opacity:0.7;stroke:#000000;stroke-opacity:0.7;stroke-width:1.5;" x="177.962976" xlink:href="#C1_0_5418c16f36" y="117.784908"/>
    </g>
    <g clip-path="url(#pa947243922)">
     <use style="fill:#de8f05;fill-opacity:0.7;stroke:#000000;stroke-opacity:0.7;stroke-width:1.5;" x="190.067538" xlink:href="#C1_0_5418c16f36" y="120.001428"/>
    </g>
    <g clip-path="url(#pa947243922)">
     <use style="fill:#de8f05;fill-opacity:0.7;stroke:#000000;stroke-opacity:0.7;stroke-width:1.5;" x="190.023227" xlink:href="#C1_0_5418c16f36" y="130.635101"/>
    </g>
    <g clip-path="url(#pa947243922)">
     <use style="fill:#de8f05;fill-opacity:0.7;stroke:#000000;stroke-opacity:0.7;stroke-width:1.5;" x="180.263114" xlink:href="#C1_0_5418c16f36" y="122.260608"/>
    </g>
    <g clip-path="url(#pa947243922)">
     <use style="fill:#de8f05;fill-opacity:0.7;stroke:#000000;stroke-opacity:0.7;stroke-width:1.5;" x="190.49788" xlink:href="#C1_0_5418c16f36" y="122.44001"/>
    </g>
    <g clip-path="url(#pa947243922)">
     <use style="fill:#de8f05;fill-opacity:0.7;stroke:#000000;stroke-opacity:0.7;stroke-width:1.5;" x="189.752369" xlink:href="#C1_0_5418c16f36" y="114.46656"/>
    </g>
    <g clip-path="url(#pa947243922)">
     <use style="fill:#de8f05;fill-opacity:0.7;stroke:#000000;stroke-opacity:0.7;stroke-width:1.5;" x="187.003814" xlink:href="#C1_0_5418c16f36" y="129.923129"/>
    </g>
   </g>
   <g id="PathCollection_3">
    <defs>
     <path d="M 0 6 
C 1.591219 6 3.117479 5.367802 4.242641 4.242641 
C 5.367802 3.117479 6 1.591219 6 0 
C 6 -1.591219 5.367802 -3.117479 4.242641 -4.242641 
C 3.117479 -5.367802 1.591219 -6 0 -6 
C -1.591219 -6 -3.117479 -5.367802 -4.242641 -4.242641 
C -5.367802 -3.117479 -6 -1.591219 -6 0 
C -6 1.591219 -5.367802 3.117479 -4.242641 4.242641 
C -3.117479 5.367802 -1.591219 6 0 6 
z
" id="C2_0_9badf72f50"/>
    </defs>
    <g clip-path="url(#pa947243922)">
     <use style="fill:#029e73;fill-opacity:0.7;stroke:#000000;stroke-opacity:0.7;stroke-width:1.5;" x="269.65452" xlink:href="#C2_0_9badf72f50" y="88.015428"/>
    </g>
    <g clip-path="url(#pa947243922)">
     <use style="fill:#029e73;fill-opacity:0.7;stroke:#000000;stroke-opacity:0.7;stroke-width:1.5;" x="257.558589" xlink:href="#C2_0_9badf72f50" y="89.443842"/>
    </g>
    <g clip-path="url(#pa947243922)">
     <use style="fill:#029e73;fill-opacity:0.7;stroke:#000000;stroke-opacity:0.7;stroke-width:1.5;" x="261.476832" xlink:href="#C2_0_9badf72f50" y="86.511768"/>
    </g>
    <g clip-path="url(#pa947243922)">
     <use style="fill:#029e73;fill-opacity:0.7;stroke:#000000;stroke-opacity:0.7;stroke-width:1.5;" x="260.9909" xlink:href="#C2_0_9badf72f50" y="52.695871"/>
    </g>
    <g clip-path="url(#pa947243922)">
     <use style="fill:#029e73;fill-opacity:0.7;stroke:#000000;stroke-opacity:0.7;stroke-width:1.5;" x="268.861451" xlink:href="#C2_0_9badf72f50" y="67.931244"/>
    </g>
    <g clip-path="url(#pa947243922)">
     <use style="fill:#029e73;fill-opacity:0.7;stroke:#000000;stroke-opacity:0.7;stroke-width:1.5;" x="268.384139" xlink:href="#C2_0_9badf72f50" y="77.691774"/>
    </g>
    <g clip-path="url(#pa947243922)">
     <use style="fill:#029e73;fill-opacity:0.7;stroke:#000000;stroke-opacity:0.7;stroke-width:1.5;" x="270.607525" xlink:href="#C2_0_9badf72f50" y="91.066394"/>
    </g>
    <g clip-path="url(#pa947243922)">
     <use style="fill:#029e73;fill-opacity:0.7;stroke:#000000;stroke-opacity:0.7;stroke-width:1.5;" x="260.988365" xlink:href="#C2_0_9badf72f50" y="68.654759"/>
    </g>
    <g clip-path="url(#pa947243922)">
     <use style="fill:#029e73;fill-opacity:0.7;stroke:#000000;stroke-opacity:0.7;stroke-width:1.5;" x="263.947362" xlink:href="#C2_0_9badf72f50" y="75.565307"/>
    </g>
    <g clip-path="url(#pa947243922)">
     <use style="fill:#029e73;fill-opacity:0.7;stroke:#000000;stroke-opacity:0.7;stroke-width:1.5;" x="256.682102" xlink:href="#C2_0_9badf72f50" y="86.634027"/>
    </g>
   </g>
   <g id="text_11">
    <!-- Mean absolute error -->
    <g style="fill:#262626;" transform="translate(63.10288 37.2)scale(0.24 -0.24)">
     <use xlink:href="#DejaVuSans-77"/>
     <use x="86.279297" xlink:href="#DejaVuSans-101"/>
     <use x="147.802734" xlink:href="#DejaVuSans-97"/>
     <use x="209.082031" xlink:href="#DejaVuSans-110"/>
     <use x="272.460938" xlink:href="#DejaVuSans-32"/>
     <use x="304.248047" xlink:href="#DejaVuSans-97"/>
     <use x="365.527344" xlink:href="#DejaVuSans-98"/>
     <use x="429.003906" xlink:href="#DejaVuSans-115"/>
     <use x="481.103516" xlink:href="#DejaVuSans-111"/>
     <use x="542.285156" xlink:href="#DejaVuSans-108"/>
     <use x="570.068359" xlink:href="#DejaVuSans-117"/>
     <use x="633.447266" xlink:href="#DejaVuSans-116"/>
     <use x="672.65625" xlink:href="#DejaVuSans-101"/>
     <use x="734.179688" xlink:href="#DejaVuSans-32"/>
     <use x="765.966797" xlink:href="#DejaVuSans-101"/>
     <use x="827.490234" xlink:href="#DejaVuSans-114"/>
     <use x="868.587891" xlink:href="#DejaVuSans-114"/>
     <use x="909.669922" xlink:href="#DejaVuSans-111"/>
     <use x="970.851562" xlink:href="#DejaVuSans-114"/>
    </g>
   </g>
  </g>
  <g id="axes_2">
   <g id="patch_18">
    <path d="M 376.121739 216 
L 615.6 216 
L 615.6 43.2 
L 376.121739 43.2 
z
" style="fill:#eaeaf2;"/>
   </g>
   <g id="patch_19">
    <path clip-path="url(#p1f49f38c00)" d="M 455.947826 216 
L 455.947826 43.2 
L 535.773913 43.2 
L 535.773913 216 
z
" style="fill:#ffffff;stroke:#ffffff;stroke-linejoin:miter;"/>
   </g>
   <g id="patch_20">
    <path clip-path="url(#p1f49f38c00)" d="M 615.6 216 
L 615.6 43.2 
L 695.426087 43.2 
L 695.426087 216 
z
" style="fill:#ffffff;stroke:#ffffff;stroke-linejoin:miter;"/>
   </g>
   <g id="patch_21">
    <path clip-path="url(#p1f49f38c00)" d="M 775.252174 216 
L 775.252174 43.2 
L 855.078261 43.2 
L 855.078261 216 
z
" style="fill:#ffffff;stroke:#ffffff;stroke-linejoin:miter;"/>
   </g>
   <g id="patch_22">
    <path clip-path="url(#p1f49f38c00)" d="M 934.904348 216 
L 934.904348 43.2 
L 1014.730435 43.2 
L 1014.730435 216 
z
" style="fill:#ffffff;stroke:#ffffff;stroke-linejoin:miter;"/>
   </g>
   <g id="patch_23">
    <path clip-path="url(#p1f49f38c00)" d="M 1094.556522 216 
L 1094.556522 43.2 
L 1174.382609 43.2 
L 1174.382609 216 
z
" style="fill:#ffffff;stroke:#ffffff;stroke-linejoin:miter;"/>
   </g>
   <g id="patch_24">
    <path clip-path="url(#p1f49f38c00)" d="M 1254.208696 216 
L 1254.208696 43.2 
L 1334.034783 43.2 
L 1334.034783 216 
z
" style="fill:#ffffff;stroke:#ffffff;stroke-linejoin:miter;"/>
   </g>
   <g id="patch_25">
    <path clip-path="url(#p1f49f38c00)" d="M 1413.86087 216 
L 1413.86087 43.2 
L 1493.686957 43.2 
L 1493.686957 216 
z
" style="fill:#ffffff;stroke:#ffffff;stroke-linejoin:miter;"/>
   </g>
   <g id="patch_26">
    <path clip-path="url(#p1f49f38c00)" d="M 1573.513043 216 
L 1573.513043 43.2 
L 1653.33913 43.2 
L 1653.33913 216 
z
" style="fill:#ffffff;stroke:#ffffff;stroke-linejoin:miter;"/>
   </g>
   <g id="matplotlib.axis_3">
    <g id="xtick_4">
     <g id="text_12">
      <!-- Strong link -->
      <g style="fill:#262626;" transform="translate(405.396285 309.913331)rotate(-70)scale(0.16 -0.16)">
       <use xlink:href="#DejaVuSans-83"/>
       <use x="63.476562" xlink:href="#DejaVuSans-116"/>
       <use x="102.685547" xlink:href="#DejaVuSans-114"/>
       <use x="143.767578" xlink:href="#DejaVuSans-111"/>
       <use x="204.949219" xlink:href="#DejaVuSans-110"/>
       <use x="268.328125" xlink:href="#DejaVuSans-103"/>
       <use x="331.804688" xlink:href="#DejaVuSans-32"/>
       <use x="363.591797" xlink:href="#DejaVuSans-108"/>
       <use x="391.375" xlink:href="#DejaVuSans-105"/>
       <use x="419.158203" xlink:href="#DejaVuSans-110"/>
       <use x="482.537109" xlink:href="#DejaVuSans-107"/>
      </g>
     </g>
    </g>
    <g id="xtick_5">
     <g id="text_13">
      <!-- Weak link -->
      <g style="fill:#262626;" transform="translate(486.653298 302.050453)rotate(-70)scale(0.16 -0.16)">
       <use xlink:href="#DejaVuSans-87"/>
       <use x="98.798828" xlink:href="#DejaVuSans-101"/>
       <use x="160.322266" xlink:href="#DejaVuSans-97"/>
       <use x="221.601562" xlink:href="#DejaVuSans-107"/>
       <use x="279.511719" xlink:href="#DejaVuSans-32"/>
       <use x="311.298828" xlink:href="#DejaVuSans-108"/>
       <use x="339.082031" xlink:href="#DejaVuSans-105"/>
       <use x="366.865234" xlink:href="#DejaVuSans-110"/>
       <use x="430.244141" xlink:href="#DejaVuSans-107"/>
      </g>
     </g>
    </g>
    <g id="xtick_6">
     <g id="text_14">
      <!-- No link -->
      <g style="fill:#262626;" transform="translate(570.406204 280.472761)rotate(-70)scale(0.16 -0.16)">
       <use xlink:href="#DejaVuSans-78"/>
       <use x="74.804688" xlink:href="#DejaVuSans-111"/>
       <use x="135.986328" xlink:href="#DejaVuSans-32"/>
       <use x="167.773438" xlink:href="#DejaVuSans-108"/>
       <use x="195.556641" xlink:href="#DejaVuSans-105"/>
       <use x="223.339844" xlink:href="#DejaVuSans-110"/>
       <use x="286.71875" xlink:href="#DejaVuSans-107"/>
      </g>
     </g>
    </g>
   </g>
   <g id="matplotlib.axis_4">
    <g id="ytick_7">
     <g id="line2d_26">
      <path clip-path="url(#p1f49f38c00)" d="M 376.121739 213.285913 
L 615.6 213.285913 
" style="fill:none;stroke:#ffffff;stroke-linecap:round;stroke-width:0.8;"/>
     </g>
     <g id="text_15">
      <!-- −0.50 -->
      <defs>
       <path d="M 10.59375 35.5 
L 73.1875 35.5 
L 73.1875 27.203125 
L 10.59375 27.203125 
z
" id="DejaVuSans-8722"/>
       <path d="M 10.796875 72.90625 
L 49.515625 72.90625 
L 49.515625 64.59375 
L 19.828125 64.59375 
L 19.828125 46.734375 
Q 21.96875 47.46875 24.109375 47.828125 
Q 26.265625 48.1875 28.421875 48.1875 
Q 40.625 48.1875 47.75 41.5 
Q 54.890625 34.8125 54.890625 23.390625 
Q 54.890625 11.625 47.5625 5.09375 
Q 40.234375 -1.421875 26.90625 -1.421875 
Q 22.3125 -1.421875 17.546875 -0.640625 
Q 12.796875 0.140625 7.71875 1.703125 
L 7.71875 11.625 
Q 12.109375 9.234375 16.796875 8.0625 
Q 21.484375 6.890625 26.703125 6.890625 
Q 35.15625 6.890625 40.078125 11.328125 
Q 45.015625 15.765625 45.015625 23.390625 
Q 45.015625 31 40.078125 35.4375 
Q 35.15625 39.890625 26.703125 39.890625 
Q 22.75 39.890625 18.8125 39.015625 
Q 14.890625 38.140625 10.796875 36.28125 
z
" id="DejaVuSans-53"/>
      </defs>
      <g style="fill:#262626;" transform="translate(324.718302 218.604819)scale(0.14 -0.14)">
       <use xlink:href="#DejaVuSans-8722"/>
       <use x="83.789062" xlink:href="#DejaVuSans-48"/>
       <use x="147.412109" xlink:href="#DejaVuSans-46"/>
       <use x="179.199219" xlink:href="#DejaVuSans-53"/>
       <use x="242.822266" xlink:href="#DejaVuSans-48"/>
      </g>
     </g>
    </g>
    <g id="ytick_8">
     <g id="line2d_27">
      <path clip-path="url(#p1f49f38c00)" d="M 376.121739 182.389419 
L 615.6 182.389419 
" style="fill:none;stroke:#ffffff;stroke-linecap:round;stroke-width:0.8;"/>
     </g>
     <g id="text_16">
      <!-- −0.25 -->
      <g style="fill:#262626;" transform="translate(324.718302 187.708325)scale(0.14 -0.14)">
       <use xlink:href="#DejaVuSans-8722"/>
       <use x="83.789062" xlink:href="#DejaVuSans-48"/>
       <use x="147.412109" xlink:href="#DejaVuSans-46"/>
       <use x="179.199219" xlink:href="#DejaVuSans-50"/>
       <use x="242.822266" xlink:href="#DejaVuSans-53"/>
      </g>
     </g>
    </g>
    <g id="ytick_9">
     <g id="line2d_28">
      <path clip-path="url(#p1f49f38c00)" d="M 376.121739 151.492925 
L 615.6 151.492925 
" style="fill:none;stroke:#ffffff;stroke-linecap:round;stroke-width:0.8;"/>
     </g>
     <g id="text_17">
      <!-- 0.00 -->
      <g style="fill:#262626;" transform="translate(336.449864 156.811831)scale(0.14 -0.14)">
       <use xlink:href="#DejaVuSans-48"/>
       <use x="63.623047" xlink:href="#DejaVuSans-46"/>
       <use x="95.410156" xlink:href="#DejaVuSans-48"/>
       <use x="159.033203" xlink:href="#DejaVuSans-48"/>
      </g>
     </g>
    </g>
    <g id="ytick_10">
     <g id="line2d_29">
      <path clip-path="url(#p1f49f38c00)" d="M 376.121739 120.596431 
L 615.6 120.596431 
" style="fill:none;stroke:#ffffff;stroke-linecap:round;stroke-width:0.8;"/>
     </g>
     <g id="text_18">
      <!-- 0.25 -->
      <g style="fill:#262626;" transform="translate(336.449864 125.915337)scale(0.14 -0.14)">
       <use xlink:href="#DejaVuSans-48"/>
       <use x="63.623047" xlink:href="#DejaVuSans-46"/>
       <use x="95.410156" xlink:href="#DejaVuSans-50"/>
       <use x="159.033203" xlink:href="#DejaVuSans-53"/>
      </g>
     </g>
    </g>
    <g id="ytick_11">
     <g id="line2d_30">
      <path clip-path="url(#p1f49f38c00)" d="M 376.121739 89.699937 
L 615.6 89.699937 
" style="fill:none;stroke:#ffffff;stroke-linecap:round;stroke-width:0.8;"/>
     </g>
     <g id="text_19">
      <!-- 0.50 -->
      <g style="fill:#262626;" transform="translate(336.449864 95.018843)scale(0.14 -0.14)">
       <use xlink:href="#DejaVuSans-48"/>
       <use x="63.623047" xlink:href="#DejaVuSans-46"/>
       <use x="95.410156" xlink:href="#DejaVuSans-53"/>
       <use x="159.033203" xlink:href="#DejaVuSans-48"/>
      </g>
     </g>
    </g>
    <g id="ytick_12">
     <g id="line2d_31">
      <path clip-path="url(#p1f49f38c00)" d="M 376.121739 58.803443 
L 615.6 58.803443 
" style="fill:none;stroke:#ffffff;stroke-linecap:round;stroke-width:0.8;"/>
     </g>
     <g id="text_20">
      <!-- 0.75 -->
      <defs>
       <path d="M 8.203125 72.90625 
L 55.078125 72.90625 
L 55.078125 68.703125 
L 28.609375 0 
L 18.3125 0 
L 43.21875 64.59375 
L 8.203125 64.59375 
z
" id="DejaVuSans-55"/>
      </defs>
      <g style="fill:#262626;" transform="translate(336.449864 64.122349)scale(0.14 -0.14)">
       <use xlink:href="#DejaVuSans-48"/>
       <use x="63.623047" xlink:href="#DejaVuSans-46"/>
       <use x="95.410156" xlink:href="#DejaVuSans-55"/>
       <use x="159.033203" xlink:href="#DejaVuSans-53"/>
      </g>
     </g>
    </g>
    <g id="text_21">
     <!-- R2S score -->
     <defs>
      <path d="M 44.390625 34.1875 
Q 47.5625 33.109375 50.5625 29.59375 
Q 53.5625 26.078125 56.59375 19.921875 
L 66.609375 0 
L 56 0 
L 46.6875 18.703125 
Q 43.0625 26.03125 39.671875 28.421875 
Q 36.28125 30.8125 30.421875 30.8125 
L 19.671875 30.8125 
L 19.671875 0 
L 9.8125 0 
L 9.8125 72.90625 
L 32.078125 72.90625 
Q 44.578125 72.90625 50.734375 67.671875 
Q 56.890625 62.453125 56.890625 51.90625 
Q 56.890625 45.015625 53.6875 40.46875 
Q 50.484375 35.9375 44.390625 34.1875 
z
M 19.671875 64.796875 
L 19.671875 38.921875 
L 32.078125 38.921875 
Q 39.203125 38.921875 42.84375 42.21875 
Q 46.484375 45.515625 46.484375 51.90625 
Q 46.484375 58.296875 42.84375 61.546875 
Q 39.203125 64.796875 32.078125 64.796875 
z
" id="DejaVuSans-82"/>
      <path d="M 48.78125 52.59375 
L 48.78125 44.1875 
Q 44.96875 46.296875 41.140625 47.34375 
Q 37.3125 48.390625 33.40625 48.390625 
Q 24.65625 48.390625 19.8125 42.84375 
Q 14.984375 37.3125 14.984375 27.296875 
Q 14.984375 17.28125 19.8125 11.734375 
Q 24.65625 6.203125 33.40625 6.203125 
Q 37.3125 6.203125 41.140625 7.25 
Q 44.96875 8.296875 48.78125 10.40625 
L 48.78125 2.09375 
Q 45.015625 0.34375 40.984375 -0.53125 
Q 36.96875 -1.421875 32.421875 -1.421875 
Q 20.0625 -1.421875 12.78125 6.34375 
Q 5.515625 14.109375 5.515625 27.296875 
Q 5.515625 40.671875 12.859375 48.328125 
Q 20.21875 56 33.015625 56 
Q 37.15625 56 41.109375 55.140625 
Q 45.0625 54.296875 48.78125 52.59375 
z
" id="DejaVuSans-99"/>
     </defs>
     <g style="fill:#262626;" transform="translate(317.390802 169.54)rotate(-90)scale(0.16 -0.16)">
      <use xlink:href="#DejaVuSans-82"/>
      <use x="69.482422" xlink:href="#DejaVuSans-50"/>
      <use x="133.105469" xlink:href="#DejaVuSans-83"/>
      <use x="196.582031" xlink:href="#DejaVuSans-32"/>
      <use x="228.369141" xlink:href="#DejaVuSans-115"/>
      <use x="280.46875" xlink:href="#DejaVuSans-99"/>
      <use x="335.449219" xlink:href="#DejaVuSans-111"/>
      <use x="396.630859" xlink:href="#DejaVuSans-114"/>
      <use x="437.712891" xlink:href="#DejaVuSans-101"/>
     </g>
    </g>
   </g>
   <g id="patch_27">
    <path clip-path="url(#p1f49f38c00)" d="M 384.104348 80.531002 
L 447.965217 80.531002 
L 447.965217 57.662439 
L 384.104348 57.662439 
L 384.104348 80.531002 
z
" style="fill:#176d9c;stroke:#303030;stroke-linejoin:miter;stroke-width:1.5;"/>
   </g>
   <g id="patch_28">
    <path clip-path="url(#p1f49f38c00)" d="M 463.930435 85.708193 
L 527.791304 85.708193 
L 527.791304 74.878515 
L 463.930435 74.878515 
L 463.930435 85.708193 
z
" style="fill:#c38820;stroke:#303030;stroke-linejoin:miter;stroke-width:1.5;"/>
   </g>
   <g id="patch_29">
    <path clip-path="url(#p1f49f38c00)" d="M 543.756522 163.938351 
L 607.617391 163.938351 
L 607.617391 131.314393 
L 543.756522 131.314393 
L 543.756522 163.938351 
z
" style="fill:#158b6a;stroke:#303030;stroke-linejoin:miter;stroke-width:1.5;"/>
   </g>
   <g id="line2d_32">
    <path clip-path="url(#p1f49f38c00)" d="M 416.034783 80.531002 
L 416.034783 108.987357 
" style="fill:none;stroke:#303030;stroke-linecap:round;stroke-width:1.5;"/>
   </g>
   <g id="line2d_33">
    <path clip-path="url(#p1f49f38c00)" d="M 416.034783 57.662439 
L 416.034783 53.657523 
" style="fill:none;stroke:#303030;stroke-linecap:round;stroke-width:1.5;"/>
   </g>
   <g id="line2d_34">
    <path clip-path="url(#p1f49f38c00)" d="M 400.069565 108.987357 
L 432 108.987357 
" style="fill:none;stroke:#303030;stroke-linecap:round;stroke-width:1.5;"/>
   </g>
   <g id="line2d_35">
    <path clip-path="url(#p1f49f38c00)" d="M 400.069565 53.657523 
L 432 53.657523 
" style="fill:none;stroke:#303030;stroke-linecap:round;stroke-width:1.5;"/>
   </g>
   <g id="line2d_36"/>
   <g id="line2d_37">
    <path clip-path="url(#p1f49f38c00)" d="M 495.86087 85.708193 
L 495.86087 90.590378 
" style="fill:none;stroke:#303030;stroke-linecap:round;stroke-width:1.5;"/>
   </g>
   <g id="line2d_38">
    <path clip-path="url(#p1f49f38c00)" d="M 495.86087 74.878515 
L 495.86087 70.854349 
" style="fill:none;stroke:#303030;stroke-linecap:round;stroke-width:1.5;"/>
   </g>
   <g id="line2d_39">
    <path clip-path="url(#p1f49f38c00)" d="M 479.895652 90.590378 
L 511.826087 90.590378 
" style="fill:none;stroke:#303030;stroke-linecap:round;stroke-width:1.5;"/>
   </g>
   <g id="line2d_40">
    <path clip-path="url(#p1f49f38c00)" d="M 479.895652 70.854349 
L 511.826087 70.854349 
" style="fill:none;stroke:#303030;stroke-linecap:round;stroke-width:1.5;"/>
   </g>
   <g id="line2d_41"/>
   <g id="line2d_42">
    <path clip-path="url(#p1f49f38c00)" d="M 575.686957 163.938351 
L 575.686957 205.497855 
" style="fill:none;stroke:#303030;stroke-linecap:round;stroke-width:1.5;"/>
   </g>
   <g id="line2d_43">
    <path clip-path="url(#p1f49f38c00)" d="M 575.686957 131.314393 
L 575.686957 125.303944 
" style="fill:none;stroke:#303030;stroke-linecap:round;stroke-width:1.5;"/>
   </g>
   <g id="line2d_44">
    <path clip-path="url(#p1f49f38c00)" d="M 559.721739 205.497855 
L 591.652174 205.497855 
" style="fill:none;stroke:#303030;stroke-linecap:round;stroke-width:1.5;"/>
   </g>
   <g id="line2d_45">
    <path clip-path="url(#p1f49f38c00)" d="M 559.721739 125.303944 
L 591.652174 125.303944 
" style="fill:none;stroke:#303030;stroke-linecap:round;stroke-width:1.5;"/>
   </g>
   <g id="line2d_46"/>
   <g id="line2d_47">
    <path clip-path="url(#p1f49f38c00)" d="M 376.121739 151.492925 
L 615.6 151.492925 
" style="fill:none;stroke:#000000;stroke-linecap:round;stroke-width:1.5;"/>
   </g>
   <g id="line2d_48">
    <path clip-path="url(#p1f49f38c00)" d="M 384.104348 66.814749 
L 447.965217 66.814749 
" style="fill:none;stroke:#303030;stroke-linecap:round;stroke-width:1.5;"/>
   </g>
   <g id="line2d_49">
    <path clip-path="url(#p1f49f38c00)" d="M 463.930435 81.058859 
L 527.791304 81.058859 
" style="fill:none;stroke:#303030;stroke-linecap:round;stroke-width:1.5;"/>
   </g>
   <g id="line2d_50">
    <path clip-path="url(#p1f49f38c00)" d="M 543.756522 141.732913 
L 607.617391 141.732913 
" style="fill:none;stroke:#303030;stroke-linecap:round;stroke-width:1.5;"/>
   </g>
   <g id="patch_30">
    <path d="M 376.121739 216 
L 376.121739 43.2 
" style="fill:none;stroke:#ffffff;stroke-linecap:square;stroke-linejoin:miter;stroke-width:0.8;"/>
   </g>
   <g id="patch_31">
    <path d="M 615.6 216 
L 615.6 43.2 
" style="fill:none;stroke:#ffffff;stroke-linecap:square;stroke-linejoin:miter;stroke-width:0.8;"/>
   </g>
   <g id="patch_32">
    <path d="M 376.121739 216 
L 615.6 216 
" style="fill:none;stroke:#ffffff;stroke-linecap:square;stroke-linejoin:miter;stroke-width:0.8;"/>
   </g>
   <g id="patch_33">
    <path d="M 376.121739 43.2 
L 615.6 43.2 
" style="fill:none;stroke:#ffffff;stroke-linecap:square;stroke-linejoin:miter;stroke-width:0.8;"/>
   </g>
   <g id="PathCollection_4">
    <defs>
     <path d="M 0 6 
C 1.591219 6 3.117479 5.367802 4.242641 4.242641 
C 5.367802 3.117479 6 1.591219 6 0 
C 6 -1.591219 5.367802 -3.117479 4.242641 -4.242641 
C 3.117479 -5.367802 1.591219 -6 0 -6 
C -1.591219 -6 -3.117479 -5.367802 -4.242641 -4.242641 
C -5.367802 -3.117479 -6 -1.591219 -6 0 
C -6 1.591219 -5.367802 3.117479 -4.242641 4.242641 
C -3.117479 5.367802 -1.591219 6 0 6 
z
" id="C3_0_30a925b6b1"/>
    </defs>
    <g clip-path="url(#p1f49f38c00)">
     <use style="fill:#0173b2;fill-opacity:0.7;stroke:#000000;stroke-opacity:0.7;stroke-width:1.5;" x="423.860182" xlink:href="#C3_0_30a925b6b1" y="57.430425"/>
    </g>
    <g clip-path="url(#p1f49f38c00)">
     <use style="fill:#0173b2;fill-opacity:0.7;stroke:#000000;stroke-opacity:0.7;stroke-width:1.5;" x="414.61446" xlink:href="#C3_0_30a925b6b1" y="60.068369"/>
    </g>
    <g clip-path="url(#p1f49f38c00)">
     <use style="fill:#0173b2;fill-opacity:0.7;stroke:#000000;stroke-opacity:0.7;stroke-width:1.5;" x="416.959398" xlink:href="#C3_0_30a925b6b1" y="58.358479"/>
    </g>
    <g clip-path="url(#p1f49f38c00)">
     <use style="fill:#0173b2;fill-opacity:0.7;stroke:#000000;stroke-opacity:0.7;stroke-width:1.5;" x="416.552667" xlink:href="#C3_0_30a925b6b1" y="108.987357"/>
    </g>
    <g clip-path="url(#p1f49f38c00)">
     <use style="fill:#0173b2;fill-opacity:0.7;stroke:#000000;stroke-opacity:0.7;stroke-width:1.5;" x="414.26671" xlink:href="#C3_0_30a925b6b1" y="53.657523"/>
    </g>
    <g clip-path="url(#p1f49f38c00)">
     <use style="fill:#0173b2;fill-opacity:0.7;stroke:#000000;stroke-opacity:0.7;stroke-width:1.5;" x="411.771116" xlink:href="#C3_0_30a925b6b1" y="73.561129"/>
    </g>
    <g clip-path="url(#p1f49f38c00)">
     <use style="fill:#0173b2;fill-opacity:0.7;stroke:#000000;stroke-opacity:0.7;stroke-width:1.5;" x="419.964601" xlink:href="#C3_0_30a925b6b1" y="80.901443"/>
    </g>
    <g clip-path="url(#p1f49f38c00)">
     <use style="fill:#0173b2;fill-opacity:0.7;stroke:#000000;stroke-opacity:0.7;stroke-width:1.5;" x="414.056341" xlink:href="#C3_0_30a925b6b1" y="79.419677"/>
    </g>
    <g clip-path="url(#p1f49f38c00)">
     <use style="fill:#0173b2;fill-opacity:0.7;stroke:#000000;stroke-opacity:0.7;stroke-width:1.5;" x="418.789059" xlink:href="#C3_0_30a925b6b1" y="88.389271"/>
    </g>
    <g clip-path="url(#p1f49f38c00)">
     <use style="fill:#0173b2;fill-opacity:0.7;stroke:#000000;stroke-opacity:0.7;stroke-width:1.5;" x="419.712771" xlink:href="#C3_0_30a925b6b1" y="55.782382"/>
    </g>
   </g>
   <g id="PathCollection_5">
    <defs>
     <path d="M 0 6 
C 1.591219 6 3.117479 5.367802 4.242641 4.242641 
C 5.367802 3.117479 6 1.591219 6 0 
C 6 -1.591219 5.367802 -3.117479 4.242641 -4.242641 
C 3.117479 -5.367802 1.591219 -6 0 -6 
C -1.591219 -6 -3.117479 -5.367802 -4.242641 -4.242641 
C -5.367802 -3.117479 -6 -1.591219 -6 0 
C -6 1.591219 -5.367802 3.117479 -4.242641 4.242641 
C -3.117479 5.367802 -1.591219 6 0 6 
z
" id="C4_0_69e26feb81"/>
    </defs>
    <g clip-path="url(#p1f49f38c00)">
     <use style="fill:#de8f05;fill-opacity:0.7;stroke:#000000;stroke-opacity:0.7;stroke-width:1.5;" x="499.468572" xlink:href="#C4_0_69e26feb81" y="86.393424"/>
    </g>
    <g clip-path="url(#p1f49f38c00)">
     <use style="fill:#de8f05;fill-opacity:0.7;stroke:#000000;stroke-opacity:0.7;stroke-width:1.5;" x="489.179967" xlink:href="#C4_0_69e26feb81" y="73.906085"/>
    </g>
    <g clip-path="url(#p1f49f38c00)">
     <use style="fill:#de8f05;fill-opacity:0.7;stroke:#000000;stroke-opacity:0.7;stroke-width:1.5;" x="503.437776" xlink:href="#C4_0_69e26feb81" y="90.590378"/>
    </g>
    <g clip-path="url(#p1f49f38c00)">
     <use style="fill:#de8f05;fill-opacity:0.7;stroke:#000000;stroke-opacity:0.7;stroke-width:1.5;" x="500.00513" xlink:href="#C4_0_69e26feb81" y="83.652499"/>
    </g>
    <g clip-path="url(#p1f49f38c00)">
     <use style="fill:#de8f05;fill-opacity:0.7;stroke:#000000;stroke-opacity:0.7;stroke-width:1.5;" x="497.414465" xlink:href="#C4_0_69e26feb81" y="82.546837"/>
    </g>
    <g clip-path="url(#p1f49f38c00)">
     <use style="fill:#de8f05;fill-opacity:0.7;stroke:#000000;stroke-opacity:0.7;stroke-width:1.5;" x="492.482962" xlink:href="#C4_0_69e26feb81" y="70.854349"/>
    </g>
    <g clip-path="url(#p1f49f38c00)">
     <use style="fill:#de8f05;fill-opacity:0.7;stroke:#000000;stroke-opacity:0.7;stroke-width:1.5;" x="490.297257" xlink:href="#C4_0_69e26feb81" y="79.57088"/>
    </g>
    <g clip-path="url(#p1f49f38c00)">
     <use style="fill:#de8f05;fill-opacity:0.7;stroke:#000000;stroke-opacity:0.7;stroke-width:1.5;" x="500.558976" xlink:href="#C4_0_69e26feb81" y="77.795807"/>
    </g>
    <g clip-path="url(#p1f49f38c00)">
     <use style="fill:#de8f05;fill-opacity:0.7;stroke:#000000;stroke-opacity:0.7;stroke-width:1.5;" x="494.174584" xlink:href="#C4_0_69e26feb81" y="87.60452"/>
    </g>
    <g clip-path="url(#p1f49f38c00)">
     <use style="fill:#de8f05;fill-opacity:0.7;stroke:#000000;stroke-opacity:0.7;stroke-width:1.5;" x="502.435003" xlink:href="#C4_0_69e26feb81" y="72.230674"/>
    </g>
   </g>
   <g id="PathCollection_6">
    <defs>
     <path d="M 0 6 
C 1.591219 6 3.117479 5.367802 4.242641 4.242641 
C 5.367802 3.117479 6 1.591219 6 0 
C 6 -1.591219 5.367802 -3.117479 4.242641 -4.242641 
C 3.117479 -5.367802 1.591219 -6 0 -6 
C -1.591219 -6 -3.117479 -5.367802 -4.242641 -4.242641 
C -5.367802 -3.117479 -6 -1.591219 -6 0 
C -6 1.591219 -5.367802 3.117479 -4.242641 4.242641 
C -3.117479 5.367802 -1.591219 6 0 6 
z
" id="C5_0_538b9ee815"/>
    </defs>
    <g clip-path="url(#p1f49f38c00)">
     <use style="fill:#029e73;fill-opacity:0.7;stroke:#000000;stroke-opacity:0.7;stroke-width:1.5;" x="582.718812" xlink:href="#C5_0_538b9ee815" y="125.303944"/>
    </g>
    <g clip-path="url(#p1f49f38c00)">
     <use style="fill:#029e73;fill-opacity:0.7;stroke:#000000;stroke-opacity:0.7;stroke-width:1.5;" x="568.593467" xlink:href="#C5_0_538b9ee815" y="133.910057"/>
    </g>
    <g clip-path="url(#p1f49f38c00)">
     <use style="fill:#029e73;fill-opacity:0.7;stroke:#000000;stroke-opacity:0.7;stroke-width:1.5;" x="576.969729" xlink:href="#C5_0_538b9ee815" y="136.163003"/>
    </g>
    <g clip-path="url(#p1f49f38c00)">
     <use style="fill:#029e73;fill-opacity:0.7;stroke:#000000;stroke-opacity:0.7;stroke-width:1.5;" x="573.830442" xlink:href="#C5_0_538b9ee815" y="205.497855"/>
    </g>
    <g clip-path="url(#p1f49f38c00)">
     <use style="fill:#029e73;fill-opacity:0.7;stroke:#000000;stroke-opacity:0.7;stroke-width:1.5;" x="574.225002" xlink:href="#C5_0_538b9ee815" y="168.261555"/>
    </g>
    <g clip-path="url(#p1f49f38c00)">
     <use style="fill:#029e73;fill-opacity:0.7;stroke:#000000;stroke-opacity:0.7;stroke-width:1.5;" x="577.542146" xlink:href="#C5_0_538b9ee815" y="147.302822"/>
    </g>
    <g clip-path="url(#p1f49f38c00)">
     <use style="fill:#029e73;fill-opacity:0.7;stroke:#000000;stroke-opacity:0.7;stroke-width:1.5;" x="580.114757" xlink:href="#C5_0_538b9ee815" y="127.742008"/>
    </g>
    <g clip-path="url(#p1f49f38c00)">
     <use style="fill:#029e73;fill-opacity:0.7;stroke:#000000;stroke-opacity:0.7;stroke-width:1.5;" x="576.480023" xlink:href="#C5_0_538b9ee815" y="171.825101"/>
    </g>
    <g clip-path="url(#p1f49f38c00)">
     <use style="fill:#029e73;fill-opacity:0.7;stroke:#000000;stroke-opacity:0.7;stroke-width:1.5;" x="579.785987" xlink:href="#C5_0_538b9ee815" y="150.96874"/>
    </g>
    <g clip-path="url(#p1f49f38c00)">
     <use style="fill:#029e73;fill-opacity:0.7;stroke:#000000;stroke-opacity:0.7;stroke-width:1.5;" x="583.114106" xlink:href="#C5_0_538b9ee815" y="130.449172"/>
    </g>
   </g>
   <g id="text_22">
    <!-- $R^2  score$ -->
    <defs>
     <path d="M 25.203125 64.796875 
L 20.21875 38.921875 
L 32.90625 38.921875 
Q 40.375 38.921875 44.984375 43.046875 
Q 49.609375 47.171875 49.609375 53.8125 
Q 49.609375 59.125 46.5 61.953125 
Q 43.40625 64.796875 37.59375 64.796875 
z
M 43.3125 35.015625 
Q 46.4375 34.28125 48.515625 31.390625 
Q 50.59375 28.515625 53.328125 19.921875 
L 59.515625 0 
L 49.125 0 
L 43.40625 18.703125 
Q 41.21875 25.921875 38.328125 28.359375 
Q 35.453125 30.8125 29.5 30.8125 
L 18.609375 30.8125 
L 12.59375 0 
L 2.6875 0 
L 16.890625 72.90625 
L 39.109375 72.90625 
Q 49.21875 72.90625 54.609375 68.328125 
Q 60.015625 63.765625 60.015625 55.171875 
Q 60.015625 47.5625 55.421875 41.984375 
Q 50.828125 36.421875 43.3125 35.015625 
z
" id="DejaVuSans-Oblique-82"/>
     <path d="M 50 53.078125 
L 48.296875 44.578125 
Q 44.734375 46.53125 40.765625 47.5 
Q 36.8125 48.484375 32.625 48.484375 
Q 25.53125 48.484375 21.453125 46.0625 
Q 17.390625 43.65625 17.390625 39.5 
Q 17.390625 34.671875 26.859375 32.078125 
Q 27.59375 31.890625 27.9375 31.78125 
L 30.8125 30.90625 
Q 39.796875 28.421875 42.796875 25.6875 
Q 45.796875 22.953125 45.796875 18.21875 
Q 45.796875 9.515625 38.890625 4.046875 
Q 31.984375 -1.421875 20.796875 -1.421875 
Q 16.453125 -1.421875 11.671875 -0.578125 
Q 6.890625 0.25 1.125 2 
L 2.875 11.28125 
Q 7.8125 8.734375 12.59375 7.421875 
Q 17.390625 6.109375 21.78125 6.109375 
Q 28.375 6.109375 32.5 8.9375 
Q 36.625 11.765625 36.625 16.109375 
Q 36.625 20.796875 25.78125 23.6875 
L 24.859375 23.921875 
L 21.78125 24.703125 
Q 14.9375 26.515625 11.765625 29.46875 
Q 8.59375 32.421875 8.59375 37.015625 
Q 8.59375 45.75 15.15625 50.875 
Q 21.734375 56 33.015625 56 
Q 37.453125 56 41.671875 55.265625 
Q 45.90625 54.546875 50 53.078125 
z
" id="DejaVuSans-Oblique-115"/>
     <path d="M 53.609375 52.59375 
L 51.8125 43.703125 
Q 48.578125 46.046875 44.9375 47.21875 
Q 41.3125 48.390625 37.40625 48.390625 
Q 33.109375 48.390625 29.21875 46.875 
Q 25.34375 45.359375 22.703125 42.578125 
Q 18.5 38.328125 16.203125 32.609375 
Q 13.921875 26.90625 13.921875 20.796875 
Q 13.921875 13.421875 17.609375 9.8125 
Q 21.296875 6.203125 28.8125 6.203125 
Q 32.515625 6.203125 36.6875 7.328125 
Q 40.875 8.453125 45.40625 10.6875 
L 43.703125 1.8125 
Q 39.796875 0.203125 35.671875 -0.609375 
Q 31.546875 -1.421875 27.203125 -1.421875 
Q 16.3125 -1.421875 10.453125 4.015625 
Q 4.59375 9.46875 4.59375 19.578125 
Q 4.59375 28.078125 7.640625 35.234375 
Q 10.6875 42.390625 16.703125 48.09375 
Q 20.796875 52 26.3125 54 
Q 31.84375 56 38.375 56 
Q 42.1875 56 45.9375 55.140625 
Q 49.703125 54.296875 53.609375 52.59375 
z
" id="DejaVuSans-Oblique-99"/>
     <path d="M 25.390625 -1.421875 
Q 15.765625 -1.421875 10.171875 4.515625 
Q 4.59375 10.453125 4.59375 20.703125 
Q 4.59375 26.65625 6.515625 32.828125 
Q 8.453125 39.015625 11.53125 43.21875 
Q 16.359375 49.75 22.3125 52.875 
Q 28.265625 56 35.796875 56 
Q 45.125 56 50.859375 50.1875 
Q 56.59375 44.390625 56.59375 35.015625 
Q 56.59375 28.515625 54.6875 22.0625 
Q 52.78125 15.625 49.703125 11.375 
Q 44.921875 4.828125 38.96875 1.703125 
Q 33.015625 -1.421875 25.390625 -1.421875 
z
M 13.921875 21 
Q 13.921875 13.578125 17.015625 9.890625 
Q 20.125 6.203125 26.421875 6.203125 
Q 35.453125 6.203125 41.375 14.078125 
Q 47.3125 21.96875 47.3125 34.078125 
Q 47.3125 41.15625 44.140625 44.765625 
Q 40.96875 48.390625 34.8125 48.390625 
Q 29.734375 48.390625 25.78125 46.015625 
Q 21.828125 43.65625 18.703125 38.8125 
Q 16.40625 35.203125 15.15625 30.5625 
Q 13.921875 25.921875 13.921875 21 
z
" id="DejaVuSans-Oblique-111"/>
     <path d="M 44.578125 46.390625 
Q 43.21875 47.125 41.453125 47.515625 
Q 39.703125 47.90625 37.703125 47.90625 
Q 30.515625 47.90625 25.140625 42.453125 
Q 19.78125 37.015625 18.015625 27.875 
L 12.5 0 
L 3.515625 0 
L 14.203125 54.6875 
L 23.1875 54.6875 
L 21.484375 46.1875 
Q 25.046875 50.921875 30 53.453125 
Q 34.96875 56 40.578125 56 
Q 42.046875 56 43.453125 55.828125 
Q 44.875 55.671875 46.296875 55.28125 
z
" id="DejaVuSans-Oblique-114"/>
     <path d="M 48.09375 32.234375 
Q 48.25 33.015625 48.3125 33.84375 
Q 48.390625 34.671875 48.390625 35.5 
Q 48.390625 41.453125 44.890625 44.921875 
Q 41.40625 48.390625 35.40625 48.390625 
Q 28.71875 48.390625 23.578125 44.15625 
Q 18.453125 39.9375 15.828125 32.171875 
z
M 55.90625 25.203125 
L 14.109375 25.203125 
Q 13.8125 23.34375 13.71875 22.265625 
Q 13.625 21.1875 13.625 20.40625 
Q 13.625 13.625 17.796875 9.90625 
Q 21.96875 6.203125 29.59375 6.203125 
Q 35.453125 6.203125 40.671875 7.515625 
Q 45.90625 8.84375 50.390625 11.375 
L 48.6875 2.484375 
Q 43.84375 0.53125 38.6875 -0.4375 
Q 33.546875 -1.421875 28.21875 -1.421875 
Q 16.84375 -1.421875 10.71875 4.015625 
Q 4.59375 9.46875 4.59375 19.484375 
Q 4.59375 28.03125 7.640625 35.375 
Q 10.6875 42.71875 16.609375 48.484375 
Q 20.40625 52.09375 25.65625 54.046875 
Q 30.90625 56 36.8125 56 
Q 46.09375 56 51.578125 50.4375 
Q 57.078125 44.875 57.078125 35.5 
Q 57.078125 33.25 56.78125 30.6875 
Q 56.5 28.125 55.90625 25.203125 
z
" id="DejaVuSans-Oblique-101"/>
    </defs>
    <g style="fill:#262626;" transform="translate(448.46087 37.2)scale(0.24 -0.24)">
     <use transform="translate(0 0.765625)" xlink:href="#DejaVuSans-Oblique-82"/>
     <use transform="translate(76.499193 39.046875)scale(0.7)" xlink:href="#DejaVuSans-50"/>
     <use transform="translate(123.769701 0.765625)" xlink:href="#DejaVuSans-Oblique-115"/>
     <use transform="translate(175.86931 0.765625)" xlink:href="#DejaVuSans-Oblique-99"/>
     <use transform="translate(230.849779 0.765625)" xlink:href="#DejaVuSans-Oblique-111"/>
     <use transform="translate(292.031419 0.765625)" xlink:href="#DejaVuSans-Oblique-114"/>
     <use transform="translate(333.144701 0.765625)" xlink:href="#DejaVuSans-Oblique-101"/>
    </g>
   </g>
  </g>
 </g>
 <defs>
  <clipPath id="pa947243922">
   <rect height="172.8" width="239.478261" x="64.8" y="43.2"/>
  </clipPath>
  <clipPath id="p1f49f38c00">
   <rect height="172.8" width="239.478261" x="376.121739" y="43.2"/>
  </clipPath>
 </defs>
</svg>
