<?xml version="1.0" encoding="utf-8" standalone="no"?>
<!DOCTYPE svg PUBLIC "-//W3C//DTD SVG 1.1//EN"
  "http://www.w3.org/Graphics/SVG/1.1/DTD/svg11.dtd">
<!-- Created with matplotlib (https://matplotlib.org/) -->
<svg height="360pt" version="1.1" viewBox="0 0 648 360" width="648pt" xmlns="http://www.w3.org/2000/svg" xmlns:xlink="http://www.w3.org/1999/xlink">
 <defs>
  <style type="text/css">
*{stroke-linecap:butt;stroke-linejoin:round;white-space:pre;}
  </style>
 </defs>
 <g id="figure_1">
  <g id="patch_1">
   <path d="M 0 360 
L 648 360 
L 648 0 
L 0 0 
z
" style="fill:#ffffff;"/>
  </g>
  <g id="axes_1">
   <g id="patch_2">
    <path d="M 64.8 216 
L 304.278261 216 
L 304.278261 43.2 
L 64.8 43.2 
z
" style="fill:#eaeaf2;"/>
   </g>
   <g id="patch_3">
    <path clip-path="url(#p4e11ecc85c)" d="M 124.669565 216 
L 124.669565 43.2 
L 184.53913 43.2 
L 184.53913 216 
z
" style="fill:#ffffff;stroke:#ffffff;stroke-linejoin:miter;"/>
   </g>
   <g id="patch_4">
    <path clip-path="url(#p4e11ecc85c)" d="M 244.408696 216 
L 244.408696 43.2 
L 304.278261 43.2 
L 304.278261 216 
z
" style="fill:#ffffff;stroke:#ffffff;stroke-linejoin:miter;"/>
   </g>
   <g id="patch_5">
    <path clip-path="url(#p4e11ecc85c)" d="M 364.147826 216 
L 364.147826 43.2 
L 424.017391 43.2 
L 424.017391 216 
z
" style="fill:#ffffff;stroke:#ffffff;stroke-linejoin:miter;"/>
   </g>
   <g id="patch_6">
    <path clip-path="url(#p4e11ecc85c)" d="M 483.886957 216 
L 483.886957 43.2 
L 543.756522 43.2 
L 543.756522 216 
z
" style="fill:#ffffff;stroke:#ffffff;stroke-linejoin:miter;"/>
   </g>
   <g id="patch_7">
    <path clip-path="url(#p4e11ecc85c)" d="M 603.626087 216 
L 603.626087 43.2 
L 663.495652 43.2 
L 663.495652 216 
z
" style="fill:#ffffff;stroke:#ffffff;stroke-linejoin:miter;"/>
   </g>
   <g id="patch_8">
    <path clip-path="url(#p4e11ecc85c)" d="M 723.365217 216 
L 723.365217 43.2 
L 783.234783 43.2 
L 783.234783 216 
z
" style="fill:#ffffff;stroke:#ffffff;stroke-linejoin:miter;"/>
   </g>
   <g id="patch_9">
    <path clip-path="url(#p4e11ecc85c)" d="M 843.104348 216 
L 843.104348 43.2 
L 902.973913 43.2 
L 902.973913 216 
z
" style="fill:#ffffff;stroke:#ffffff;stroke-linejoin:miter;"/>
   </g>
   <g id="patch_10">
    <path clip-path="url(#p4e11ecc85c)" d="M 962.843478 216 
L 962.843478 43.2 
L 1022.713043 43.2 
L 1022.713043 216 
z
" style="fill:#ffffff;stroke:#ffffff;stroke-linejoin:miter;"/>
   </g>
   <g id="matplotlib.axis_1">
    <g id="xtick_1">
     <g id="text_1">
      <!-- Confound  -->
      <defs>
       <path d="M 64.40625 67.28125 
L 64.40625 56.890625 
Q 59.421875 61.53125 53.78125 63.8125 
Q 48.140625 66.109375 41.796875 66.109375 
Q 29.296875 66.109375 22.65625 58.46875 
Q 16.015625 50.828125 16.015625 36.375 
Q 16.015625 21.96875 22.65625 14.328125 
Q 29.296875 6.6875 41.796875 6.6875 
Q 48.140625 6.6875 53.78125 8.984375 
Q 59.421875 11.28125 64.40625 15.921875 
L 64.40625 5.609375 
Q 59.234375 2.09375 53.4375 0.328125 
Q 47.65625 -1.421875 41.21875 -1.421875 
Q 24.65625 -1.421875 15.125 8.703125 
Q 5.609375 18.84375 5.609375 36.375 
Q 5.609375 53.953125 15.125 64.078125 
Q 24.65625 74.21875 41.21875 74.21875 
Q 47.75 74.21875 53.53125 72.484375 
Q 59.328125 70.75 64.40625 67.28125 
z
" id="DejaVuSans-67"/>
       <path d="M 30.609375 48.390625 
Q 23.390625 48.390625 19.1875 42.75 
Q 14.984375 37.109375 14.984375 27.296875 
Q 14.984375 17.484375 19.15625 11.84375 
Q 23.34375 6.203125 30.609375 6.203125 
Q 37.796875 6.203125 41.984375 11.859375 
Q 46.1875 17.53125 46.1875 27.296875 
Q 46.1875 37.015625 41.984375 42.703125 
Q 37.796875 48.390625 30.609375 48.390625 
z
M 30.609375 56 
Q 42.328125 56 49.015625 48.375 
Q 55.71875 40.765625 55.71875 27.296875 
Q 55.71875 13.875 49.015625 6.21875 
Q 42.328125 -1.421875 30.609375 -1.421875 
Q 18.84375 -1.421875 12.171875 6.21875 
Q 5.515625 13.875 5.515625 27.296875 
Q 5.515625 40.765625 12.171875 48.375 
Q 18.84375 56 30.609375 56 
z
" id="DejaVuSans-111"/>
       <path d="M 54.890625 33.015625 
L 54.890625 0 
L 45.90625 0 
L 45.90625 32.71875 
Q 45.90625 40.484375 42.875 44.328125 
Q 39.84375 48.1875 33.796875 48.1875 
Q 26.515625 48.1875 22.3125 43.546875 
Q 18.109375 38.921875 18.109375 30.90625 
L 18.109375 0 
L 9.078125 0 
L 9.078125 54.6875 
L 18.109375 54.6875 
L 18.109375 46.1875 
Q 21.34375 51.125 25.703125 53.5625 
Q 30.078125 56 35.796875 56 
Q 45.21875 56 50.046875 50.171875 
Q 54.890625 44.34375 54.890625 33.015625 
z
" id="DejaVuSans-110"/>
       <path d="M 37.109375 75.984375 
L 37.109375 68.5 
L 28.515625 68.5 
Q 23.6875 68.5 21.796875 66.546875 
Q 19.921875 64.59375 19.921875 59.515625 
L 19.921875 54.6875 
L 34.71875 54.6875 
L 34.71875 47.703125 
L 19.921875 47.703125 
L 19.921875 0 
L 10.890625 0 
L 10.890625 47.703125 
L 2.296875 47.703125 
L 2.296875 54.6875 
L 10.890625 54.6875 
L 10.890625 58.5 
Q 10.890625 67.625 15.140625 71.796875 
Q 19.390625 75.984375 28.609375 75.984375 
z
" id="DejaVuSans-102"/>
       <path d="M 8.5 21.578125 
L 8.5 54.6875 
L 17.484375 54.6875 
L 17.484375 21.921875 
Q 17.484375 14.15625 20.5 10.265625 
Q 23.53125 6.390625 29.59375 6.390625 
Q 36.859375 6.390625 41.078125 11.03125 
Q 45.3125 15.671875 45.3125 23.6875 
L 45.3125 54.6875 
L 54.296875 54.6875 
L 54.296875 0 
L 45.3125 0 
L 45.3125 8.40625 
Q 42.046875 3.421875 37.71875 1 
Q 33.40625 -1.421875 27.6875 -1.421875 
Q 18.265625 -1.421875 13.375 4.4375 
Q 8.5 10.296875 8.5 21.578125 
z
M 31.109375 56 
z
" id="DejaVuSans-117"/>
       <path d="M 45.40625 46.390625 
L 45.40625 75.984375 
L 54.390625 75.984375 
L 54.390625 0 
L 45.40625 0 
L 45.40625 8.203125 
Q 42.578125 3.328125 38.25 0.953125 
Q 33.9375 -1.421875 27.875 -1.421875 
Q 17.96875 -1.421875 11.734375 6.484375 
Q 5.515625 14.40625 5.515625 27.296875 
Q 5.515625 40.1875 11.734375 48.09375 
Q 17.96875 56 27.875 56 
Q 33.9375 56 38.25 53.625 
Q 42.578125 51.265625 45.40625 46.390625 
z
M 14.796875 27.296875 
Q 14.796875 17.390625 18.875 11.75 
Q 22.953125 6.109375 30.078125 6.109375 
Q 37.203125 6.109375 41.296875 11.75 
Q 45.40625 17.390625 45.40625 27.296875 
Q 45.40625 37.203125 41.296875 42.84375 
Q 37.203125 48.484375 30.078125 48.484375 
Q 22.953125 48.484375 18.875 42.84375 
Q 14.796875 37.203125 14.796875 27.296875 
z
" id="DejaVuSans-100"/>
       <path id="DejaVuSans-32"/>
      </defs>
      <g style="fill:#262626;" transform="translate(76.434575 312.268435)rotate(-70)scale(0.16 -0.16)">
       <use xlink:href="#DejaVuSans-67"/>
       <use x="69.824219" xlink:href="#DejaVuSans-111"/>
       <use x="131.005859" xlink:href="#DejaVuSans-110"/>
       <use x="194.384766" xlink:href="#DejaVuSans-102"/>
       <use x="229.589844" xlink:href="#DejaVuSans-111"/>
       <use x="290.771484" xlink:href="#DejaVuSans-117"/>
       <use x="354.150391" xlink:href="#DejaVuSans-110"/>
       <use x="417.529297" xlink:href="#DejaVuSans-100"/>
       <use x="481.005859" xlink:href="#DejaVuSans-32"/>
      </g>
      <!--  isolation cv -->
      <defs>
       <path d="M 9.421875 54.6875 
L 18.40625 54.6875 
L 18.40625 0 
L 9.421875 0 
z
M 9.421875 75.984375 
L 18.40625 75.984375 
L 18.40625 64.59375 
L 9.421875 64.59375 
z
" id="DejaVuSans-105"/>
       <path d="M 44.28125 53.078125 
L 44.28125 44.578125 
Q 40.484375 46.53125 36.375 47.5 
Q 32.28125 48.484375 27.875 48.484375 
Q 21.1875 48.484375 17.84375 46.4375 
Q 14.5 44.390625 14.5 40.28125 
Q 14.5 37.15625 16.890625 35.375 
Q 19.28125 33.59375 26.515625 31.984375 
L 29.59375 31.296875 
Q 39.15625 29.25 43.1875 25.515625 
Q 47.21875 21.78125 47.21875 15.09375 
Q 47.21875 7.46875 41.1875 3.015625 
Q 35.15625 -1.421875 24.609375 -1.421875 
Q 20.21875 -1.421875 15.453125 -0.5625 
Q 10.6875 0.296875 5.421875 2 
L 5.421875 11.28125 
Q 10.40625 8.6875 15.234375 7.390625 
Q 20.0625 6.109375 24.8125 6.109375 
Q 31.15625 6.109375 34.5625 8.28125 
Q 37.984375 10.453125 37.984375 14.40625 
Q 37.984375 18.0625 35.515625 20.015625 
Q 33.0625 21.96875 24.703125 23.78125 
L 21.578125 24.515625 
Q 13.234375 26.265625 9.515625 29.90625 
Q 5.8125 33.546875 5.8125 39.890625 
Q 5.8125 47.609375 11.28125 51.796875 
Q 16.75 56 26.8125 56 
Q 31.78125 56 36.171875 55.265625 
Q 40.578125 54.546875 44.28125 53.078125 
z
" id="DejaVuSans-115"/>
       <path d="M 9.421875 75.984375 
L 18.40625 75.984375 
L 18.40625 0 
L 9.421875 0 
z
" id="DejaVuSans-108"/>
       <path d="M 34.28125 27.484375 
Q 23.390625 27.484375 19.1875 25 
Q 14.984375 22.515625 14.984375 16.5 
Q 14.984375 11.71875 18.140625 8.90625 
Q 21.296875 6.109375 26.703125 6.109375 
Q 34.1875 6.109375 38.703125 11.40625 
Q 43.21875 16.703125 43.21875 25.484375 
L 43.21875 27.484375 
z
M 52.203125 31.203125 
L 52.203125 0 
L 43.21875 0 
L 43.21875 8.296875 
Q 40.140625 3.328125 35.546875 0.953125 
Q 30.953125 -1.421875 24.3125 -1.421875 
Q 15.921875 -1.421875 10.953125 3.296875 
Q 6 8.015625 6 15.921875 
Q 6 25.140625 12.171875 29.828125 
Q 18.359375 34.515625 30.609375 34.515625 
L 43.21875 34.515625 
L 43.21875 35.40625 
Q 43.21875 41.609375 39.140625 45 
Q 35.0625 48.390625 27.6875 48.390625 
Q 23 48.390625 18.546875 47.265625 
Q 14.109375 46.140625 10.015625 43.890625 
L 10.015625 52.203125 
Q 14.9375 54.109375 19.578125 55.046875 
Q 24.21875 56 28.609375 56 
Q 40.484375 56 46.34375 49.84375 
Q 52.203125 43.703125 52.203125 31.203125 
z
" id="DejaVuSans-97"/>
       <path d="M 18.3125 70.21875 
L 18.3125 54.6875 
L 36.8125 54.6875 
L 36.8125 47.703125 
L 18.3125 47.703125 
L 18.3125 18.015625 
Q 18.3125 11.328125 20.140625 9.421875 
Q 21.96875 7.515625 27.59375 7.515625 
L 36.8125 7.515625 
L 36.8125 0 
L 27.59375 0 
Q 17.1875 0 13.234375 3.875 
Q 9.28125 7.765625 9.28125 18.015625 
L 9.28125 47.703125 
L 2.6875 47.703125 
L 2.6875 54.6875 
L 9.28125 54.6875 
L 9.28125 70.21875 
z
" id="DejaVuSans-116"/>
       <path d="M 48.78125 52.59375 
L 48.78125 44.1875 
Q 44.96875 46.296875 41.140625 47.34375 
Q 37.3125 48.390625 33.40625 48.390625 
Q 24.65625 48.390625 19.8125 42.84375 
Q 14.984375 37.3125 14.984375 27.296875 
Q 14.984375 17.28125 19.8125 11.734375 
Q 24.65625 6.203125 33.40625 6.203125 
Q 37.3125 6.203125 41.140625 7.25 
Q 44.96875 8.296875 48.78125 10.40625 
L 48.78125 2.09375 
Q 45.015625 0.34375 40.984375 -0.53125 
Q 36.96875 -1.421875 32.421875 -1.421875 
Q 20.0625 -1.421875 12.78125 6.34375 
Q 5.515625 14.109375 5.515625 27.296875 
Q 5.515625 40.671875 12.859375 48.328125 
Q 20.21875 56 33.015625 56 
Q 37.15625 56 41.109375 55.140625 
Q 45.0625 54.296875 48.78125 52.59375 
z
" id="DejaVuSans-99"/>
       <path d="M 2.984375 54.6875 
L 12.5 54.6875 
L 29.59375 8.796875 
L 46.6875 54.6875 
L 56.203125 54.6875 
L 35.6875 0 
L 23.484375 0 
z
" id="DejaVuSans-118"/>
      </defs>
      <g style="fill:#262626;" transform="translate(90.900806 324.907135)rotate(-70)scale(0.16 -0.16)">
       <use xlink:href="#DejaVuSans-32"/>
       <use x="31.787109" xlink:href="#DejaVuSans-105"/>
       <use x="59.570312" xlink:href="#DejaVuSans-115"/>
       <use x="111.669922" xlink:href="#DejaVuSans-111"/>
       <use x="172.851562" xlink:href="#DejaVuSans-108"/>
       <use x="200.634766" xlink:href="#DejaVuSans-97"/>
       <use x="261.914062" xlink:href="#DejaVuSans-116"/>
       <use x="301.123047" xlink:href="#DejaVuSans-105"/>
       <use x="328.90625" xlink:href="#DejaVuSans-111"/>
       <use x="390.087891" xlink:href="#DejaVuSans-110"/>
       <use x="453.466797" xlink:href="#DejaVuSans-32"/>
       <use x="485.253906" xlink:href="#DejaVuSans-99"/>
       <use x="540.234375" xlink:href="#DejaVuSans-118"/>
      </g>
     </g>
    </g>
    <g id="xtick_2">
     <g id="text_2">
      <!-- Out-of-sample  -->
      <defs>
       <path d="M 39.40625 66.21875 
Q 28.65625 66.21875 22.328125 58.203125 
Q 16.015625 50.203125 16.015625 36.375 
Q 16.015625 22.609375 22.328125 14.59375 
Q 28.65625 6.59375 39.40625 6.59375 
Q 50.140625 6.59375 56.421875 14.59375 
Q 62.703125 22.609375 62.703125 36.375 
Q 62.703125 50.203125 56.421875 58.203125 
Q 50.140625 66.21875 39.40625 66.21875 
z
M 39.40625 74.21875 
Q 54.734375 74.21875 63.90625 63.9375 
Q 73.09375 53.65625 73.09375 36.375 
Q 73.09375 19.140625 63.90625 8.859375 
Q 54.734375 -1.421875 39.40625 -1.421875 
Q 24.03125 -1.421875 14.8125 8.828125 
Q 5.609375 19.09375 5.609375 36.375 
Q 5.609375 53.65625 14.8125 63.9375 
Q 24.03125 74.21875 39.40625 74.21875 
z
" id="DejaVuSans-79"/>
       <path d="M 4.890625 31.390625 
L 31.203125 31.390625 
L 31.203125 23.390625 
L 4.890625 23.390625 
z
" id="DejaVuSans-45"/>
       <path d="M 52 44.1875 
Q 55.375 50.25 60.0625 53.125 
Q 64.75 56 71.09375 56 
Q 79.640625 56 84.28125 50.015625 
Q 88.921875 44.046875 88.921875 33.015625 
L 88.921875 0 
L 79.890625 0 
L 79.890625 32.71875 
Q 79.890625 40.578125 77.09375 44.375 
Q 74.3125 48.1875 68.609375 48.1875 
Q 61.625 48.1875 57.5625 43.546875 
Q 53.515625 38.921875 53.515625 30.90625 
L 53.515625 0 
L 44.484375 0 
L 44.484375 32.71875 
Q 44.484375 40.625 41.703125 44.40625 
Q 38.921875 48.1875 33.109375 48.1875 
Q 26.21875 48.1875 22.15625 43.53125 
Q 18.109375 38.875 18.109375 30.90625 
L 18.109375 0 
L 9.078125 0 
L 9.078125 54.6875 
L 18.109375 54.6875 
L 18.109375 46.1875 
Q 21.1875 51.21875 25.484375 53.609375 
Q 29.78125 56 35.6875 56 
Q 41.65625 56 45.828125 52.96875 
Q 50 49.953125 52 44.1875 
z
" id="DejaVuSans-109"/>
       <path d="M 18.109375 8.203125 
L 18.109375 -20.796875 
L 9.078125 -20.796875 
L 9.078125 54.6875 
L 18.109375 54.6875 
L 18.109375 46.390625 
Q 20.953125 51.265625 25.265625 53.625 
Q 29.59375 56 35.59375 56 
Q 45.5625 56 51.78125 48.09375 
Q 58.015625 40.1875 58.015625 27.296875 
Q 58.015625 14.40625 51.78125 6.484375 
Q 45.5625 -1.421875 35.59375 -1.421875 
Q 29.59375 -1.421875 25.265625 0.953125 
Q 20.953125 3.328125 18.109375 8.203125 
z
M 48.6875 27.296875 
Q 48.6875 37.203125 44.609375 42.84375 
Q 40.53125 48.484375 33.40625 48.484375 
Q 26.265625 48.484375 22.1875 42.84375 
Q 18.109375 37.203125 18.109375 27.296875 
Q 18.109375 17.390625 22.1875 11.75 
Q 26.265625 6.109375 33.40625 6.109375 
Q 40.53125 6.109375 44.609375 11.75 
Q 48.6875 17.390625 48.6875 27.296875 
z
" id="DejaVuSans-112"/>
       <path d="M 56.203125 29.59375 
L 56.203125 25.203125 
L 14.890625 25.203125 
Q 15.484375 15.921875 20.484375 11.0625 
Q 25.484375 6.203125 34.421875 6.203125 
Q 39.59375 6.203125 44.453125 7.46875 
Q 49.3125 8.734375 54.109375 11.28125 
L 54.109375 2.78125 
Q 49.265625 0.734375 44.1875 -0.34375 
Q 39.109375 -1.421875 33.890625 -1.421875 
Q 20.796875 -1.421875 13.15625 6.1875 
Q 5.515625 13.8125 5.515625 26.8125 
Q 5.515625 40.234375 12.765625 48.109375 
Q 20.015625 56 32.328125 56 
Q 43.359375 56 49.78125 48.890625 
Q 56.203125 41.796875 56.203125 29.59375 
z
M 47.21875 32.234375 
Q 47.125 39.59375 43.09375 43.984375 
Q 39.0625 48.390625 32.421875 48.390625 
Q 24.90625 48.390625 20.390625 44.140625 
Q 15.875 39.890625 15.1875 32.171875 
z
" id="DejaVuSans-101"/>
      </defs>
      <g style="fill:#262626;" transform="translate(129.946841 343.131465)rotate(-70)scale(0.16 -0.16)">
       <use xlink:href="#DejaVuSans-79"/>
       <use x="78.710938" xlink:href="#DejaVuSans-117"/>
       <use x="142.089844" xlink:href="#DejaVuSans-116"/>
       <use x="181.298828" xlink:href="#DejaVuSans-45"/>
       <use x="217.398438" xlink:href="#DejaVuSans-111"/>
       <use x="278.580078" xlink:href="#DejaVuSans-102"/>
       <use x="313.707031" xlink:href="#DejaVuSans-45"/>
       <use x="349.791016" xlink:href="#DejaVuSans-115"/>
       <use x="401.890625" xlink:href="#DejaVuSans-97"/>
       <use x="463.169922" xlink:href="#DejaVuSans-109"/>
       <use x="560.582031" xlink:href="#DejaVuSans-112"/>
       <use x="624.058594" xlink:href="#DejaVuSans-108"/>
       <use x="651.841797" xlink:href="#DejaVuSans-101"/>
       <use x="713.365234" xlink:href="#DejaVuSans-32"/>
      </g>
      <!--  deconfounding -->
      <defs>
       <path d="M 45.40625 27.984375 
Q 45.40625 37.75 41.375 43.109375 
Q 37.359375 48.484375 30.078125 48.484375 
Q 22.859375 48.484375 18.828125 43.109375 
Q 14.796875 37.75 14.796875 27.984375 
Q 14.796875 18.265625 18.828125 12.890625 
Q 22.859375 7.515625 30.078125 7.515625 
Q 37.359375 7.515625 41.375 12.890625 
Q 45.40625 18.265625 45.40625 27.984375 
z
M 54.390625 6.78125 
Q 54.390625 -7.171875 48.1875 -13.984375 
Q 42 -20.796875 29.203125 -20.796875 
Q 24.46875 -20.796875 20.265625 -20.09375 
Q 16.0625 -19.390625 12.109375 -17.921875 
L 12.109375 -9.1875 
Q 16.0625 -11.328125 19.921875 -12.34375 
Q 23.78125 -13.375 27.78125 -13.375 
Q 36.625 -13.375 41.015625 -8.765625 
Q 45.40625 -4.15625 45.40625 5.171875 
L 45.40625 9.625 
Q 42.625 4.78125 38.28125 2.390625 
Q 33.9375 0 27.875 0 
Q 17.828125 0 11.671875 7.65625 
Q 5.515625 15.328125 5.515625 27.984375 
Q 5.515625 40.671875 11.671875 48.328125 
Q 17.828125 56 27.875 56 
Q 33.9375 56 38.28125 53.609375 
Q 42.625 51.21875 45.40625 46.390625 
L 45.40625 54.6875 
L 54.390625 54.6875 
z
" id="DejaVuSans-103"/>
      </defs>
      <g style="fill:#262626;" transform="translate(145.894447 351.70012)rotate(-70)scale(0.16 -0.16)">
       <use xlink:href="#DejaVuSans-32"/>
       <use x="31.787109" xlink:href="#DejaVuSans-100"/>
       <use x="95.263672" xlink:href="#DejaVuSans-101"/>
       <use x="156.787109" xlink:href="#DejaVuSans-99"/>
       <use x="211.767578" xlink:href="#DejaVuSans-111"/>
       <use x="272.949219" xlink:href="#DejaVuSans-110"/>
       <use x="336.328125" xlink:href="#DejaVuSans-102"/>
       <use x="371.533203" xlink:href="#DejaVuSans-111"/>
       <use x="432.714844" xlink:href="#DejaVuSans-117"/>
       <use x="496.09375" xlink:href="#DejaVuSans-110"/>
       <use x="559.472656" xlink:href="#DejaVuSans-100"/>
       <use x="622.949219" xlink:href="#DejaVuSans-105"/>
       <use x="650.732422" xlink:href="#DejaVuSans-110"/>
       <use x="714.111328" xlink:href="#DejaVuSans-103"/>
      </g>
     </g>
    </g>
    <g id="xtick_3">
     <g id="text_3">
      <!-- Deconfounding  -->
      <defs>
       <path d="M 19.671875 64.796875 
L 19.671875 8.109375 
L 31.59375 8.109375 
Q 46.6875 8.109375 53.6875 14.9375 
Q 60.6875 21.78125 60.6875 36.53125 
Q 60.6875 51.171875 53.6875 57.984375 
Q 46.6875 64.796875 31.59375 64.796875 
z
M 9.8125 72.90625 
L 30.078125 72.90625 
Q 51.265625 72.90625 61.171875 64.09375 
Q 71.09375 55.28125 71.09375 36.53125 
Q 71.09375 17.671875 61.125 8.828125 
Q 51.171875 0 30.078125 0 
L 9.8125 0 
z
" id="DejaVuSans-68"/>
      </defs>
      <g style="fill:#262626;" transform="translate(180.140198 347.604402)rotate(-70)scale(0.16 -0.16)">
       <use xlink:href="#DejaVuSans-68"/>
       <use x="77.001953" xlink:href="#DejaVuSans-101"/>
       <use x="138.525391" xlink:href="#DejaVuSans-99"/>
       <use x="193.505859" xlink:href="#DejaVuSans-111"/>
       <use x="254.6875" xlink:href="#DejaVuSans-110"/>
       <use x="318.066406" xlink:href="#DejaVuSans-102"/>
       <use x="353.271484" xlink:href="#DejaVuSans-111"/>
       <use x="414.453125" xlink:href="#DejaVuSans-117"/>
       <use x="477.832031" xlink:href="#DejaVuSans-110"/>
       <use x="541.210938" xlink:href="#DejaVuSans-100"/>
       <use x="604.6875" xlink:href="#DejaVuSans-105"/>
       <use x="632.470703" xlink:href="#DejaVuSans-110"/>
       <use x="695.849609" xlink:href="#DejaVuSans-103"/>
       <use x="759.326172" xlink:href="#DejaVuSans-32"/>
      </g>
      <!--  test and train -->
      <defs>
       <path d="M 41.109375 46.296875 
Q 39.59375 47.171875 37.8125 47.578125 
Q 36.03125 48 33.890625 48 
Q 26.265625 48 22.1875 43.046875 
Q 18.109375 38.09375 18.109375 28.8125 
L 18.109375 0 
L 9.078125 0 
L 9.078125 54.6875 
L 18.109375 54.6875 
L 18.109375 46.1875 
Q 20.953125 51.171875 25.484375 53.578125 
Q 30.03125 56 36.53125 56 
Q 37.453125 56 38.578125 55.875 
Q 39.703125 55.765625 41.0625 55.515625 
z
" id="DejaVuSans-114"/>
      </defs>
      <g style="fill:#262626;" transform="translate(199.243367 347.503218)rotate(-70)scale(0.16 -0.16)">
       <use xlink:href="#DejaVuSans-32"/>
       <use x="31.787109" xlink:href="#DejaVuSans-116"/>
       <use x="70.996094" xlink:href="#DejaVuSans-101"/>
       <use x="132.519531" xlink:href="#DejaVuSans-115"/>
       <use x="184.619141" xlink:href="#DejaVuSans-116"/>
       <use x="223.828125" xlink:href="#DejaVuSans-32"/>
       <use x="255.615234" xlink:href="#DejaVuSans-97"/>
       <use x="316.894531" xlink:href="#DejaVuSans-110"/>
       <use x="380.273438" xlink:href="#DejaVuSans-100"/>
       <use x="443.75" xlink:href="#DejaVuSans-32"/>
       <use x="475.537109" xlink:href="#DejaVuSans-116"/>
       <use x="514.746094" xlink:href="#DejaVuSans-114"/>
       <use x="555.859375" xlink:href="#DejaVuSans-97"/>
       <use x="617.138672" xlink:href="#DejaVuSans-105"/>
       <use x="644.921875" xlink:href="#DejaVuSans-110"/>
      </g>
      <!-- jointly -->
      <defs>
       <path d="M 9.421875 54.6875 
L 18.40625 54.6875 
L 18.40625 -0.984375 
Q 18.40625 -11.421875 14.421875 -16.109375 
Q 10.453125 -20.796875 1.609375 -20.796875 
L -1.8125 -20.796875 
L -1.8125 -13.1875 
L 0.59375 -13.1875 
Q 5.71875 -13.1875 7.5625 -10.8125 
Q 9.421875 -8.453125 9.421875 -0.984375 
z
M 9.421875 75.984375 
L 18.40625 75.984375 
L 18.40625 64.59375 
L 9.421875 64.59375 
z
" id="DejaVuSans-106"/>
       <path d="M 32.171875 -5.078125 
Q 28.375 -14.84375 24.75 -17.8125 
Q 21.140625 -20.796875 15.09375 -20.796875 
L 7.90625 -20.796875 
L 7.90625 -13.28125 
L 13.1875 -13.28125 
Q 16.890625 -13.28125 18.9375 -11.515625 
Q 21 -9.765625 23.484375 -3.21875 
L 25.09375 0.875 
L 2.984375 54.6875 
L 12.5 54.6875 
L 29.59375 11.921875 
L 46.6875 54.6875 
L 56.203125 54.6875 
z
" id="DejaVuSans-121"/>
      </defs>
      <g style="fill:#262626;" transform="translate(227.077883 323.412857)rotate(-70)scale(0.16 -0.16)">
       <use xlink:href="#DejaVuSans-106"/>
       <use x="27.783203" xlink:href="#DejaVuSans-111"/>
       <use x="88.964844" xlink:href="#DejaVuSans-105"/>
       <use x="116.748047" xlink:href="#DejaVuSans-110"/>
       <use x="180.126953" xlink:href="#DejaVuSans-116"/>
       <use x="219.335938" xlink:href="#DejaVuSans-108"/>
       <use x="247.119141" xlink:href="#DejaVuSans-121"/>
      </g>
     </g>
    </g>
    <g id="xtick_4">
     <g id="text_4">
      <!-- Without  -->
      <defs>
       <path d="M 3.328125 72.90625 
L 13.28125 72.90625 
L 28.609375 11.28125 
L 43.890625 72.90625 
L 54.984375 72.90625 
L 70.3125 11.28125 
L 85.59375 72.90625 
L 95.609375 72.90625 
L 77.296875 0 
L 64.890625 0 
L 49.515625 63.28125 
L 33.984375 0 
L 21.578125 0 
z
" id="DejaVuSans-87"/>
       <path d="M 54.890625 33.015625 
L 54.890625 0 
L 45.90625 0 
L 45.90625 32.71875 
Q 45.90625 40.484375 42.875 44.328125 
Q 39.84375 48.1875 33.796875 48.1875 
Q 26.515625 48.1875 22.3125 43.546875 
Q 18.109375 38.921875 18.109375 30.90625 
L 18.109375 0 
L 9.078125 0 
L 9.078125 75.984375 
L 18.109375 75.984375 
L 18.109375 46.1875 
Q 21.34375 51.125 25.703125 53.5625 
Q 30.078125 56 35.796875 56 
Q 45.21875 56 50.046875 50.171875 
Q 54.890625 44.34375 54.890625 33.015625 
z
" id="DejaVuSans-104"/>
      </defs>
      <g style="fill:#262626;" transform="translate(258.452375 319.045968)rotate(-70)scale(0.16 -0.16)">
       <use xlink:href="#DejaVuSans-87"/>
       <use x="98.845703" xlink:href="#DejaVuSans-105"/>
       <use x="126.628906" xlink:href="#DejaVuSans-116"/>
       <use x="165.837891" xlink:href="#DejaVuSans-104"/>
       <use x="229.216797" xlink:href="#DejaVuSans-111"/>
       <use x="290.398438" xlink:href="#DejaVuSans-117"/>
       <use x="353.777344" xlink:href="#DejaVuSans-116"/>
       <use x="392.986328" xlink:href="#DejaVuSans-32"/>
      </g>
      <!--  deconfounding -->
      <g style="fill:#262626;" transform="translate(265.633577 351.70012)rotate(-70)scale(0.16 -0.16)">
       <use xlink:href="#DejaVuSans-32"/>
       <use x="31.787109" xlink:href="#DejaVuSans-100"/>
       <use x="95.263672" xlink:href="#DejaVuSans-101"/>
       <use x="156.787109" xlink:href="#DejaVuSans-99"/>
       <use x="211.767578" xlink:href="#DejaVuSans-111"/>
       <use x="272.949219" xlink:href="#DejaVuSans-110"/>
       <use x="336.328125" xlink:href="#DejaVuSans-102"/>
       <use x="371.533203" xlink:href="#DejaVuSans-111"/>
       <use x="432.714844" xlink:href="#DejaVuSans-117"/>
       <use x="496.09375" xlink:href="#DejaVuSans-110"/>
       <use x="559.472656" xlink:href="#DejaVuSans-100"/>
       <use x="622.949219" xlink:href="#DejaVuSans-105"/>
       <use x="650.732422" xlink:href="#DejaVuSans-110"/>
       <use x="714.111328" xlink:href="#DejaVuSans-103"/>
      </g>
     </g>
    </g>
   </g>
   <g id="matplotlib.axis_2">
    <g id="ytick_1">
     <g id="line2d_1">
      <path clip-path="url(#p4e11ecc85c)" d="M 64.8 208.145455 
L 304.278261 208.145455 
" style="fill:none;stroke:#ffffff;stroke-linecap:round;stroke-width:0.8;"/>
     </g>
     <g id="text_5">
      <!-- 0.00 -->
      <defs>
       <path d="M 31.78125 66.40625 
Q 24.171875 66.40625 20.328125 58.90625 
Q 16.5 51.421875 16.5 36.375 
Q 16.5 21.390625 20.328125 13.890625 
Q 24.171875 6.390625 31.78125 6.390625 
Q 39.453125 6.390625 43.28125 13.890625 
Q 47.125 21.390625 47.125 36.375 
Q 47.125 51.421875 43.28125 58.90625 
Q 39.453125 66.40625 31.78125 66.40625 
z
M 31.78125 74.21875 
Q 44.046875 74.21875 50.515625 64.515625 
Q 56.984375 54.828125 56.984375 36.375 
Q 56.984375 17.96875 50.515625 8.265625 
Q 44.046875 -1.421875 31.78125 -1.421875 
Q 19.53125 -1.421875 13.0625 8.265625 
Q 6.59375 17.96875 6.59375 36.375 
Q 6.59375 54.828125 13.0625 64.515625 
Q 19.53125 74.21875 31.78125 74.21875 
z
" id="DejaVuSans-48"/>
       <path d="M 10.6875 12.40625 
L 21 12.40625 
L 21 0 
L 10.6875 0 
z
" id="DejaVuSans-46"/>
      </defs>
      <g style="fill:#262626;" transform="translate(25.128125 213.464361)scale(0.14 -0.14)">
       <use xlink:href="#DejaVuSans-48"/>
       <use x="63.623047" xlink:href="#DejaVuSans-46"/>
       <use x="95.410156" xlink:href="#DejaVuSans-48"/>
       <use x="159.033203" xlink:href="#DejaVuSans-48"/>
      </g>
     </g>
    </g>
    <g id="ytick_2">
     <g id="line2d_2">
      <path clip-path="url(#p4e11ecc85c)" d="M 64.8 173.393931 
L 304.278261 173.393931 
" style="fill:none;stroke:#ffffff;stroke-linecap:round;stroke-width:0.8;"/>
     </g>
     <g id="text_6">
      <!-- 0.25 -->
      <defs>
       <path d="M 19.1875 8.296875 
L 53.609375 8.296875 
L 53.609375 0 
L 7.328125 0 
L 7.328125 8.296875 
Q 12.9375 14.109375 22.625 23.890625 
Q 32.328125 33.6875 34.8125 36.53125 
Q 39.546875 41.84375 41.421875 45.53125 
Q 43.3125 49.21875 43.3125 52.78125 
Q 43.3125 58.59375 39.234375 62.25 
Q 35.15625 65.921875 28.609375 65.921875 
Q 23.96875 65.921875 18.8125 64.3125 
Q 13.671875 62.703125 7.8125 59.421875 
L 7.8125 69.390625 
Q 13.765625 71.78125 18.9375 73 
Q 24.125 74.21875 28.421875 74.21875 
Q 39.75 74.21875 46.484375 68.546875 
Q 53.21875 62.890625 53.21875 53.421875 
Q 53.21875 48.921875 51.53125 44.890625 
Q 49.859375 40.875 45.40625 35.40625 
Q 44.1875 33.984375 37.640625 27.21875 
Q 31.109375 20.453125 19.1875 8.296875 
z
" id="DejaVuSans-50"/>
       <path d="M 10.796875 72.90625 
L 49.515625 72.90625 
L 49.515625 64.59375 
L 19.828125 64.59375 
L 19.828125 46.734375 
Q 21.96875 47.46875 24.109375 47.828125 
Q 26.265625 48.1875 28.421875 48.1875 
Q 40.625 48.1875 47.75 41.5 
Q 54.890625 34.8125 54.890625 23.390625 
Q 54.890625 11.625 47.5625 5.09375 
Q 40.234375 -1.421875 26.90625 -1.421875 
Q 22.3125 -1.421875 17.546875 -0.640625 
Q 12.796875 0.140625 7.71875 1.703125 
L 7.71875 11.625 
Q 12.109375 9.234375 16.796875 8.0625 
Q 21.484375 6.890625 26.703125 6.890625 
Q 35.15625 6.890625 40.078125 11.328125 
Q 45.015625 15.765625 45.015625 23.390625 
Q 45.015625 31 40.078125 35.4375 
Q 35.15625 39.890625 26.703125 39.890625 
Q 22.75 39.890625 18.8125 39.015625 
Q 14.890625 38.140625 10.796875 36.28125 
z
" id="DejaVuSans-53"/>
      </defs>
      <g style="fill:#262626;" transform="translate(25.128125 178.712837)scale(0.14 -0.14)">
       <use xlink:href="#DejaVuSans-48"/>
       <use x="63.623047" xlink:href="#DejaVuSans-46"/>
       <use x="95.410156" xlink:href="#DejaVuSans-50"/>
       <use x="159.033203" xlink:href="#DejaVuSans-53"/>
      </g>
     </g>
    </g>
    <g id="ytick_3">
     <g id="line2d_3">
      <path clip-path="url(#p4e11ecc85c)" d="M 64.8 138.642408 
L 304.278261 138.642408 
" style="fill:none;stroke:#ffffff;stroke-linecap:round;stroke-width:0.8;"/>
     </g>
     <g id="text_7">
      <!-- 0.50 -->
      <g style="fill:#262626;" transform="translate(25.128125 143.961314)scale(0.14 -0.14)">
       <use xlink:href="#DejaVuSans-48"/>
       <use x="63.623047" xlink:href="#DejaVuSans-46"/>
       <use x="95.410156" xlink:href="#DejaVuSans-53"/>
       <use x="159.033203" xlink:href="#DejaVuSans-48"/>
      </g>
     </g>
    </g>
    <g id="ytick_4">
     <g id="line2d_4">
      <path clip-path="url(#p4e11ecc85c)" d="M 64.8 103.890884 
L 304.278261 103.890884 
" style="fill:none;stroke:#ffffff;stroke-linecap:round;stroke-width:0.8;"/>
     </g>
     <g id="text_8">
      <!-- 0.75 -->
      <defs>
       <path d="M 8.203125 72.90625 
L 55.078125 72.90625 
L 55.078125 68.703125 
L 28.609375 0 
L 18.3125 0 
L 43.21875 64.59375 
L 8.203125 64.59375 
z
" id="DejaVuSans-55"/>
      </defs>
      <g style="fill:#262626;" transform="translate(25.128125 109.20979)scale(0.14 -0.14)">
       <use xlink:href="#DejaVuSans-48"/>
       <use x="63.623047" xlink:href="#DejaVuSans-46"/>
       <use x="95.410156" xlink:href="#DejaVuSans-55"/>
       <use x="159.033203" xlink:href="#DejaVuSans-53"/>
      </g>
     </g>
    </g>
    <g id="ytick_5">
     <g id="line2d_5">
      <path clip-path="url(#p4e11ecc85c)" d="M 64.8 69.139361 
L 304.278261 69.139361 
" style="fill:none;stroke:#ffffff;stroke-linecap:round;stroke-width:0.8;"/>
     </g>
     <g id="text_9">
      <!-- 1.00 -->
      <defs>
       <path d="M 12.40625 8.296875 
L 28.515625 8.296875 
L 28.515625 63.921875 
L 10.984375 60.40625 
L 10.984375 69.390625 
L 28.421875 72.90625 
L 38.28125 72.90625 
L 38.28125 8.296875 
L 54.390625 8.296875 
L 54.390625 0 
L 12.40625 0 
z
" id="DejaVuSans-49"/>
      </defs>
      <g style="fill:#262626;" transform="translate(25.128125 74.458267)scale(0.14 -0.14)">
       <use xlink:href="#DejaVuSans-49"/>
       <use x="63.623047" xlink:href="#DejaVuSans-46"/>
       <use x="95.410156" xlink:href="#DejaVuSans-48"/>
       <use x="159.033203" xlink:href="#DejaVuSans-48"/>
      </g>
     </g>
    </g>
    <g id="text_10">
     <!-- Mean absolute error -->
     <defs>
      <path d="M 9.8125 72.90625 
L 24.515625 72.90625 
L 43.109375 23.296875 
L 61.8125 72.90625 
L 76.515625 72.90625 
L 76.515625 0 
L 66.890625 0 
L 66.890625 64.015625 
L 48.09375 14.015625 
L 38.1875 14.015625 
L 19.390625 64.015625 
L 19.390625 0 
L 9.8125 0 
z
" id="DejaVuSans-77"/>
      <path d="M 48.6875 27.296875 
Q 48.6875 37.203125 44.609375 42.84375 
Q 40.53125 48.484375 33.40625 48.484375 
Q 26.265625 48.484375 22.1875 42.84375 
Q 18.109375 37.203125 18.109375 27.296875 
Q 18.109375 17.390625 22.1875 11.75 
Q 26.265625 6.109375 33.40625 6.109375 
Q 40.53125 6.109375 44.609375 11.75 
Q 48.6875 17.390625 48.6875 27.296875 
z
M 18.109375 46.390625 
Q 20.953125 51.265625 25.265625 53.625 
Q 29.59375 56 35.59375 56 
Q 45.5625 56 51.78125 48.09375 
Q 58.015625 40.1875 58.015625 27.296875 
Q 58.015625 14.40625 51.78125 6.484375 
Q 45.5625 -1.421875 35.59375 -1.421875 
Q 29.59375 -1.421875 25.265625 0.953125 
Q 20.953125 3.328125 18.109375 8.203125 
L 18.109375 0 
L 9.078125 0 
L 9.078125 75.984375 
L 18.109375 75.984375 
z
" id="DejaVuSans-98"/>
     </defs>
     <g style="fill:#262626;" transform="translate(17.800625 210.5575)rotate(-90)scale(0.16 -0.16)">
      <use xlink:href="#DejaVuSans-77"/>
      <use x="86.279297" xlink:href="#DejaVuSans-101"/>
      <use x="147.802734" xlink:href="#DejaVuSans-97"/>
      <use x="209.082031" xlink:href="#DejaVuSans-110"/>
      <use x="272.460938" xlink:href="#DejaVuSans-32"/>
      <use x="304.248047" xlink:href="#DejaVuSans-97"/>
      <use x="365.527344" xlink:href="#DejaVuSans-98"/>
      <use x="429.003906" xlink:href="#DejaVuSans-115"/>
      <use x="481.103516" xlink:href="#DejaVuSans-111"/>
      <use x="542.285156" xlink:href="#DejaVuSans-108"/>
      <use x="570.068359" xlink:href="#DejaVuSans-117"/>
      <use x="633.447266" xlink:href="#DejaVuSans-116"/>
      <use x="672.65625" xlink:href="#DejaVuSans-101"/>
      <use x="734.179688" xlink:href="#DejaVuSans-32"/>
      <use x="765.966797" xlink:href="#DejaVuSans-101"/>
      <use x="827.490234" xlink:href="#DejaVuSans-114"/>
      <use x="868.587891" xlink:href="#DejaVuSans-114"/>
      <use x="909.669922" xlink:href="#DejaVuSans-111"/>
      <use x="970.851562" xlink:href="#DejaVuSans-114"/>
     </g>
    </g>
   </g>
   <g id="patch_11">
    <path clip-path="url(#p4e11ecc85c)" d="M 70.786957 152.991992 
L 118.682609 152.991992 
L 118.682609 124.950451 
L 70.786957 124.950451 
L 70.786957 152.991992 
z
" style="fill:#176d9c;stroke:#303030;stroke-linejoin:miter;stroke-width:1.5;"/>
   </g>
   <g id="patch_12">
    <path clip-path="url(#p4e11ecc85c)" d="M 130.656522 136.003675 
L 178.552174 136.003675 
L 178.552174 80.141351 
L 130.656522 80.141351 
L 130.656522 136.003675 
z
" style="fill:#c38820;stroke:#303030;stroke-linejoin:miter;stroke-width:1.5;"/>
   </g>
   <g id="patch_13">
    <path clip-path="url(#p4e11ecc85c)" d="M 190.526087 119.74623 
L 238.421739 119.74623 
L 238.421739 100.067505 
L 190.526087 100.067505 
L 190.526087 119.74623 
z
" style="fill:#158b6a;stroke:#303030;stroke-linejoin:miter;stroke-width:1.5;"/>
   </g>
   <g id="patch_14">
    <path clip-path="url(#p4e11ecc85c)" d="M 250.395652 158.915022 
L 298.291304 158.915022 
L 298.291304 156.044816 
L 250.395652 156.044816 
L 250.395652 158.915022 
z
" style="fill:#ba611b;stroke:#303030;stroke-linejoin:miter;stroke-width:1.5;"/>
   </g>
   <g id="line2d_6">
    <path clip-path="url(#p4e11ecc85c)" d="M 94.734783 152.991992 
L 94.734783 158.711531 
" style="fill:none;stroke:#303030;stroke-linecap:round;stroke-width:1.5;"/>
   </g>
   <g id="line2d_7">
    <path clip-path="url(#p4e11ecc85c)" d="M 94.734783 124.950451 
L 94.734783 110.421477 
" style="fill:none;stroke:#303030;stroke-linecap:round;stroke-width:1.5;"/>
   </g>
   <g id="line2d_8">
    <path clip-path="url(#p4e11ecc85c)" d="M 82.76087 158.711531 
L 106.708696 158.711531 
" style="fill:none;stroke:#303030;stroke-linecap:round;stroke-width:1.5;"/>
   </g>
   <g id="line2d_9">
    <path clip-path="url(#p4e11ecc85c)" d="M 82.76087 110.421477 
L 106.708696 110.421477 
" style="fill:none;stroke:#303030;stroke-linecap:round;stroke-width:1.5;"/>
   </g>
   <g id="line2d_10"/>
   <g id="line2d_11">
    <path clip-path="url(#p4e11ecc85c)" d="M 154.604348 136.003675 
L 154.604348 159.316183 
" style="fill:none;stroke:#303030;stroke-linecap:round;stroke-width:1.5;"/>
   </g>
   <g id="line2d_12">
    <path clip-path="url(#p4e11ecc85c)" d="M 154.604348 80.141351 
L 154.604348 52.90007 
" style="fill:none;stroke:#303030;stroke-linecap:round;stroke-width:1.5;"/>
   </g>
   <g id="line2d_13">
    <path clip-path="url(#p4e11ecc85c)" d="M 142.630435 159.316183 
L 166.578261 159.316183 
" style="fill:none;stroke:#303030;stroke-linecap:round;stroke-width:1.5;"/>
   </g>
   <g id="line2d_14">
    <path clip-path="url(#p4e11ecc85c)" d="M 142.630435 52.90007 
L 166.578261 52.90007 
" style="fill:none;stroke:#303030;stroke-linecap:round;stroke-width:1.5;"/>
   </g>
   <g id="line2d_15"/>
   <g id="line2d_16">
    <path clip-path="url(#p4e11ecc85c)" d="M 214.473913 119.74623 
L 214.473913 124.780757 
" style="fill:none;stroke:#303030;stroke-linecap:round;stroke-width:1.5;"/>
   </g>
   <g id="line2d_17">
    <path clip-path="url(#p4e11ecc85c)" d="M 214.473913 100.067505 
L 214.473913 95.793935 
" style="fill:none;stroke:#303030;stroke-linecap:round;stroke-width:1.5;"/>
   </g>
   <g id="line2d_18">
    <path clip-path="url(#p4e11ecc85c)" d="M 202.5 124.780757 
L 226.447826 124.780757 
" style="fill:none;stroke:#303030;stroke-linecap:round;stroke-width:1.5;"/>
   </g>
   <g id="line2d_19">
    <path clip-path="url(#p4e11ecc85c)" d="M 202.5 95.793935 
L 226.447826 95.793935 
" style="fill:none;stroke:#303030;stroke-linecap:round;stroke-width:1.5;"/>
   </g>
   <g id="line2d_20"/>
   <g id="line2d_21">
    <path clip-path="url(#p4e11ecc85c)" d="M 274.343478 158.915022 
L 274.343478 160.473962 
" style="fill:none;stroke:#303030;stroke-linecap:round;stroke-width:1.5;"/>
   </g>
   <g id="line2d_22">
    <path clip-path="url(#p4e11ecc85c)" d="M 274.343478 156.044816 
L 274.343478 154.000187 
" style="fill:none;stroke:#303030;stroke-linecap:round;stroke-width:1.5;"/>
   </g>
   <g id="line2d_23">
    <path clip-path="url(#p4e11ecc85c)" d="M 262.369565 160.473962 
L 286.317391 160.473962 
" style="fill:none;stroke:#303030;stroke-linecap:round;stroke-width:1.5;"/>
   </g>
   <g id="line2d_24">
    <path clip-path="url(#p4e11ecc85c)" d="M 262.369565 154.000187 
L 286.317391 154.000187 
" style="fill:none;stroke:#303030;stroke-linecap:round;stroke-width:1.5;"/>
   </g>
   <g id="line2d_25"/>
   <g id="line2d_26">
    <path clip-path="url(#p4e11ecc85c)" d="M 64.8 208.145455 
L 304.278261 208.145455 
" style="fill:none;stroke:#000000;stroke-linecap:round;stroke-width:1.5;"/>
   </g>
   <g id="line2d_27">
    <path clip-path="url(#p4e11ecc85c)" d="M 70.786957 136.407984 
L 118.682609 136.407984 
" style="fill:none;stroke:#303030;stroke-linecap:round;stroke-width:1.5;"/>
   </g>
   <g id="line2d_28">
    <path clip-path="url(#p4e11ecc85c)" d="M 130.656522 106.251932 
L 178.552174 106.251932 
" style="fill:none;stroke:#303030;stroke-linecap:round;stroke-width:1.5;"/>
   </g>
   <g id="line2d_29">
    <path clip-path="url(#p4e11ecc85c)" d="M 190.526087 112.43315 
L 238.421739 112.43315 
" style="fill:none;stroke:#303030;stroke-linecap:round;stroke-width:1.5;"/>
   </g>
   <g id="line2d_30">
    <path clip-path="url(#p4e11ecc85c)" d="M 250.395652 156.820918 
L 298.291304 156.820918 
" style="fill:none;stroke:#303030;stroke-linecap:round;stroke-width:1.5;"/>
   </g>
   <g id="patch_15">
    <path d="M 64.8 216 
L 64.8 43.2 
" style="fill:none;stroke:#ffffff;stroke-linecap:square;stroke-linejoin:miter;stroke-width:0.8;"/>
   </g>
   <g id="patch_16">
    <path d="M 304.278261 216 
L 304.278261 43.2 
" style="fill:none;stroke:#ffffff;stroke-linecap:square;stroke-linejoin:miter;stroke-width:0.8;"/>
   </g>
   <g id="patch_17">
    <path d="M 64.8 216 
L 304.278261 216 
" style="fill:none;stroke:#ffffff;stroke-linecap:square;stroke-linejoin:miter;stroke-width:0.8;"/>
   </g>
   <g id="patch_18">
    <path d="M 64.8 43.2 
L 304.278261 43.2 
" style="fill:none;stroke:#ffffff;stroke-linecap:square;stroke-linejoin:miter;stroke-width:0.8;"/>
   </g>
   <g id="PathCollection_1">
    <defs>
     <path d="M 0 6 
C 1.591219 6 3.117479 5.367802 4.242641 4.242641 
C 5.367802 3.117479 6 1.591219 6 0 
C 6 -1.591219 5.367802 -3.117479 4.242641 -4.242641 
C 3.117479 -5.367802 1.591219 -6 0 -6 
C -1.591219 -6 -3.117479 -5.367802 -4.242641 -4.242641 
C -5.367802 -3.117479 -6 -1.591219 -6 0 
C -6 1.591219 -5.367802 3.117479 -4.242641 4.242641 
C -3.117479 5.367802 -1.591219 6 0 6 
z
" id="C0_0_8c78e4eaf5"/>
    </defs>
    <g clip-path="url(#p4e11ecc85c)">
     <use style="fill:#0173b2;fill-opacity:0.7;stroke:#000000;stroke-opacity:0.7;stroke-width:1.5;" x="99.751749" xlink:href="#C0_0_8c78e4eaf5" y="110.421477"/>
    </g>
    <g clip-path="url(#p4e11ecc85c)">
     <use style="fill:#0173b2;fill-opacity:0.7;stroke:#000000;stroke-opacity:0.7;stroke-width:1.5;" x="99.097254" xlink:href="#C0_0_8c78e4eaf5" y="134.475775"/>
    </g>
    <g clip-path="url(#p4e11ecc85c)">
     <use style="fill:#0173b2;fill-opacity:0.7;stroke:#000000;stroke-opacity:0.7;stroke-width:1.5;" x="98.104655" xlink:href="#C0_0_8c78e4eaf5" y="158.711531"/>
    </g>
    <g clip-path="url(#p4e11ecc85c)">
     <use style="fill:#0173b2;fill-opacity:0.7;stroke:#000000;stroke-opacity:0.7;stroke-width:1.5;" x="94.226457" xlink:href="#C0_0_8c78e4eaf5" y="127.884641"/>
    </g>
    <g clip-path="url(#p4e11ecc85c)">
     <use style="fill:#0173b2;fill-opacity:0.7;stroke:#000000;stroke-opacity:0.7;stroke-width:1.5;" x="92.596411" xlink:href="#C0_0_8c78e4eaf5" y="152.437555"/>
    </g>
    <g clip-path="url(#p4e11ecc85c)">
     <use style="fill:#0173b2;fill-opacity:0.7;stroke:#000000;stroke-opacity:0.7;stroke-width:1.5;" x="99.303379" xlink:href="#C0_0_8c78e4eaf5" y="138.340193"/>
    </g>
    <g clip-path="url(#p4e11ecc85c)">
     <use style="fill:#0173b2;fill-opacity:0.7;stroke:#000000;stroke-opacity:0.7;stroke-width:1.5;" x="96.615574" xlink:href="#C0_0_8c78e4eaf5" y="156.186285"/>
    </g>
    <g clip-path="url(#p4e11ecc85c)">
     <use style="fill:#0173b2;fill-opacity:0.7;stroke:#000000;stroke-opacity:0.7;stroke-width:1.5;" x="92.286223" xlink:href="#C0_0_8c78e4eaf5" y="123.972388"/>
    </g>
    <g clip-path="url(#p4e11ecc85c)">
     <use style="fill:#0173b2;fill-opacity:0.7;stroke:#000000;stroke-opacity:0.7;stroke-width:1.5;" x="94.294093" xlink:href="#C0_0_8c78e4eaf5" y="115.407689"/>
    </g>
    <g clip-path="url(#p4e11ecc85c)">
     <use style="fill:#0173b2;fill-opacity:0.7;stroke:#000000;stroke-opacity:0.7;stroke-width:1.5;" x="99.302833" xlink:href="#C0_0_8c78e4eaf5" y="153.176804"/>
    </g>
   </g>
   <g id="PathCollection_2">
    <defs>
     <path d="M 0 6 
C 1.591219 6 3.117479 5.367802 4.242641 4.242641 
C 5.367802 3.117479 6 1.591219 6 0 
C 6 -1.591219 5.367802 -3.117479 4.242641 -4.242641 
C 3.117479 -5.367802 1.591219 -6 0 -6 
C -1.591219 -6 -3.117479 -5.367802 -4.242641 -4.242641 
C -5.367802 -3.117479 -6 -1.591219 -6 0 
C -6 1.591219 -5.367802 3.117479 -4.242641 4.242641 
C -3.117479 5.367802 -1.591219 6 0 6 
z
" id="C1_0_4254d077e5"/>
    </defs>
    <g clip-path="url(#p4e11ecc85c)">
     <use style="fill:#de8f05;fill-opacity:0.7;stroke:#000000;stroke-opacity:0.7;stroke-width:1.5;" x="159.435288" xlink:href="#C1_0_4254d077e5" y="159.316183"/>
    </g>
    <g clip-path="url(#p4e11ecc85c)">
     <use style="fill:#de8f05;fill-opacity:0.7;stroke:#000000;stroke-opacity:0.7;stroke-width:1.5;" x="156.511817" xlink:href="#C1_0_4254d077e5" y="110.394102"/>
    </g>
    <g clip-path="url(#p4e11ecc85c)">
     <use style="fill:#de8f05;fill-opacity:0.7;stroke:#000000;stroke-opacity:0.7;stroke-width:1.5;" x="157.388951" xlink:href="#C1_0_4254d077e5" y="156.477239"/>
    </g>
    <g clip-path="url(#p4e11ecc85c)">
     <use style="fill:#de8f05;fill-opacity:0.7;stroke:#000000;stroke-opacity:0.7;stroke-width:1.5;" x="149.08794" xlink:href="#C1_0_4254d077e5" y="53.184141"/>
    </g>
    <g clip-path="url(#p4e11ecc85c)">
     <use style="fill:#de8f05;fill-opacity:0.7;stroke:#000000;stroke-opacity:0.7;stroke-width:1.5;" x="155.856825" xlink:href="#C1_0_4254d077e5" y="124.56639"/>
    </g>
    <g clip-path="url(#p4e11ecc85c)">
     <use style="fill:#de8f05;fill-opacity:0.7;stroke:#000000;stroke-opacity:0.7;stroke-width:1.5;" x="156.867328" xlink:href="#C1_0_4254d077e5" y="139.816103"/>
    </g>
    <g clip-path="url(#p4e11ecc85c)">
     <use style="fill:#de8f05;fill-opacity:0.7;stroke:#000000;stroke-opacity:0.7;stroke-width:1.5;" x="148.861385" xlink:href="#C1_0_4254d077e5" y="102.109763"/>
    </g>
    <g clip-path="url(#p4e11ecc85c)">
     <use style="fill:#de8f05;fill-opacity:0.7;stroke:#000000;stroke-opacity:0.7;stroke-width:1.5;" x="158.721685" xlink:href="#C1_0_4254d077e5" y="94.003368"/>
    </g>
    <g clip-path="url(#p4e11ecc85c)">
     <use style="fill:#de8f05;fill-opacity:0.7;stroke:#000000;stroke-opacity:0.7;stroke-width:1.5;" x="159.732595" xlink:href="#C1_0_4254d077e5" y="52.90007"/>
    </g>
    <g clip-path="url(#p4e11ecc85c)">
     <use style="fill:#de8f05;fill-opacity:0.7;stroke:#000000;stroke-opacity:0.7;stroke-width:1.5;" x="151.466422" xlink:href="#C1_0_4254d077e5" y="75.520679"/>
    </g>
   </g>
   <g id="PathCollection_3">
    <defs>
     <path d="M 0 6 
C 1.591219 6 3.117479 5.367802 4.242641 4.242641 
C 5.367802 3.117479 6 1.591219 6 0 
C 6 -1.591219 5.367802 -3.117479 4.242641 -4.242641 
C 3.117479 -5.367802 1.591219 -6 0 -6 
C -1.591219 -6 -3.117479 -5.367802 -4.242641 -4.242641 
C -5.367802 -3.117479 -6 -1.591219 -6 0 
C -6 1.591219 -5.367802 3.117479 -4.242641 4.242641 
C -3.117479 5.367802 -1.591219 6 0 6 
z
" id="C2_0_763ab6d5e7"/>
    </defs>
    <g clip-path="url(#p4e11ecc85c)">
     <use style="fill:#029e73;fill-opacity:0.7;stroke:#000000;stroke-opacity:0.7;stroke-width:1.5;" x="218.614443" xlink:href="#C2_0_763ab6d5e7" y="102.987547"/>
    </g>
    <g clip-path="url(#p4e11ecc85c)">
     <use style="fill:#029e73;fill-opacity:0.7;stroke:#000000;stroke-opacity:0.7;stroke-width:1.5;" x="216.455746" xlink:href="#C2_0_763ab6d5e7" y="120.85725"/>
    </g>
    <g clip-path="url(#p4e11ecc85c)">
     <use style="fill:#029e73;fill-opacity:0.7;stroke:#000000;stroke-opacity:0.7;stroke-width:1.5;" x="215.440158" xlink:href="#C2_0_763ab6d5e7" y="123.15573"/>
    </g>
    <g clip-path="url(#p4e11ecc85c)">
     <use style="fill:#029e73;fill-opacity:0.7;stroke:#000000;stroke-opacity:0.7;stroke-width:1.5;" x="218.582474" xlink:href="#C2_0_763ab6d5e7" y="95.793935"/>
    </g>
    <g clip-path="url(#p4e11ecc85c)">
     <use style="fill:#029e73;fill-opacity:0.7;stroke:#000000;stroke-opacity:0.7;stroke-width:1.5;" x="211.906832" xlink:href="#C2_0_763ab6d5e7" y="112.052037"/>
    </g>
    <g clip-path="url(#p4e11ecc85c)">
     <use style="fill:#029e73;fill-opacity:0.7;stroke:#000000;stroke-opacity:0.7;stroke-width:1.5;" x="217.9566" xlink:href="#C2_0_763ab6d5e7" y="96.162372"/>
    </g>
    <g clip-path="url(#p4e11ecc85c)">
     <use style="fill:#029e73;fill-opacity:0.7;stroke:#000000;stroke-opacity:0.7;stroke-width:1.5;" x="212.253001" xlink:href="#C2_0_763ab6d5e7" y="116.41317"/>
    </g>
    <g clip-path="url(#p4e11ecc85c)">
     <use style="fill:#029e73;fill-opacity:0.7;stroke:#000000;stroke-opacity:0.7;stroke-width:1.5;" x="217.915893" xlink:href="#C2_0_763ab6d5e7" y="112.814263"/>
    </g>
    <g clip-path="url(#p4e11ecc85c)">
     <use style="fill:#029e73;fill-opacity:0.7;stroke:#000000;stroke-opacity:0.7;stroke-width:1.5;" x="213.887838" xlink:href="#C2_0_763ab6d5e7" y="99.094157"/>
    </g>
    <g clip-path="url(#p4e11ecc85c)">
     <use style="fill:#029e73;fill-opacity:0.7;stroke:#000000;stroke-opacity:0.7;stroke-width:1.5;" x="209.887251" xlink:href="#C2_0_763ab6d5e7" y="124.780757"/>
    </g>
   </g>
   <g id="PathCollection_4">
    <defs>
     <path d="M 0 6 
C 1.591219 6 3.117479 5.367802 4.242641 4.242641 
C 5.367802 3.117479 6 1.591219 6 0 
C 6 -1.591219 5.367802 -3.117479 4.242641 -4.242641 
C 3.117479 -5.367802 1.591219 -6 0 -6 
C -1.591219 -6 -3.117479 -5.367802 -4.242641 -4.242641 
C -5.367802 -3.117479 -6 -1.591219 -6 0 
C -6 1.591219 -5.367802 3.117479 -4.242641 4.242641 
C -3.117479 5.367802 -1.591219 6 0 6 
z
" id="C3_0_3f25d329cf"/>
    </defs>
    <g clip-path="url(#p4e11ecc85c)">
     <use style="fill:#d55e00;fill-opacity:0.7;stroke:#000000;stroke-opacity:0.7;stroke-width:1.5;" x="272.924807" xlink:href="#C3_0_3f25d329cf" y="156.988626"/>
    </g>
    <g clip-path="url(#p4e11ecc85c)">
     <use style="fill:#d55e00;fill-opacity:0.7;stroke:#000000;stroke-opacity:0.7;stroke-width:1.5;" x="271.15235" xlink:href="#C3_0_3f25d329cf" y="160.473962"/>
    </g>
    <g clip-path="url(#p4e11ecc85c)">
     <use style="fill:#d55e00;fill-opacity:0.7;stroke:#000000;stroke-opacity:0.7;stroke-width:1.5;" x="269.560278" xlink:href="#C3_0_3f25d329cf" y="156.467705"/>
    </g>
    <g clip-path="url(#p4e11ecc85c)">
     <use style="fill:#d55e00;fill-opacity:0.7;stroke:#000000;stroke-opacity:0.7;stroke-width:1.5;" x="269.67709" xlink:href="#C3_0_3f25d329cf" y="155.903853"/>
    </g>
    <g clip-path="url(#p4e11ecc85c)">
     <use style="fill:#d55e00;fill-opacity:0.7;stroke:#000000;stroke-opacity:0.7;stroke-width:1.5;" x="277.697029" xlink:href="#C3_0_3f25d329cf" y="156.653211"/>
    </g>
    <g clip-path="url(#p4e11ecc85c)">
     <use style="fill:#d55e00;fill-opacity:0.7;stroke:#000000;stroke-opacity:0.7;stroke-width:1.5;" x="278.910303" xlink:href="#C3_0_3f25d329cf" y="155.079958"/>
    </g>
    <g clip-path="url(#p4e11ecc85c)">
     <use style="fill:#d55e00;fill-opacity:0.7;stroke:#000000;stroke-opacity:0.7;stroke-width:1.5;" x="279.457885" xlink:href="#C3_0_3f25d329cf" y="159.460336"/>
    </g>
    <g clip-path="url(#p4e11ecc85c)">
     <use style="fill:#d55e00;fill-opacity:0.7;stroke:#000000;stroke-opacity:0.7;stroke-width:1.5;" x="278.581599" xlink:href="#C3_0_3f25d329cf" y="159.237775"/>
    </g>
    <g clip-path="url(#p4e11ecc85c)">
     <use style="fill:#d55e00;fill-opacity:0.7;stroke:#000000;stroke-opacity:0.7;stroke-width:1.5;" x="278.297553" xlink:href="#C3_0_3f25d329cf" y="154.000187"/>
    </g>
    <g clip-path="url(#p4e11ecc85c)">
     <use style="fill:#d55e00;fill-opacity:0.7;stroke:#000000;stroke-opacity:0.7;stroke-width:1.5;" x="269.180756" xlink:href="#C3_0_3f25d329cf" y="157.946764"/>
    </g>
   </g>
   <g id="text_11">
    <!-- Mean absolute error -->
    <g style="fill:#262626;" transform="translate(63.10288 37.2)scale(0.24 -0.24)">
     <use xlink:href="#DejaVuSans-77"/>
     <use x="86.279297" xlink:href="#DejaVuSans-101"/>
     <use x="147.802734" xlink:href="#DejaVuSans-97"/>
     <use x="209.082031" xlink:href="#DejaVuSans-110"/>
     <use x="272.460938" xlink:href="#DejaVuSans-32"/>
     <use x="304.248047" xlink:href="#DejaVuSans-97"/>
     <use x="365.527344" xlink:href="#DejaVuSans-98"/>
     <use x="429.003906" xlink:href="#DejaVuSans-115"/>
     <use x="481.103516" xlink:href="#DejaVuSans-111"/>
     <use x="542.285156" xlink:href="#DejaVuSans-108"/>
     <use x="570.068359" xlink:href="#DejaVuSans-117"/>
     <use x="633.447266" xlink:href="#DejaVuSans-116"/>
     <use x="672.65625" xlink:href="#DejaVuSans-101"/>
     <use x="734.179688" xlink:href="#DejaVuSans-32"/>
     <use x="765.966797" xlink:href="#DejaVuSans-101"/>
     <use x="827.490234" xlink:href="#DejaVuSans-114"/>
     <use x="868.587891" xlink:href="#DejaVuSans-114"/>
     <use x="909.669922" xlink:href="#DejaVuSans-111"/>
     <use x="970.851562" xlink:href="#DejaVuSans-114"/>
    </g>
   </g>
  </g>
  <g id="axes_2">
   <g id="patch_19">
    <path d="M 376.121739 216 
L 615.6 216 
L 615.6 43.2 
L 376.121739 43.2 
z
" style="fill:#eaeaf2;"/>
   </g>
   <g id="patch_20">
    <path clip-path="url(#p4489e964ca)" d="M 435.991304 216 
L 435.991304 43.2 
L 495.86087 43.2 
L 495.86087 216 
z
" style="fill:#ffffff;stroke:#ffffff;stroke-linejoin:miter;"/>
   </g>
   <g id="patch_21">
    <path clip-path="url(#p4489e964ca)" d="M 555.730435 216 
L 555.730435 43.2 
L 615.6 43.2 
L 615.6 216 
z
" style="fill:#ffffff;stroke:#ffffff;stroke-linejoin:miter;"/>
   </g>
   <g id="patch_22">
    <path clip-path="url(#p4489e964ca)" d="M 675.469565 216 
L 675.469565 43.2 
L 735.33913 43.2 
L 735.33913 216 
z
" style="fill:#ffffff;stroke:#ffffff;stroke-linejoin:miter;"/>
   </g>
   <g id="patch_23">
    <path clip-path="url(#p4489e964ca)" d="M 795.208696 216 
L 795.208696 43.2 
L 855.078261 43.2 
L 855.078261 216 
z
" style="fill:#ffffff;stroke:#ffffff;stroke-linejoin:miter;"/>
   </g>
   <g id="patch_24">
    <path clip-path="url(#p4489e964ca)" d="M 914.947826 216 
L 914.947826 43.2 
L 974.817391 43.2 
L 974.817391 216 
z
" style="fill:#ffffff;stroke:#ffffff;stroke-linejoin:miter;"/>
   </g>
   <g id="patch_25">
    <path clip-path="url(#p4489e964ca)" d="M 1034.686957 216 
L 1034.686957 43.2 
L 1094.556522 43.2 
L 1094.556522 216 
z
" style="fill:#ffffff;stroke:#ffffff;stroke-linejoin:miter;"/>
   </g>
   <g id="patch_26">
    <path clip-path="url(#p4489e964ca)" d="M 1154.426087 216 
L 1154.426087 43.2 
L 1214.295652 43.2 
L 1214.295652 216 
z
" style="fill:#ffffff;stroke:#ffffff;stroke-linejoin:miter;"/>
   </g>
   <g id="patch_27">
    <path clip-path="url(#p4489e964ca)" d="M 1274.165217 216 
L 1274.165217 43.2 
L 1334.034783 43.2 
L 1334.034783 216 
z
" style="fill:#ffffff;stroke:#ffffff;stroke-linejoin:miter;"/>
   </g>
   <g id="matplotlib.axis_3">
    <g id="xtick_5">
     <g id="text_12">
      <!-- Confound  -->
      <g style="fill:#262626;" transform="translate(387.756314 312.268435)rotate(-70)scale(0.16 -0.16)">
       <use xlink:href="#DejaVuSans-67"/>
       <use x="69.824219" xlink:href="#DejaVuSans-111"/>
       <use x="131.005859" xlink:href="#DejaVuSans-110"/>
       <use x="194.384766" xlink:href="#DejaVuSans-102"/>
       <use x="229.589844" xlink:href="#DejaVuSans-111"/>
       <use x="290.771484" xlink:href="#DejaVuSans-117"/>
       <use x="354.150391" xlink:href="#DejaVuSans-110"/>
       <use x="417.529297" xlink:href="#DejaVuSans-100"/>
       <use x="481.005859" xlink:href="#DejaVuSans-32"/>
      </g>
      <!--  isolation cv -->
      <g style="fill:#262626;" transform="translate(402.222545 324.907135)rotate(-70)scale(0.16 -0.16)">
       <use xlink:href="#DejaVuSans-32"/>
       <use x="31.787109" xlink:href="#DejaVuSans-105"/>
       <use x="59.570312" xlink:href="#DejaVuSans-115"/>
       <use x="111.669922" xlink:href="#DejaVuSans-111"/>
       <use x="172.851562" xlink:href="#DejaVuSans-108"/>
       <use x="200.634766" xlink:href="#DejaVuSans-97"/>
       <use x="261.914062" xlink:href="#DejaVuSans-116"/>
       <use x="301.123047" xlink:href="#DejaVuSans-105"/>
       <use x="328.90625" xlink:href="#DejaVuSans-111"/>
       <use x="390.087891" xlink:href="#DejaVuSans-110"/>
       <use x="453.466797" xlink:href="#DejaVuSans-32"/>
       <use x="485.253906" xlink:href="#DejaVuSans-99"/>
       <use x="540.234375" xlink:href="#DejaVuSans-118"/>
      </g>
     </g>
    </g>
    <g id="xtick_6">
     <g id="text_13">
      <!-- Out-of-sample  -->
      <g style="fill:#262626;" transform="translate(441.26858 343.131465)rotate(-70)scale(0.16 -0.16)">
       <use xlink:href="#DejaVuSans-79"/>
       <use x="78.710938" xlink:href="#DejaVuSans-117"/>
       <use x="142.089844" xlink:href="#DejaVuSans-116"/>
       <use x="181.298828" xlink:href="#DejaVuSans-45"/>
       <use x="217.398438" xlink:href="#DejaVuSans-111"/>
       <use x="278.580078" xlink:href="#DejaVuSans-102"/>
       <use x="313.707031" xlink:href="#DejaVuSans-45"/>
       <use x="349.791016" xlink:href="#DejaVuSans-115"/>
       <use x="401.890625" xlink:href="#DejaVuSans-97"/>
       <use x="463.169922" xlink:href="#DejaVuSans-109"/>
       <use x="560.582031" xlink:href="#DejaVuSans-112"/>
       <use x="624.058594" xlink:href="#DejaVuSans-108"/>
       <use x="651.841797" xlink:href="#DejaVuSans-101"/>
       <use x="713.365234" xlink:href="#DejaVuSans-32"/>
      </g>
      <!--  deconfounding -->
      <g style="fill:#262626;" transform="translate(457.216186 351.70012)rotate(-70)scale(0.16 -0.16)">
       <use xlink:href="#DejaVuSans-32"/>
       <use x="31.787109" xlink:href="#DejaVuSans-100"/>
       <use x="95.263672" xlink:href="#DejaVuSans-101"/>
       <use x="156.787109" xlink:href="#DejaVuSans-99"/>
       <use x="211.767578" xlink:href="#DejaVuSans-111"/>
       <use x="272.949219" xlink:href="#DejaVuSans-110"/>
       <use x="336.328125" xlink:href="#DejaVuSans-102"/>
       <use x="371.533203" xlink:href="#DejaVuSans-111"/>
       <use x="432.714844" xlink:href="#DejaVuSans-117"/>
       <use x="496.09375" xlink:href="#DejaVuSans-110"/>
       <use x="559.472656" xlink:href="#DejaVuSans-100"/>
       <use x="622.949219" xlink:href="#DejaVuSans-105"/>
       <use x="650.732422" xlink:href="#DejaVuSans-110"/>
       <use x="714.111328" xlink:href="#DejaVuSans-103"/>
      </g>
     </g>
    </g>
    <g id="xtick_7">
     <g id="text_14">
      <!-- Deconfounding  -->
      <g style="fill:#262626;" transform="translate(491.461937 347.604402)rotate(-70)scale(0.16 -0.16)">
       <use xlink:href="#DejaVuSans-68"/>
       <use x="77.001953" xlink:href="#DejaVuSans-101"/>
       <use x="138.525391" xlink:href="#DejaVuSans-99"/>
       <use x="193.505859" xlink:href="#DejaVuSans-111"/>
       <use x="254.6875" xlink:href="#DejaVuSans-110"/>
       <use x="318.066406" xlink:href="#DejaVuSans-102"/>
       <use x="353.271484" xlink:href="#DejaVuSans-111"/>
       <use x="414.453125" xlink:href="#DejaVuSans-117"/>
       <use x="477.832031" xlink:href="#DejaVuSans-110"/>
       <use x="541.210938" xlink:href="#DejaVuSans-100"/>
       <use x="604.6875" xlink:href="#DejaVuSans-105"/>
       <use x="632.470703" xlink:href="#DejaVuSans-110"/>
       <use x="695.849609" xlink:href="#DejaVuSans-103"/>
       <use x="759.326172" xlink:href="#DejaVuSans-32"/>
      </g>
      <!--  test and train -->
      <g style="fill:#262626;" transform="translate(510.565106 347.503218)rotate(-70)scale(0.16 -0.16)">
       <use xlink:href="#DejaVuSans-32"/>
       <use x="31.787109" xlink:href="#DejaVuSans-116"/>
       <use x="70.996094" xlink:href="#DejaVuSans-101"/>
       <use x="132.519531" xlink:href="#DejaVuSans-115"/>
       <use x="184.619141" xlink:href="#DejaVuSans-116"/>
       <use x="223.828125" xlink:href="#DejaVuSans-32"/>
       <use x="255.615234" xlink:href="#DejaVuSans-97"/>
       <use x="316.894531" xlink:href="#DejaVuSans-110"/>
       <use x="380.273438" xlink:href="#DejaVuSans-100"/>
       <use x="443.75" xlink:href="#DejaVuSans-32"/>
       <use x="475.537109" xlink:href="#DejaVuSans-116"/>
       <use x="514.746094" xlink:href="#DejaVuSans-114"/>
       <use x="555.859375" xlink:href="#DejaVuSans-97"/>
       <use x="617.138672" xlink:href="#DejaVuSans-105"/>
       <use x="644.921875" xlink:href="#DejaVuSans-110"/>
      </g>
      <!-- jointly -->
      <g style="fill:#262626;" transform="translate(538.399622 323.412857)rotate(-70)scale(0.16 -0.16)">
       <use xlink:href="#DejaVuSans-106"/>
       <use x="27.783203" xlink:href="#DejaVuSans-111"/>
       <use x="88.964844" xlink:href="#DejaVuSans-105"/>
       <use x="116.748047" xlink:href="#DejaVuSans-110"/>
       <use x="180.126953" xlink:href="#DejaVuSans-116"/>
       <use x="219.335938" xlink:href="#DejaVuSans-108"/>
       <use x="247.119141" xlink:href="#DejaVuSans-121"/>
      </g>
     </g>
    </g>
    <g id="xtick_8">
     <g id="text_15">
      <!-- Without  -->
      <g style="fill:#262626;" transform="translate(569.774114 319.045968)rotate(-70)scale(0.16 -0.16)">
       <use xlink:href="#DejaVuSans-87"/>
       <use x="98.845703" xlink:href="#DejaVuSans-105"/>
       <use x="126.628906" xlink:href="#DejaVuSans-116"/>
       <use x="165.837891" xlink:href="#DejaVuSans-104"/>
       <use x="229.216797" xlink:href="#DejaVuSans-111"/>
       <use x="290.398438" xlink:href="#DejaVuSans-117"/>
       <use x="353.777344" xlink:href="#DejaVuSans-116"/>
       <use x="392.986328" xlink:href="#DejaVuSans-32"/>
      </g>
      <!--  deconfounding -->
      <g style="fill:#262626;" transform="translate(576.955316 351.70012)rotate(-70)scale(0.16 -0.16)">
       <use xlink:href="#DejaVuSans-32"/>
       <use x="31.787109" xlink:href="#DejaVuSans-100"/>
       <use x="95.263672" xlink:href="#DejaVuSans-101"/>
       <use x="156.787109" xlink:href="#DejaVuSans-99"/>
       <use x="211.767578" xlink:href="#DejaVuSans-111"/>
       <use x="272.949219" xlink:href="#DejaVuSans-110"/>
       <use x="336.328125" xlink:href="#DejaVuSans-102"/>
       <use x="371.533203" xlink:href="#DejaVuSans-111"/>
       <use x="432.714844" xlink:href="#DejaVuSans-117"/>
       <use x="496.09375" xlink:href="#DejaVuSans-110"/>
       <use x="559.472656" xlink:href="#DejaVuSans-100"/>
       <use x="622.949219" xlink:href="#DejaVuSans-105"/>
       <use x="650.732422" xlink:href="#DejaVuSans-110"/>
       <use x="714.111328" xlink:href="#DejaVuSans-103"/>
      </g>
     </g>
    </g>
   </g>
   <g id="matplotlib.axis_4">
    <g id="ytick_6">
     <g id="line2d_31">
      <path clip-path="url(#p4489e964ca)" d="M 376.121739 213.485279 
L 615.6 213.485279 
" style="fill:none;stroke:#ffffff;stroke-linecap:round;stroke-width:0.8;"/>
     </g>
     <g id="text_16">
      <!-- 1.5 -->
      <defs>
       <path d="M 10.59375 35.5 
L 73.1875 35.5 
L 73.1875 27.203125 
L 10.59375 27.203125 
z
" id="DejaVuSans-8722"/>
      </defs>
      <g style="fill:#262626;" transform="translate(333.625802 218.804185)scale(0.14 -0.14)">
       <use xlink:href="#DejaVuSans-8722"/>
       <use x="83.789062" xlink:href="#DejaVuSans-49"/>
       <use x="147.412109" xlink:href="#DejaVuSans-46"/>
       <use x="179.199219" xlink:href="#DejaVuSans-53"/>
      </g>
     </g>
    </g>
    <g id="ytick_7">
     <g id="line2d_32">
      <path clip-path="url(#p4489e964ca)" d="M 376.121739 178.45149 
L 615.6 178.45149 
" style="fill:none;stroke:#ffffff;stroke-linecap:round;stroke-width:0.8;"/>
     </g>
     <g id="text_17">
      <!-- 1.0 -->
      <g style="fill:#262626;" transform="translate(333.625802 183.770396)scale(0.14 -0.14)">
       <use xlink:href="#DejaVuSans-8722"/>
       <use x="83.789062" xlink:href="#DejaVuSans-49"/>
       <use x="147.412109" xlink:href="#DejaVuSans-46"/>
       <use x="179.199219" xlink:href="#DejaVuSans-48"/>
      </g>
     </g>
    </g>
    <g id="ytick_8">
     <g id="line2d_33">
      <path clip-path="url(#p4489e964ca)" d="M 376.121739 143.4177 
L 615.6 143.4177 
" style="fill:none;stroke:#ffffff;stroke-linecap:round;stroke-width:0.8;"/>
     </g>
     <g id="text_18">
      <!-- 0.5 -->
      <g style="fill:#262626;" transform="translate(333.625802 148.736606)scale(0.14 -0.14)">
       <use xlink:href="#DejaVuSans-8722"/>
       <use x="83.789062" xlink:href="#DejaVuSans-48"/>
       <use x="147.412109" xlink:href="#DejaVuSans-46"/>
       <use x="179.199219" xlink:href="#DejaVuSans-53"/>
      </g>
     </g>
    </g>
    <g id="ytick_9">
     <g id="line2d_34">
      <path clip-path="url(#p4489e964ca)" d="M 376.121739 108.38391 
L 615.6 108.38391 
" style="fill:none;stroke:#ffffff;stroke-linecap:round;stroke-width:0.8;"/>
     </g>
     <g id="text_19">
      <!-- 0.0 -->
      <g style="fill:#262626;" transform="translate(345.357364 113.702816)scale(0.14 -0.14)">
       <use xlink:href="#DejaVuSans-48"/>
       <use x="63.623047" xlink:href="#DejaVuSans-46"/>
       <use x="95.410156" xlink:href="#DejaVuSans-48"/>
      </g>
     </g>
    </g>
    <g id="ytick_10">
     <g id="line2d_35">
      <path clip-path="url(#p4489e964ca)" d="M 376.121739 73.350121 
L 615.6 73.350121 
" style="fill:none;stroke:#ffffff;stroke-linecap:round;stroke-width:0.8;"/>
     </g>
     <g id="text_20">
      <!-- 0.5 -->
      <g style="fill:#262626;" transform="translate(345.357364 78.669027)scale(0.14 -0.14)">
       <use xlink:href="#DejaVuSans-48"/>
       <use x="63.623047" xlink:href="#DejaVuSans-46"/>
       <use x="95.410156" xlink:href="#DejaVuSans-53"/>
      </g>
     </g>
    </g>
    <g id="text_21">
     <!-- R2S score -->
     <defs>
      <path d="M 44.390625 34.1875 
Q 47.5625 33.109375 50.5625 29.59375 
Q 53.5625 26.078125 56.59375 19.921875 
L 66.609375 0 
L 56 0 
L 46.6875 18.703125 
Q 43.0625 26.03125 39.671875 28.421875 
Q 36.28125 30.8125 30.421875 30.8125 
L 19.671875 30.8125 
L 19.671875 0 
L 9.8125 0 
L 9.8125 72.90625 
L 32.078125 72.90625 
Q 44.578125 72.90625 50.734375 67.671875 
Q 56.890625 62.453125 56.890625 51.90625 
Q 56.890625 45.015625 53.6875 40.46875 
Q 50.484375 35.9375 44.390625 34.1875 
z
M 19.671875 64.796875 
L 19.671875 38.921875 
L 32.078125 38.921875 
Q 39.203125 38.921875 42.84375 42.21875 
Q 46.484375 45.515625 46.484375 51.90625 
Q 46.484375 58.296875 42.84375 61.546875 
Q 39.203125 64.796875 32.078125 64.796875 
z
" id="DejaVuSans-82"/>
      <path d="M 53.515625 70.515625 
L 53.515625 60.890625 
Q 47.90625 63.578125 42.921875 64.890625 
Q 37.9375 66.21875 33.296875 66.21875 
Q 25.25 66.21875 20.875 63.09375 
Q 16.5 59.96875 16.5 54.203125 
Q 16.5 49.359375 19.40625 46.890625 
Q 22.3125 44.4375 30.421875 42.921875 
L 36.375 41.703125 
Q 47.40625 39.59375 52.65625 34.296875 
Q 57.90625 29 57.90625 20.125 
Q 57.90625 9.515625 50.796875 4.046875 
Q 43.703125 -1.421875 29.984375 -1.421875 
Q 24.8125 -1.421875 18.96875 -0.25 
Q 13.140625 0.921875 6.890625 3.21875 
L 6.890625 13.375 
Q 12.890625 10.015625 18.65625 8.296875 
Q 24.421875 6.59375 29.984375 6.59375 
Q 38.421875 6.59375 43.015625 9.90625 
Q 47.609375 13.234375 47.609375 19.390625 
Q 47.609375 24.75 44.3125 27.78125 
Q 41.015625 30.8125 33.5 32.328125 
L 27.484375 33.5 
Q 16.453125 35.6875 11.515625 40.375 
Q 6.59375 45.0625 6.59375 53.421875 
Q 6.59375 63.09375 13.40625 68.65625 
Q 20.21875 74.21875 32.171875 74.21875 
Q 37.3125 74.21875 42.625 73.28125 
Q 47.953125 72.359375 53.515625 70.515625 
z
" id="DejaVuSans-83"/>
     </defs>
     <g style="fill:#262626;" transform="translate(326.298302 169.54)rotate(-90)scale(0.16 -0.16)">
      <use xlink:href="#DejaVuSans-82"/>
      <use x="69.482422" xlink:href="#DejaVuSans-50"/>
      <use x="133.105469" xlink:href="#DejaVuSans-83"/>
      <use x="196.582031" xlink:href="#DejaVuSans-32"/>
      <use x="228.369141" xlink:href="#DejaVuSans-115"/>
      <use x="280.46875" xlink:href="#DejaVuSans-99"/>
      <use x="335.449219" xlink:href="#DejaVuSans-111"/>
      <use x="396.630859" xlink:href="#DejaVuSans-114"/>
      <use x="437.712891" xlink:href="#DejaVuSans-101"/>
     </g>
    </g>
   </g>
   <g id="patch_28">
    <path clip-path="url(#p4489e964ca)" d="M 382.108696 80.854689 
L 430.004348 80.854689 
L 430.004348 57.571918 
L 382.108696 57.571918 
L 382.108696 80.854689 
z
" style="fill:#176d9c;stroke:#303030;stroke-linejoin:miter;stroke-width:1.5;"/>
   </g>
   <g id="patch_29">
    <path clip-path="url(#p4489e964ca)" d="M 441.978261 145.264413 
L 489.873913 145.264413 
L 489.873913 72.065996 
L 441.978261 72.065996 
L 441.978261 145.264413 
z
" style="fill:#c38820;stroke:#303030;stroke-linejoin:miter;stroke-width:1.5;"/>
   </g>
   <g id="patch_30">
    <path clip-path="url(#p4489e964ca)" d="M 501.847826 106.283681 
L 549.743478 106.283681 
L 549.743478 86.600188 
L 501.847826 86.600188 
L 501.847826 106.283681 
z
" style="fill:#158b6a;stroke:#303030;stroke-linejoin:miter;stroke-width:1.5;"/>
   </g>
   <g id="patch_31">
    <path clip-path="url(#p4489e964ca)" d="M 561.717391 55.272856 
L 609.613043 55.272856 
L 609.613043 54.660441 
L 561.717391 54.660441 
L 561.717391 55.272856 
z
" style="fill:#ba611b;stroke:#303030;stroke-linejoin:miter;stroke-width:1.5;"/>
   </g>
   <g id="line2d_36">
    <path clip-path="url(#p4489e964ca)" d="M 406.056522 80.854689 
L 406.056522 91.208272 
" style="fill:none;stroke:#303030;stroke-linecap:round;stroke-width:1.5;"/>
   </g>
   <g id="line2d_37">
    <path clip-path="url(#p4489e964ca)" d="M 406.056522 57.571918 
L 406.056522 53.657523 
" style="fill:none;stroke:#303030;stroke-linecap:round;stroke-width:1.5;"/>
   </g>
   <g id="line2d_38">
    <path clip-path="url(#p4489e964ca)" d="M 394.082609 91.208272 
L 418.030435 91.208272 
" style="fill:none;stroke:#303030;stroke-linecap:round;stroke-width:1.5;"/>
   </g>
   <g id="line2d_39">
    <path clip-path="url(#p4489e964ca)" d="M 394.082609 53.657523 
L 418.030435 53.657523 
" style="fill:none;stroke:#303030;stroke-linecap:round;stroke-width:1.5;"/>
   </g>
   <g id="line2d_40"/>
   <g id="line2d_41">
    <path clip-path="url(#p4489e964ca)" d="M 465.926087 145.264413 
L 465.926087 205.497855 
" style="fill:none;stroke:#303030;stroke-linecap:round;stroke-width:1.5;"/>
   </g>
   <g id="line2d_42">
    <path clip-path="url(#p4489e964ca)" d="M 465.926087 72.065996 
L 465.926087 54.847431 
" style="fill:none;stroke:#303030;stroke-linecap:round;stroke-width:1.5;"/>
   </g>
   <g id="line2d_43">
    <path clip-path="url(#p4489e964ca)" d="M 453.952174 205.497855 
L 477.9 205.497855 
" style="fill:none;stroke:#303030;stroke-linecap:round;stroke-width:1.5;"/>
   </g>
   <g id="line2d_44">
    <path clip-path="url(#p4489e964ca)" d="M 453.952174 54.847431 
L 477.9 54.847431 
" style="fill:none;stroke:#303030;stroke-linecap:round;stroke-width:1.5;"/>
   </g>
   <g id="line2d_45"/>
   <g id="line2d_46">
    <path clip-path="url(#p4489e964ca)" d="M 525.795652 106.283681 
L 525.795652 114.594874 
" style="fill:none;stroke:#303030;stroke-linecap:round;stroke-width:1.5;"/>
   </g>
   <g id="line2d_47">
    <path clip-path="url(#p4489e964ca)" d="M 525.795652 86.600188 
L 525.795652 83.233186 
" style="fill:none;stroke:#303030;stroke-linecap:round;stroke-width:1.5;"/>
   </g>
   <g id="line2d_48">
    <path clip-path="url(#p4489e964ca)" d="M 513.821739 114.594874 
L 537.769565 114.594874 
" style="fill:none;stroke:#303030;stroke-linecap:round;stroke-width:1.5;"/>
   </g>
   <g id="line2d_49">
    <path clip-path="url(#p4489e964ca)" d="M 513.821739 83.233186 
L 537.769565 83.233186 
" style="fill:none;stroke:#303030;stroke-linecap:round;stroke-width:1.5;"/>
   </g>
   <g id="line2d_50"/>
   <g id="line2d_51">
    <path clip-path="url(#p4489e964ca)" d="M 585.665217 55.272856 
L 585.665217 56.113862 
" style="fill:none;stroke:#303030;stroke-linecap:round;stroke-width:1.5;"/>
   </g>
   <g id="line2d_52">
    <path clip-path="url(#p4489e964ca)" d="M 585.665217 54.660441 
L 585.665217 54.086576 
" style="fill:none;stroke:#303030;stroke-linecap:round;stroke-width:1.5;"/>
   </g>
   <g id="line2d_53">
    <path clip-path="url(#p4489e964ca)" d="M 573.691304 56.113862 
L 597.63913 56.113862 
" style="fill:none;stroke:#303030;stroke-linecap:round;stroke-width:1.5;"/>
   </g>
   <g id="line2d_54">
    <path clip-path="url(#p4489e964ca)" d="M 573.691304 54.086576 
L 597.63913 54.086576 
" style="fill:none;stroke:#303030;stroke-linecap:round;stroke-width:1.5;"/>
   </g>
   <g id="line2d_55">
    <defs>
     <path d="M -0 3.535534 
L 2.12132 0 
L -0 -3.535534 
L -2.12132 -0 
z
" id="m6a00b9cc99" style="stroke:#303030;stroke-linejoin:miter;"/>
    </defs>
    <g clip-path="url(#p4489e964ca)">
     <use style="fill:#303030;stroke:#303030;stroke-linejoin:miter;" x="585.665217" xlink:href="#m6a00b9cc99" y="57.493009"/>
    </g>
   </g>
   <g id="line2d_56">
    <path clip-path="url(#p4489e964ca)" d="M 376.121739 108.38391 
L 615.6 108.38391 
" style="fill:none;stroke:#000000;stroke-linecap:round;stroke-width:1.5;"/>
   </g>
   <g id="line2d_57">
    <path clip-path="url(#p4489e964ca)" d="M 382.108696 69.074414 
L 430.004348 69.074414 
" style="fill:none;stroke:#303030;stroke-linecap:round;stroke-width:1.5;"/>
   </g>
   <g id="line2d_58">
    <path clip-path="url(#p4489e964ca)" d="M 441.978261 107.226912 
L 489.873913 107.226912 
" style="fill:none;stroke:#303030;stroke-linecap:round;stroke-width:1.5;"/>
   </g>
   <g id="line2d_59">
    <path clip-path="url(#p4489e964ca)" d="M 501.847826 93.048985 
L 549.743478 93.048985 
" style="fill:none;stroke:#303030;stroke-linecap:round;stroke-width:1.5;"/>
   </g>
   <g id="line2d_60">
    <path clip-path="url(#p4489e964ca)" d="M 561.717391 54.837487 
L 609.613043 54.837487 
" style="fill:none;stroke:#303030;stroke-linecap:round;stroke-width:1.5;"/>
   </g>
   <g id="patch_32">
    <path d="M 376.121739 216 
L 376.121739 43.2 
" style="fill:none;stroke:#ffffff;stroke-linecap:square;stroke-linejoin:miter;stroke-width:0.8;"/>
   </g>
   <g id="patch_33">
    <path d="M 615.6 216 
L 615.6 43.2 
" style="fill:none;stroke:#ffffff;stroke-linecap:square;stroke-linejoin:miter;stroke-width:0.8;"/>
   </g>
   <g id="patch_34">
    <path d="M 376.121739 216 
L 615.6 216 
" style="fill:none;stroke:#ffffff;stroke-linecap:square;stroke-linejoin:miter;stroke-width:0.8;"/>
   </g>
   <g id="patch_35">
    <path d="M 376.121739 43.2 
L 615.6 43.2 
" style="fill:none;stroke:#ffffff;stroke-linecap:square;stroke-linejoin:miter;stroke-width:0.8;"/>
   </g>
   <g id="PathCollection_5">
    <defs>
     <path d="M 0 6 
C 1.591219 6 3.117479 5.367802 4.242641 4.242641 
C 5.367802 3.117479 6 1.591219 6 0 
C 6 -1.591219 5.367802 -3.117479 4.242641 -4.242641 
C 3.117479 -5.367802 1.591219 -6 0 -6 
C -1.591219 -6 -3.117479 -5.367802 -4.242641 -4.242641 
C -5.367802 -3.117479 -6 -1.591219 -6 0 
C -6 1.591219 -5.367802 3.117479 -4.242641 4.242641 
C -3.117479 5.367802 -1.591219 6 0 6 
z
" id="C4_0_568ce902d7"/>
    </defs>
    <g clip-path="url(#p4489e964ca)">
     <use style="fill:#0173b2;fill-opacity:0.7;stroke:#000000;stroke-opacity:0.7;stroke-width:1.5;" x="409.530436" xlink:href="#C4_0_568ce902d7" y="91.208272"/>
    </g>
    <g clip-path="url(#p4489e964ca)">
     <use style="fill:#0173b2;fill-opacity:0.7;stroke:#000000;stroke-opacity:0.7;stroke-width:1.5;" x="409.448524" xlink:href="#C4_0_568ce902d7" y="70.687587"/>
    </g>
    <g clip-path="url(#p4489e964ca)">
     <use style="fill:#0173b2;fill-opacity:0.7;stroke:#000000;stroke-opacity:0.7;stroke-width:1.5;" x="401.641625" xlink:href="#C4_0_568ce902d7" y="53.657523"/>
    </g>
    <g clip-path="url(#p4489e964ca)">
     <use style="fill:#0173b2;fill-opacity:0.7;stroke:#000000;stroke-opacity:0.7;stroke-width:1.5;" x="407.996406" xlink:href="#C4_0_568ce902d7" y="74.94708"/>
    </g>
    <g clip-path="url(#p4489e964ca)">
     <use style="fill:#0173b2;fill-opacity:0.7;stroke:#000000;stroke-opacity:0.7;stroke-width:1.5;" x="405.487849" xlink:href="#C4_0_568ce902d7" y="57.349402"/>
    </g>
    <g clip-path="url(#p4489e964ca)">
     <use style="fill:#0173b2;fill-opacity:0.7;stroke:#000000;stroke-opacity:0.7;stroke-width:1.5;" x="410.846249" xlink:href="#C4_0_568ce902d7" y="67.461241"/>
    </g>
    <g clip-path="url(#p4489e964ca)">
     <use style="fill:#0173b2;fill-opacity:0.7;stroke:#000000;stroke-opacity:0.7;stroke-width:1.5;" x="408.396324" xlink:href="#C4_0_568ce902d7" y="55.688992"/>
    </g>
    <g clip-path="url(#p4489e964ca)">
     <use style="fill:#0173b2;fill-opacity:0.7;stroke:#000000;stroke-opacity:0.7;stroke-width:1.5;" x="411.456607" xlink:href="#C4_0_568ce902d7" y="82.823892"/>
    </g>
    <g clip-path="url(#p4489e964ca)">
     <use style="fill:#0173b2;fill-opacity:0.7;stroke:#000000;stroke-opacity:0.7;stroke-width:1.5;" x="401.3259" xlink:href="#C4_0_568ce902d7" y="85.088679"/>
    </g>
    <g clip-path="url(#p4489e964ca)">
     <use style="fill:#0173b2;fill-opacity:0.7;stroke:#000000;stroke-opacity:0.7;stroke-width:1.5;" x="400.555794" xlink:href="#C4_0_568ce902d7" y="58.239467"/>
    </g>
   </g>
   <g id="PathCollection_6">
    <defs>
     <path d="M 0 6 
C 1.591219 6 3.117479 5.367802 4.242641 4.242641 
C 5.367802 3.117479 6 1.591219 6 0 
C 6 -1.591219 5.367802 -3.117479 4.242641 -4.242641 
C 3.117479 -5.367802 1.591219 -6 0 -6 
C -1.591219 -6 -3.117479 -5.367802 -4.242641 -4.242641 
C -5.367802 -3.117479 -6 -1.591219 -6 0 
C -6 1.591219 -5.367802 3.117479 -4.242641 4.242641 
C -3.117479 5.367802 -1.591219 6 0 6 
z
" id="C5_0_f594d8a7bd"/>
    </defs>
    <g clip-path="url(#p4489e964ca)">
     <use style="fill:#de8f05;fill-opacity:0.7;stroke:#000000;stroke-opacity:0.7;stroke-width:1.5;" x="471.596685" xlink:href="#C5_0_f594d8a7bd" y="54.847431"/>
    </g>
    <g clip-path="url(#p4489e964ca)">
     <use style="fill:#de8f05;fill-opacity:0.7;stroke:#000000;stroke-opacity:0.7;stroke-width:1.5;" x="460.899344" xlink:href="#C5_0_f594d8a7bd" y="106.293243"/>
    </g>
    <g clip-path="url(#p4489e964ca)">
     <use style="fill:#de8f05;fill-opacity:0.7;stroke:#000000;stroke-opacity:0.7;stroke-width:1.5;" x="464.563406" xlink:href="#C5_0_f594d8a7bd" y="55.796379"/>
    </g>
    <g clip-path="url(#p4489e964ca)">
     <use style="fill:#de8f05;fill-opacity:0.7;stroke:#000000;stroke-opacity:0.7;stroke-width:1.5;" x="467.721822" xlink:href="#C5_0_f594d8a7bd" y="197.348526"/>
    </g>
    <g clip-path="url(#p4489e964ca)">
     <use style="fill:#de8f05;fill-opacity:0.7;stroke:#000000;stroke-opacity:0.7;stroke-width:1.5;" x="470.476853" xlink:href="#C5_0_f594d8a7bd" y="87.262497"/>
    </g>
    <g clip-path="url(#p4489e964ca)">
     <use style="fill:#de8f05;fill-opacity:0.7;stroke:#000000;stroke-opacity:0.7;stroke-width:1.5;" x="462.987417" xlink:href="#C5_0_f594d8a7bd" y="67.000495"/>
    </g>
    <g clip-path="url(#p4489e964ca)">
     <use style="fill:#de8f05;fill-opacity:0.7;stroke:#000000;stroke-opacity:0.7;stroke-width:1.5;" x="460.287071" xlink:href="#C5_0_f594d8a7bd" y="108.160581"/>
    </g>
    <g clip-path="url(#p4489e964ca)">
     <use style="fill:#de8f05;fill-opacity:0.7;stroke:#000000;stroke-opacity:0.7;stroke-width:1.5;" x="466.180973" xlink:href="#C5_0_f594d8a7bd" y="119.235692"/>
    </g>
    <g clip-path="url(#p4489e964ca)">
     <use style="fill:#de8f05;fill-opacity:0.7;stroke:#000000;stroke-opacity:0.7;stroke-width:1.5;" x="465.580185" xlink:href="#C5_0_f594d8a7bd" y="205.497855"/>
    </g>
    <g clip-path="url(#p4489e964ca)">
     <use style="fill:#de8f05;fill-opacity:0.7;stroke:#000000;stroke-opacity:0.7;stroke-width:1.5;" x="463.613843" xlink:href="#C5_0_f594d8a7bd" y="153.940653"/>
    </g>
   </g>
   <g id="PathCollection_7">
    <defs>
     <path d="M 0 6 
C 1.591219 6 3.117479 5.367802 4.242641 4.242641 
C 5.367802 3.117479 6 1.591219 6 0 
C 6 -1.591219 5.367802 -3.117479 4.242641 -4.242641 
C 3.117479 -5.367802 1.591219 -6 0 -6 
C -1.591219 -6 -3.117479 -5.367802 -4.242641 -4.242641 
C -5.367802 -3.117479 -6 -1.591219 -6 0 
C -6 1.591219 -5.367802 3.117479 -4.242641 4.242641 
C -3.117479 5.367802 -1.591219 6 0 6 
z
" id="C6_0_18cce02fb5"/>
    </defs>
    <g clip-path="url(#p4489e964ca)">
     <use style="fill:#029e73;fill-opacity:0.7;stroke:#000000;stroke-opacity:0.7;stroke-width:1.5;" x="530.272691" xlink:href="#C6_0_18cce02fb5" y="103.959369"/>
    </g>
    <g clip-path="url(#p4489e964ca)">
     <use style="fill:#029e73;fill-opacity:0.7;stroke:#000000;stroke-opacity:0.7;stroke-width:1.5;" x="528.781014" xlink:href="#C6_0_18cce02fb5" y="83.233186"/>
    </g>
    <g clip-path="url(#p4489e964ca)">
     <use style="fill:#029e73;fill-opacity:0.7;stroke:#000000;stroke-opacity:0.7;stroke-width:1.5;" x="530.083707" xlink:href="#C6_0_18cce02fb5" y="85.544947"/>
    </g>
    <g clip-path="url(#p4489e964ca)">
     <use style="fill:#029e73;fill-opacity:0.7;stroke:#000000;stroke-opacity:0.7;stroke-width:1.5;" x="521.746182" xlink:href="#C6_0_18cce02fb5" y="114.594874"/>
    </g>
    <g clip-path="url(#p4489e964ca)">
     <use style="fill:#029e73;fill-opacity:0.7;stroke:#000000;stroke-opacity:0.7;stroke-width:1.5;" x="528.099576" xlink:href="#C6_0_18cce02fb5" y="96.245603"/>
    </g>
    <g clip-path="url(#p4489e964ca)">
     <use style="fill:#029e73;fill-opacity:0.7;stroke:#000000;stroke-opacity:0.7;stroke-width:1.5;" x="531.484479" xlink:href="#C6_0_18cce02fb5" y="114.578752"/>
    </g>
    <g clip-path="url(#p4489e964ca)">
     <use style="fill:#029e73;fill-opacity:0.7;stroke:#000000;stroke-opacity:0.7;stroke-width:1.5;" x="527.135699" xlink:href="#C6_0_18cce02fb5" y="89.852368"/>
    </g>
    <g clip-path="url(#p4489e964ca)">
     <use style="fill:#029e73;fill-opacity:0.7;stroke:#000000;stroke-opacity:0.7;stroke-width:1.5;" x="521.860598" xlink:href="#C6_0_18cce02fb5" y="89.765912"/>
    </g>
    <g clip-path="url(#p4489e964ca)">
     <use style="fill:#029e73;fill-opacity:0.7;stroke:#000000;stroke-opacity:0.7;stroke-width:1.5;" x="531.732084" xlink:href="#C6_0_18cce02fb5" y="107.058452"/>
    </g>
    <g clip-path="url(#p4489e964ca)">
     <use style="fill:#029e73;fill-opacity:0.7;stroke:#000000;stroke-opacity:0.7;stroke-width:1.5;" x="526.134796" xlink:href="#C6_0_18cce02fb5" y="85.443072"/>
    </g>
   </g>
   <g id="PathCollection_8">
    <defs>
     <path d="M 0 6 
C 1.591219 6 3.117479 5.367802 4.242641 4.242641 
C 5.367802 3.117479 6 1.591219 6 0 
C 6 -1.591219 5.367802 -3.117479 4.242641 -4.242641 
C 3.117479 -5.367802 1.591219 -6 0 -6 
C -1.591219 -6 -3.117479 -5.367802 -4.242641 -4.242641 
C -5.367802 -3.117479 -6 -1.591219 -6 0 
C -6 1.591219 -5.367802 3.117479 -4.242641 4.242641 
C -3.117479 5.367802 -1.591219 6 0 6 
z
" id="C7_0_2e4acbc701"/>
    </defs>
    <g clip-path="url(#p4489e964ca)">
     <use style="fill:#d55e00;fill-opacity:0.7;stroke:#000000;stroke-opacity:0.7;stroke-width:1.5;" x="589.737055" xlink:href="#C7_0_2e4acbc701" y="54.808772"/>
    </g>
    <g clip-path="url(#p4489e964ca)">
     <use style="fill:#d55e00;fill-opacity:0.7;stroke:#000000;stroke-opacity:0.7;stroke-width:1.5;" x="581.466702" xlink:href="#C7_0_2e4acbc701" y="54.645171"/>
    </g>
    <g clip-path="url(#p4489e964ca)">
     <use style="fill:#d55e00;fill-opacity:0.7;stroke:#000000;stroke-opacity:0.7;stroke-width:1.5;" x="587.654039" xlink:href="#C7_0_2e4acbc701" y="55.328419"/>
    </g>
    <g clip-path="url(#p4489e964ca)">
     <use style="fill:#d55e00;fill-opacity:0.7;stroke:#000000;stroke-opacity:0.7;stroke-width:1.5;" x="590.605866" xlink:href="#C7_0_2e4acbc701" y="54.866203"/>
    </g>
    <g clip-path="url(#p4489e964ca)">
     <use style="fill:#d55e00;fill-opacity:0.7;stroke:#000000;stroke-opacity:0.7;stroke-width:1.5;" x="586.048596" xlink:href="#C7_0_2e4acbc701" y="54.375309"/>
    </g>
    <g clip-path="url(#p4489e964ca)">
     <use style="fill:#d55e00;fill-opacity:0.7;stroke:#000000;stroke-opacity:0.7;stroke-width:1.5;" x="583.134651" xlink:href="#C7_0_2e4acbc701" y="56.113862"/>
    </g>
    <g clip-path="url(#p4489e964ca)">
     <use style="fill:#d55e00;fill-opacity:0.7;stroke:#000000;stroke-opacity:0.7;stroke-width:1.5;" x="581.203999" xlink:href="#C7_0_2e4acbc701" y="54.70625"/>
    </g>
    <g clip-path="url(#p4489e964ca)">
     <use style="fill:#d55e00;fill-opacity:0.7;stroke:#000000;stroke-opacity:0.7;stroke-width:1.5;" x="583.221877" xlink:href="#C7_0_2e4acbc701" y="54.086576"/>
    </g>
    <g clip-path="url(#p4489e964ca)">
     <use style="fill:#d55e00;fill-opacity:0.7;stroke:#000000;stroke-opacity:0.7;stroke-width:1.5;" x="583.927613" xlink:href="#C7_0_2e4acbc701" y="57.493009"/>
    </g>
    <g clip-path="url(#p4489e964ca)">
     <use style="fill:#d55e00;fill-opacity:0.7;stroke:#000000;stroke-opacity:0.7;stroke-width:1.5;" x="588.179202" xlink:href="#C7_0_2e4acbc701" y="55.106166"/>
    </g>
   </g>
   <g id="text_22">
    <!-- $R^2  score$ -->
    <defs>
     <path d="M 25.203125 64.796875 
L 20.21875 38.921875 
L 32.90625 38.921875 
Q 40.375 38.921875 44.984375 43.046875 
Q 49.609375 47.171875 49.609375 53.8125 
Q 49.609375 59.125 46.5 61.953125 
Q 43.40625 64.796875 37.59375 64.796875 
z
M 43.3125 35.015625 
Q 46.4375 34.28125 48.515625 31.390625 
Q 50.59375 28.515625 53.328125 19.921875 
L 59.515625 0 
L 49.125 0 
L 43.40625 18.703125 
Q 41.21875 25.921875 38.328125 28.359375 
Q 35.453125 30.8125 29.5 30.8125 
L 18.609375 30.8125 
L 12.59375 0 
L 2.6875 0 
L 16.890625 72.90625 
L 39.109375 72.90625 
Q 49.21875 72.90625 54.609375 68.328125 
Q 60.015625 63.765625 60.015625 55.171875 
Q 60.015625 47.5625 55.421875 41.984375 
Q 50.828125 36.421875 43.3125 35.015625 
z
" id="DejaVuSans-Oblique-82"/>
     <path d="M 50 53.078125 
L 48.296875 44.578125 
Q 44.734375 46.53125 40.765625 47.5 
Q 36.8125 48.484375 32.625 48.484375 
Q 25.53125 48.484375 21.453125 46.0625 
Q 17.390625 43.65625 17.390625 39.5 
Q 17.390625 34.671875 26.859375 32.078125 
Q 27.59375 31.890625 27.9375 31.78125 
L 30.8125 30.90625 
Q 39.796875 28.421875 42.796875 25.6875 
Q 45.796875 22.953125 45.796875 18.21875 
Q 45.796875 9.515625 38.890625 4.046875 
Q 31.984375 -1.421875 20.796875 -1.421875 
Q 16.453125 -1.421875 11.671875 -0.578125 
Q 6.890625 0.25 1.125 2 
L 2.875 11.28125 
Q 7.8125 8.734375 12.59375 7.421875 
Q 17.390625 6.109375 21.78125 6.109375 
Q 28.375 6.109375 32.5 8.9375 
Q 36.625 11.765625 36.625 16.109375 
Q 36.625 20.796875 25.78125 23.6875 
L 24.859375 23.921875 
L 21.78125 24.703125 
Q 14.9375 26.515625 11.765625 29.46875 
Q 8.59375 32.421875 8.59375 37.015625 
Q 8.59375 45.75 15.15625 50.875 
Q 21.734375 56 33.015625 56 
Q 37.453125 56 41.671875 55.265625 
Q 45.90625 54.546875 50 53.078125 
z
" id="DejaVuSans-Oblique-115"/>
     <path d="M 53.609375 52.59375 
L 51.8125 43.703125 
Q 48.578125 46.046875 44.9375 47.21875 
Q 41.3125 48.390625 37.40625 48.390625 
Q 33.109375 48.390625 29.21875 46.875 
Q 25.34375 45.359375 22.703125 42.578125 
Q 18.5 38.328125 16.203125 32.609375 
Q 13.921875 26.90625 13.921875 20.796875 
Q 13.921875 13.421875 17.609375 9.8125 
Q 21.296875 6.203125 28.8125 6.203125 
Q 32.515625 6.203125 36.6875 7.328125 
Q 40.875 8.453125 45.40625 10.6875 
L 43.703125 1.8125 
Q 39.796875 0.203125 35.671875 -0.609375 
Q 31.546875 -1.421875 27.203125 -1.421875 
Q 16.3125 -1.421875 10.453125 4.015625 
Q 4.59375 9.46875 4.59375 19.578125 
Q 4.59375 28.078125 7.640625 35.234375 
Q 10.6875 42.390625 16.703125 48.09375 
Q 20.796875 52 26.3125 54 
Q 31.84375 56 38.375 56 
Q 42.1875 56 45.9375 55.140625 
Q 49.703125 54.296875 53.609375 52.59375 
z
" id="DejaVuSans-Oblique-99"/>
     <path d="M 25.390625 -1.421875 
Q 15.765625 -1.421875 10.171875 4.515625 
Q 4.59375 10.453125 4.59375 20.703125 
Q 4.59375 26.65625 6.515625 32.828125 
Q 8.453125 39.015625 11.53125 43.21875 
Q 16.359375 49.75 22.3125 52.875 
Q 28.265625 56 35.796875 56 
Q 45.125 56 50.859375 50.1875 
Q 56.59375 44.390625 56.59375 35.015625 
Q 56.59375 28.515625 54.6875 22.0625 
Q 52.78125 15.625 49.703125 11.375 
Q 44.921875 4.828125 38.96875 1.703125 
Q 33.015625 -1.421875 25.390625 -1.421875 
z
M 13.921875 21 
Q 13.921875 13.578125 17.015625 9.890625 
Q 20.125 6.203125 26.421875 6.203125 
Q 35.453125 6.203125 41.375 14.078125 
Q 47.3125 21.96875 47.3125 34.078125 
Q 47.3125 41.15625 44.140625 44.765625 
Q 40.96875 48.390625 34.8125 48.390625 
Q 29.734375 48.390625 25.78125 46.015625 
Q 21.828125 43.65625 18.703125 38.8125 
Q 16.40625 35.203125 15.15625 30.5625 
Q 13.921875 25.921875 13.921875 21 
z
" id="DejaVuSans-Oblique-111"/>
     <path d="M 44.578125 46.390625 
Q 43.21875 47.125 41.453125 47.515625 
Q 39.703125 47.90625 37.703125 47.90625 
Q 30.515625 47.90625 25.140625 42.453125 
Q 19.78125 37.015625 18.015625 27.875 
L 12.5 0 
L 3.515625 0 
L 14.203125 54.6875 
L 23.1875 54.6875 
L 21.484375 46.1875 
Q 25.046875 50.921875 30 53.453125 
Q 34.96875 56 40.578125 56 
Q 42.046875 56 43.453125 55.828125 
Q 44.875 55.671875 46.296875 55.28125 
z
" id="DejaVuSans-Oblique-114"/>
     <path d="M 48.09375 32.234375 
Q 48.25 33.015625 48.3125 33.84375 
Q 48.390625 34.671875 48.390625 35.5 
Q 48.390625 41.453125 44.890625 44.921875 
Q 41.40625 48.390625 35.40625 48.390625 
Q 28.71875 48.390625 23.578125 44.15625 
Q 18.453125 39.9375 15.828125 32.171875 
z
M 55.90625 25.203125 
L 14.109375 25.203125 
Q 13.8125 23.34375 13.71875 22.265625 
Q 13.625 21.1875 13.625 20.40625 
Q 13.625 13.625 17.796875 9.90625 
Q 21.96875 6.203125 29.59375 6.203125 
Q 35.453125 6.203125 40.671875 7.515625 
Q 45.90625 8.84375 50.390625 11.375 
L 48.6875 2.484375 
Q 43.84375 0.53125 38.6875 -0.4375 
Q 33.546875 -1.421875 28.21875 -1.421875 
Q 16.84375 -1.421875 10.71875 4.015625 
Q 4.59375 9.46875 4.59375 19.484375 
Q 4.59375 28.03125 7.640625 35.375 
Q 10.6875 42.71875 16.609375 48.484375 
Q 20.40625 52.09375 25.65625 54.046875 
Q 30.90625 56 36.8125 56 
Q 46.09375 56 51.578125 50.4375 
Q 57.078125 44.875 57.078125 35.5 
Q 57.078125 33.25 56.78125 30.6875 
Q 56.5 28.125 55.90625 25.203125 
z
" id="DejaVuSans-Oblique-101"/>
    </defs>
    <g style="fill:#262626;" transform="translate(448.46087 37.2)scale(0.24 -0.24)">
     <use transform="translate(0 0.765625)" xlink:href="#DejaVuSans-Oblique-82"/>
     <use transform="translate(76.499193 39.046875)scale(0.7)" xlink:href="#DejaVuSans-50"/>
     <use transform="translate(123.769701 0.765625)" xlink:href="#DejaVuSans-Oblique-115"/>
     <use transform="translate(175.86931 0.765625)" xlink:href="#DejaVuSans-Oblique-99"/>
     <use transform="translate(230.849779 0.765625)" xlink:href="#DejaVuSans-Oblique-111"/>
     <use transform="translate(292.031419 0.765625)" xlink:href="#DejaVuSans-Oblique-114"/>
     <use transform="translate(333.144701 0.765625)" xlink:href="#DejaVuSans-Oblique-101"/>
    </g>
   </g>
  </g>
 </g>
 <defs>
  <clipPath id="p4e11ecc85c">
   <rect height="172.8" width="239.478261" x="64.8" y="43.2"/>
  </clipPath>
  <clipPath id="p4489e964ca">
   <rect height="172.8" width="239.478261" x="376.121739" y="43.2"/>
  </clipPath>
 </defs>
</svg>
